<svg xmlns="http://www.w3.org/2000/svg" xmlns:xlink="http://www.w3.org/1999/xlink" width="140" zoomAndPan="magnify" viewBox="0 0 104.88 52.499999" height="70" preserveAspectRatio="xMidYMid meet" version="1.0"><defs><g/><clipPath id="abdab3ae79"><path d="M 0.433594 28 L 2 28 L 2 31 L 0.433594 31 Z M 0.433594 28 " clip-rule="nonzero"/></clipPath><clipPath id="ab9d3193cd"><path d="M 0.433594 27 L 2 27 L 2 30 L 0.433594 30 Z M 0.433594 27 " clip-rule="nonzero"/></clipPath><clipPath id="4a3ac974a0"><path d="M 0.433594 23 L 2 23 L 2 26 L 0.433594 26 Z M 0.433594 23 " clip-rule="nonzero"/></clipPath><clipPath id="d0ef62aac3"><path d="M 0.433594 24 L 1 24 L 1 28 L 0.433594 28 Z M 0.433594 24 " clip-rule="nonzero"/></clipPath><clipPath id="fdde047ccc"><path d="M 0.433594 22 L 1 22 L 1 25 L 0.433594 25 Z M 0.433594 22 " clip-rule="nonzero"/></clipPath><clipPath id="1780105ec4"><path d="M 0.433594 21 L 2 21 L 2 24 L 0.433594 24 Z M 0.433594 21 " clip-rule="nonzero"/></clipPath><clipPath id="357530b20a"><path d="M 0.433594 19 L 2 19 L 2 22 L 0.433594 22 Z M 0.433594 19 " clip-rule="nonzero"/></clipPath><clipPath id="54dccd6d48"><path d="M 16 42 L 18 42 L 18 43.066406 L 16 43.066406 Z M 16 42 " clip-rule="nonzero"/></clipPath><clipPath id="ff5bc3069e"><path d="M 17 42 L 19 42 L 19 43.066406 L 17 43.066406 Z M 17 42 " clip-rule="nonzero"/></clipPath><clipPath id="18d0519b62"><path d="M 19 43 L 21 43 L 21 43.066406 L 19 43.066406 Z M 19 43 " clip-rule="nonzero"/></clipPath><clipPath id="8c58657d0e"><path d="M 9 8.890625 L 11 8.890625 L 11 10 L 9 10 Z M 9 8.890625 " clip-rule="nonzero"/></clipPath><clipPath id="dadb14ef56"><path d="M 27 29 L 27.921875 29 L 27.921875 31 L 27 31 Z M 27 29 " clip-rule="nonzero"/></clipPath><clipPath id="206cd8c372"><path d="M 27 33 L 27.921875 33 L 27.921875 34 L 27 34 Z M 27 33 " clip-rule="nonzero"/></clipPath></defs><path fill="#0cc0df" d="M 6.453125 38.179688 C 6.136719 37.855469 5.582031 37.320312 5.355469 37.175781 C 5.34375 37.167969 5.324219 37.164062 5.308594 37.164062 C 5.3125 37.316406 6.753906 38.710938 6.914062 38.714844 C 6.910156 38.660156 6.660156 38.394531 6.453125 38.179688 " fill-opacity="1" fill-rule="nonzero"/><path fill="#0cc0df" d="M 8.320312 39.53125 C 7.988281 39.246094 7.386719 38.78125 7.089844 38.667969 C 7.066406 38.660156 7.03125 38.652344 7.023438 38.660156 C 6.964844 38.714844 7.34375 39.070312 7.730469 39.371094 C 8.230469 39.753906 8.683594 40.035156 8.765625 40.003906 C 8.792969 39.945312 8.5 39.683594 8.320312 39.53125 " fill-opacity="1" fill-rule="nonzero"/><path fill="#0cc0df" d="M 2.101562 32.269531 C 2.09375 32.261719 2.082031 32.253906 2.074219 32.253906 C 2.070312 32.457031 3.03125 34.292969 3.144531 34.300781 C 3.144531 34.21875 2.953125 33.816406 2.839844 33.585938 C 2.636719 33.179688 2.261719 32.460938 2.101562 32.269531 " fill-opacity="1" fill-rule="nonzero"/><path fill="#0cc0df" d="M 3.300781 34.242188 C 3.277344 34.230469 3.253906 34.21875 3.242188 34.230469 C 3.117188 34.359375 4.246094 36.027344 4.511719 36.109375 C 4.617188 36.144531 4.503906 35.867188 4.238281 35.4375 C 3.992188 35.035156 3.535156 34.398438 3.300781 34.242188 " fill-opacity="1" fill-rule="nonzero"/><path fill="#0cc0df" d="M 5.925781 37.089844 C 5.652344 36.726562 5.125 36.152344 4.808594 36.023438 C 4.785156 36.015625 4.746094 36.007812 4.726562 36.023438 C 4.511719 36.171875 5.78125 37.660156 6.175781 37.714844 C 6.320312 37.738281 6.21875 37.480469 5.925781 37.089844 " fill-opacity="1" fill-rule="nonzero"/><path fill="#0cc0df" d="M 1.253906 30.125 C 1.269531 30.164062 1.289062 30.222656 1.3125 30.292969 C 1.292969 30.238281 1.273438 30.179688 1.253906 30.125 " fill-opacity="1" fill-rule="nonzero"/><path fill="#0cc0df" d="M 2.65625 32.949219 C 2.804688 33.03125 2.78125 32.695312 2.59375 32.15625 C 2.433594 31.695312 2.097656 30.964844 1.859375 30.796875 C 1.84375 30.789062 1.824219 30.78125 1.808594 30.78125 C 1.558594 30.832031 2.308594 32.753906 2.65625 32.949219 " fill-opacity="1" fill-rule="nonzero"/><path fill="#0cc0df" d="M 4.058594 34.835938 C 4.265625 34.902344 4.25 34.578125 4.023438 34.078125 C 3.828125 33.648438 3.40625 32.976562 3.074219 32.832031 C 3.046875 32.824219 3.007812 32.816406 2.976562 32.835938 C 2.691406 33.015625 3.589844 34.679688 4.058594 34.835938 " fill-opacity="1" fill-rule="nonzero"/><path fill="#0cc0df" d="M 5.707031 36.511719 C 6.007812 36.613281 6.03125 36.296875 5.761719 35.808594 C 5.503906 35.347656 4.996094 34.785156 4.625 34.6875 C 4.585938 34.683594 4.539062 34.675781 4.5 34.695312 C 4.144531 34.886719 5.09375 36.3125 5.707031 36.511719 " fill-opacity="1" fill-rule="nonzero"/><g clip-path="url(#abdab3ae79)"><path fill="#0cc0df" d="M 1.011719 28.609375 C 1.003906 28.601562 0.992188 28.59375 0.984375 28.59375 C 0.832031 28.6875 1.425781 30.839844 1.617188 30.898438 C 1.691406 30.851562 1.550781 30.246094 1.507812 30.058594 C 1.398438 29.605469 1.167969 28.8125 1.011719 28.609375 " fill-opacity="1" fill-rule="nonzero"/></g><path fill="#0cc0df" d="M 2.527344 31.429688 C 2.769531 31.566406 2.859375 31.175781 2.722656 30.566406 C 2.617188 30.078125 2.320312 29.328125 1.992188 29.179688 C 1.972656 29.175781 1.941406 29.167969 1.917969 29.171875 C 1.5 29.265625 2.003906 31.140625 2.527344 31.429688 " fill-opacity="1" fill-rule="nonzero"/><path fill="#0cc0df" d="M 3.894531 33.363281 C 4.242188 33.539062 4.378906 33.15625 4.1875 32.546875 C 4.042969 32.082031 3.648438 31.375 3.226562 31.257812 C 3.199219 31.253906 3.160156 31.25 3.132812 31.257812 C 2.636719 31.375 3.234375 33.027344 3.894531 33.363281 " fill-opacity="1" fill-rule="nonzero"/><path fill="#0cc0df" d="M 5.554688 35.105469 C 6.011719 35.316406 6.203125 34.953125 5.957031 34.339844 C 5.78125 33.90625 5.3125 33.257812 4.8125 33.171875 C 4.769531 33.171875 4.707031 33.167969 4.652344 33.195312 C 4.1875 33.414062 4.828125 34.773438 5.554688 35.105469 " fill-opacity="1" fill-rule="nonzero"/><g clip-path="url(#ab9d3193cd)"><path fill="#0cc0df" d="M 1.460938 29.308594 C 1.632812 29.460938 1.710938 29.078125 1.632812 28.453125 C 1.574219 27.96875 1.390625 27.203125 1.160156 27.035156 C 1.144531 27.027344 1.125 27.019531 1.109375 27.023438 C 0.796875 27.078125 1.089844 28.980469 1.460938 29.308594 " fill-opacity="1" fill-rule="nonzero"/></g><path fill="#0cc0df" d="M 3.230469 28.84375 C 3.179688 28.351562 2.917969 27.609375 2.511719 27.488281 C 2.480469 27.484375 2.441406 27.484375 2.414062 27.488281 C 1.90625 27.609375 2.121094 29.269531 2.695312 29.710938 C 3.050781 29.984375 3.308594 29.5625 3.230469 28.84375 " fill-opacity="1" fill-rule="nonzero"/><path fill="#0cc0df" d="M 4.703125 30.832031 C 4.605469 30.34375 4.246094 29.613281 3.75 29.523438 C 3.714844 29.519531 3.664062 29.519531 3.628906 29.53125 C 3.054688 29.679688 3.359375 31.207031 4.058594 31.683594 C 4.535156 32.007812 4.851562 31.585938 4.703125 30.832031 " fill-opacity="1" fill-rule="nonzero"/><path fill="#0cc0df" d="M 6.464844 32.679688 C 6.335938 32.214844 5.898438 31.53125 5.335938 31.472656 C 5.296875 31.472656 5.242188 31.476562 5.203125 31.488281 C 4.570312 31.667969 4.984375 33.117188 5.785156 33.527344 C 6.328125 33.808594 6.664062 33.386719 6.464844 32.679688 " fill-opacity="1" fill-rule="nonzero"/><path fill="#0cc0df" d="M 1.699219 27.648438 C 1.941406 27.859375 2.148438 27.457031 2.136719 26.785156 C 2.132812 26.296875 1.984375 25.546875 1.675781 25.402344 C 1.65625 25.398438 1.625 25.394531 1.601562 25.398438 C 1.164062 25.488281 1.242188 27.257812 1.699219 27.648438 " fill-opacity="1" fill-rule="nonzero"/><path fill="#0cc0df" d="M 4.078125 27.046875 C 4.066406 26.554688 3.839844 25.824219 3.371094 25.734375 C 3.351562 25.734375 3.328125 25.730469 3.3125 25.734375 C 2.6875 25.777344 2.617188 27.277344 3.210938 27.875 C 3.640625 28.300781 4.09375 27.871094 4.078125 27.046875 " fill-opacity="1" fill-rule="nonzero"/><path fill="#0cc0df" d="M 5.511719 28.976562 C 5.460938 28.484375 5.140625 27.761719 4.589844 27.703125 C 4.570312 27.703125 4.542969 27.703125 4.523438 27.703125 C 3.816406 27.789062 3.871094 29.300781 4.601562 29.859375 C 5.125 30.261719 5.601562 29.800781 5.511719 28.976562 " fill-opacity="1" fill-rule="nonzero"/><path fill="#0cc0df" d="M 7.253906 30.835938 C 7.164062 30.34375 6.757812 29.632812 6.144531 29.605469 C 6.121094 29.605469 6.089844 29.609375 6.066406 29.613281 C 5.339844 29.726562 5.445312 31.128906 6.222656 31.699219 C 6.855469 32.15625 7.410156 31.691406 7.253906 30.835938 " fill-opacity="1" fill-rule="nonzero"/><path fill="#0cc0df" d="M 2.242188 25.882812 C 2.550781 26.242188 2.925781 25.828125 2.984375 25.0625 C 3.023438 24.574219 2.902344 23.839844 2.527344 23.726562 C 2.511719 23.722656 2.492188 23.71875 2.480469 23.722656 C 1.953125 23.730469 1.777344 25.347656 2.242188 25.882812 " fill-opacity="1" fill-rule="nonzero"/><path fill="#0cc0df" d="M 4.066406 26.046875 C 4.507812 26.546875 5.101562 26.09375 5.144531 25.226562 C 5.167969 24.738281 4.972656 24.019531 4.464844 23.960938 C 3.699219 23.996094 3.539062 25.453125 4.066406 26.046875 " fill-opacity="1" fill-rule="nonzero"/><path fill="#0cc0df" d="M 6.550781 27.089844 C 6.53125 26.597656 6.242188 25.882812 5.65625 25.851562 C 4.796875 25.929688 4.761719 27.402344 5.414062 27.972656 C 5.957031 28.449219 6.582031 27.960938 6.550781 27.089844 " fill-opacity="1" fill-rule="nonzero"/><path fill="#0cc0df" d="M 6.992188 29.769531 C 7.640625 30.328125 8.363281 29.832031 8.257812 28.894531 C 8.203125 28.398438 7.828125 27.695312 7.175781 27.695312 C 6.285156 27.804688 6.292969 29.167969 6.992188 29.769531 " fill-opacity="1" fill-rule="nonzero"/><path fill="#0cc0df" d="M 4.082031 23.320312 C 4.152344 22.839844 4.058594 22.125 3.636719 22.042969 C 2.957031 22.035156 2.683594 23.59375 3.117188 24.136719 C 3.457031 24.558594 3.964844 24.132812 4.082031 23.320312 " fill-opacity="1" fill-rule="nonzero"/><path fill="#0cc0df" d="M 9.597656 38.054688 C 10.128906 38.191406 10.339844 37.855469 10.050781 37.335938 C 9.84375 36.96875 9.289062 36.445312 8.703125 36.425781 C 8.625 36.429688 8.539062 36.4375 8.460938 36.492188 C 8.007812 36.808594 8.761719 37.84375 9.597656 38.054688 " fill-opacity="1" fill-rule="nonzero"/><path fill="#0cc0df" d="M 10.570312 35.820312 C 10.40625 35.414062 9.878906 34.847656 9.226562 34.851562 C 9.167969 34.859375 9.082031 34.867188 9.007812 34.90625 C 8.410156 35.183594 8.878906 36.265625 9.742188 36.605469 C 10.40625 36.867188 10.832031 36.460938 10.570312 35.820312 " fill-opacity="1" fill-rule="nonzero"/><path fill="#0cc0df" d="M 11.359375 34.105469 C 11.226562 33.664062 10.726562 33.054688 10.019531 33.085938 C 9.992188 33.089844 9.957031 33.09375 9.929688 33.097656 C 9.152344 33.261719 9.296875 34.417969 10.15625 34.917969 C 10.917969 35.355469 11.59375 34.902344 11.359375 34.105469 " fill-opacity="1" fill-rule="nonzero"/><path fill="#0cc0df" d="M 11.03125 31.136719 C 11.003906 31.140625 10.964844 31.144531 10.9375 31.152344 C 10.097656 31.355469 10.144531 32.609375 11.011719 33.125 C 11.777344 33.578125 12.546875 33.050781 12.363281 32.199219 C 12.261719 31.726562 11.78125 31.082031 11.03125 31.136719 " fill-opacity="1" fill-rule="nonzero"/><path fill="#0cc0df" d="M 9.726562 39.277344 C 10.089844 39.328125 10.136719 39.050781 9.828125 38.648438 C 9.574219 38.324219 8.992188 37.84375 8.480469 37.796875 C 8.414062 37.800781 8.34375 37.800781 8.285156 37.847656 C 7.921875 38.125 8.988281 39.183594 9.726562 39.277344 " fill-opacity="1" fill-rule="nonzero"/><path fill="#0cc0df" d="M 10.125 40.28125 C 10.328125 40.277344 10.25 40.066406 9.929688 39.761719 C 9.648438 39.492188 9.035156 39.039062 8.585938 38.972656 C 8.527344 38.96875 8.472656 38.96875 8.433594 39 C 8.199219 39.230469 9.601562 40.292969 10.125 40.28125 " fill-opacity="1" fill-rule="nonzero"/><path fill="#0cc0df" d="M 7.660156 35.1875 C 8.347656 35.523438 8.796875 35.078125 8.53125 34.320312 C 8.367188 33.84375 7.832031 33.164062 7.164062 33.136719 C 7.117188 33.140625 7.050781 33.144531 7.007812 33.160156 C 6.300781 33.371094 6.742188 34.734375 7.660156 35.1875 " fill-opacity="1" fill-rule="nonzero"/><path fill="#0cc0df" d="M 7.535156 36.734375 C 8.078125 36.917969 8.300781 36.53125 8.007812 35.921875 C 7.796875 35.484375 7.230469 34.84375 6.632812 34.789062 C 6.578125 34.789062 6.5 34.792969 6.4375 34.824219 C 5.867188 35.089844 6.636719 36.425781 7.535156 36.734375 " fill-opacity="1" fill-rule="nonzero"/><g clip-path="url(#4a3ac974a0)"><path fill="#0cc0df" d="M 1.503906 24.710938 C 1.546875 24.191406 1.507812 23.378906 1.28125 23.203125 C 1.265625 23.195312 1.238281 23.1875 1.222656 23.191406 C 0.839844 23.257812 0.730469 25.292969 1.089844 25.636719 C 1.261719 25.800781 1.445312 25.386719 1.503906 24.710938 " fill-opacity="1" fill-rule="nonzero"/></g><g clip-path="url(#d0ef62aac3)"><path fill="#0cc0df" d="M 0.742188 24.761719 C 0.734375 24.753906 0.71875 24.742188 0.707031 24.746094 C 0.476562 24.769531 0.582031 26.984375 0.824219 27.238281 C 0.925781 27.347656 0.996094 26.953125 0.980469 26.320312 C 0.972656 25.796875 0.890625 24.964844 0.742188 24.761719 " fill-opacity="1" fill-rule="nonzero"/></g><path fill="#0cc0df" d="M 9.246094 32.527344 C 9.128906 32.054688 8.664062 31.390625 7.996094 31.394531 C 7.945312 31.398438 7.878906 31.40625 7.835938 31.421875 C 7.125 31.65625 7.339844 32.910156 8.167969 33.394531 C 8.859375 33.796875 9.441406 33.328125 9.246094 32.527344 " fill-opacity="1" fill-rule="nonzero"/><path fill="#0cc0df" d="M 8.941406 31.472656 C 9.660156 31.988281 10.414062 31.464844 10.257812 30.554688 C 10.171875 30.058594 9.730469 29.371094 9.023438 29.398438 C 8.996094 29.402344 8.960938 29.40625 8.933594 29.414062 C 8.128906 29.589844 8.132812 30.898438 8.941406 31.472656 " fill-opacity="1" fill-rule="nonzero"/><path fill="#0cc0df" d="M 7.640625 37.984375 C 7.988281 38.058594 8.023438 37.761719 7.726562 37.3125 C 7.488281 36.949219 6.933594 36.402344 6.457031 36.324219 C 6.394531 36.324219 6.328125 36.320312 6.273438 36.363281 C 5.949219 36.632812 6.972656 37.84375 7.640625 37.984375 " fill-opacity="1" fill-rule="nonzero"/><path fill="#0cc0df" d="M 8.058594 39.09375 C 8.242188 39.101562 8.152344 38.863281 7.84375 38.515625 C 7.554688 38.191406 6.972656 37.683594 6.585938 37.585938 C 6.535156 37.578125 6.488281 37.574219 6.460938 37.609375 C 6.277344 37.839844 7.605469 39.074219 8.058594 39.09375 " fill-opacity="1" fill-rule="nonzero"/><g clip-path="url(#fdde047ccc)"><path fill="#0cc0df" d="M 0.695312 22.671875 C 0.691406 22.667969 0.6875 22.664062 0.6875 22.65625 C 0.683594 22.65625 0.675781 22.65625 0.671875 22.65625 C 0.550781 22.859375 0.433594 24.707031 0.527344 24.925781 C 0.535156 24.929688 0.539062 24.929688 0.542969 24.929688 C 0.597656 24.832031 0.640625 24.371094 0.664062 24.105469 C 0.699219 23.660156 0.738281 22.875 0.695312 22.671875 " fill-opacity="1" fill-rule="nonzero"/></g><g clip-path="url(#1780105ec4)"><path fill="#0cc0df" d="M 1.179688 22.578125 C 1.269531 22.109375 1.34375 21.371094 1.230469 21.199219 C 1.21875 21.191406 1.207031 21.179688 1.195312 21.183594 C 0.945312 21.210938 0.628906 23.183594 0.835938 23.40625 C 0.925781 23.5 1.074219 23.144531 1.179688 22.578125 " fill-opacity="1" fill-rule="nonzero"/></g><path fill="#0cc0df" d="M 2.019531 21.015625 C 2.148438 20.554688 2.257812 19.839844 2.082031 19.695312 C 2.074219 19.695312 2.066406 19.6875 2.058594 19.6875 C 1.714844 19.632812 1.210938 21.398438 1.449219 21.8125 C 1.574219 22.027344 1.832031 21.664062 2.019531 21.015625 " fill-opacity="1" fill-rule="nonzero"/><path fill="#0cc0df" d="M 2.371094 20.21875 C 2.519531 20.484375 2.878906 20.113281 3.132812 19.433594 C 3.300781 18.984375 3.433594 18.296875 3.207031 18.179688 C 2.78125 18.105469 2.109375 19.742188 2.371094 20.21875 " fill-opacity="1" fill-rule="nonzero"/><path fill="#0cc0df" d="M 2.308594 23.011719 C 2.394531 22.535156 2.390625 21.808594 2.117188 21.675781 C 2.105469 21.671875 2.09375 21.667969 2.082031 21.667969 C 1.640625 21.644531 1.316406 23.339844 1.667969 23.828125 C 1.871094 24.109375 2.183594 23.714844 2.308594 23.011719 " fill-opacity="1" fill-rule="nonzero"/><path fill="#0cc0df" d="M 2.578125 22.128906 C 2.8125 22.476562 3.246094 22.070312 3.4375 21.328125 C 3.554688 20.859375 3.578125 20.15625 3.246094 20.050781 C 2.65625 20.003906 2.246094 21.640625 2.578125 22.128906 " fill-opacity="1" fill-rule="nonzero"/><path fill="#0cc0df" d="M 6.46875 23.253906 C 6.515625 22.769531 6.347656 22.078125 5.8125 22.046875 C 5.058594 22.117188 4.769531 23.457031 5.214844 24.054688 C 5.648438 24.632812 6.375 24.167969 6.46875 23.253906 " fill-opacity="1" fill-rule="nonzero"/><path fill="#0cc0df" d="M 7.84375 25.035156 C 7.851562 24.546875 7.585938 23.851562 6.972656 23.847656 C 6.113281 23.957031 5.933594 25.308594 6.515625 25.90625 C 7.0625 26.464844 7.828125 25.960938 7.84375 25.035156 " fill-opacity="1" fill-rule="nonzero"/><path fill="#0cc0df" d="M 8.132812 27.707031 C 8.769531 28.238281 9.574219 27.699219 9.519531 26.777344 C 9.488281 26.277344 9.140625 25.589844 8.460938 25.613281 C 7.523438 25.761719 7.441406 27.128906 8.132812 27.707031 " fill-opacity="1" fill-rule="nonzero"/><path fill="#0cc0df" d="M 10.230469 27.332031 C 9.296875 27.503906 9.234375 28.785156 9.921875 29.378906 C 10.636719 29.992188 11.558594 29.433594 11.445312 28.460938 C 11.382812 27.960938 10.96875 27.28125 10.230469 27.332031 " fill-opacity="1" fill-rule="nonzero"/><path fill="#0cc0df" d="M 5.011719 20.230469 C 4.320312 20.265625 3.929688 21.683594 4.308594 22.238281 C 4.644531 22.726562 5.265625 22.289062 5.433594 21.441406 C 5.53125 20.972656 5.460938 20.285156 5.011719 20.230469 " fill-opacity="1" fill-rule="nonzero"/><path fill="#0cc0df" d="M 3.75 20.402344 C 3.992188 20.804688 4.527344 20.398438 4.773438 19.621094 C 4.917969 19.167969 4.957031 18.492188 4.59375 18.417969 C 3.972656 18.414062 3.445312 19.894531 3.75 20.402344 " fill-opacity="1" fill-rule="nonzero"/><path fill="#0cc0df" d="M 5.554688 29.773438 L 5.546875 29.785156 L 5.550781 29.789062 Z M 5.554688 29.773438 " fill-opacity="1" fill-rule="nonzero"/><path fill="#0cc0df" d="M 6.015625 31.648438 L 6.027344 31.660156 L 6.015625 31.648438 " fill-opacity="1" fill-rule="nonzero"/><path fill="#0cc0df" d="M 11.832031 37.785156 C 12.519531 38.054688 12.996094 37.683594 12.726562 37.089844 C 12.566406 36.738281 12.054688 36.257812 11.421875 36.285156 C 11.355469 36.296875 11.273438 36.308594 11.195312 36.347656 C 10.664062 36.617188 11.046875 37.476562 11.832031 37.785156 " fill-opacity="1" fill-rule="nonzero"/><path fill="#0cc0df" d="M 11.730469 39.167969 C 12.253906 39.269531 12.46875 38.957031 12.179688 38.511719 C 11.996094 38.222656 11.480469 37.773438 10.890625 37.777344 C 10.851562 37.78125 10.730469 37.789062 10.640625 37.855469 C 10.222656 38.15625 10.9375 39.015625 11.730469 39.167969 " fill-opacity="1" fill-rule="nonzero"/><path fill="#0cc0df" d="M 9.148438 23.042969 C 9.175781 22.582031 8.945312 21.941406 8.351562 21.960938 C 7.625 22.035156 7.269531 23.203125 7.78125 23.824219 C 8.269531 24.417969 9.101562 23.941406 9.148438 23.042969 " fill-opacity="1" fill-rule="nonzero"/><path fill="#0cc0df" d="M 7.210938 20.253906 C 6.496094 20.347656 6.164062 21.5625 6.554688 22.101562 C 6.941406 22.632812 7.664062 22.214844 7.800781 21.382812 C 7.878906 20.921875 7.746094 20.269531 7.210938 20.253906 " fill-opacity="1" fill-rule="nonzero"/><g clip-path="url(#357530b20a)"><path fill="#0cc0df" d="M 1 21.179688 C 1.078125 21.136719 1.222656 20.691406 1.300781 20.429688 C 1.332031 20.324219 1.601562 19.410156 1.5625 19.1875 C 1.558594 19.183594 1.550781 19.175781 1.542969 19.171875 C 1.539062 19.171875 1.535156 19.175781 1.53125 19.175781 C 1.347656 19.300781 0.859375 21.136719 1 21.179688 " fill-opacity="1" fill-rule="nonzero"/></g><path fill="#0cc0df" d="M 13.496094 35.433594 C 13.367188 35.074219 12.925781 34.558594 12.226562 34.613281 C 12.175781 34.621094 12.105469 34.636719 12.054688 34.652344 C 11.402344 34.886719 11.589844 35.828125 12.367188 36.207031 C 13.035156 36.53125 13.757812 36.171875 13.496094 35.433594 " fill-opacity="1" fill-rule="nonzero"/><path fill="#0cc0df" d="M 10.675781 41.023438 C 10.769531 41.007812 10.554688 40.824219 10.320312 40.65625 C 10.050781 40.464844 9.453125 40.082031 9.097656 39.996094 C 9.058594 39.988281 9.019531 39.984375 9.011719 40.007812 C 8.945312 40.175781 10.40625 41.066406 10.675781 41.023438 " fill-opacity="1" fill-rule="nonzero"/><path fill="#0cc0df" d="M 11.808594 40.277344 C 12.175781 40.300781 12.226562 40.078125 11.929688 39.738281 C 11.734375 39.519531 11.214844 39.09375 10.664062 39.078125 C 10.589844 39.082031 10.519531 39.089844 10.464844 39.132812 C 10.125 39.382812 11.121094 40.230469 11.808594 40.277344 " fill-opacity="1" fill-rule="nonzero"/><path fill="#0cc0df" d="M 5.6875 20.363281 C 5.957031 20.757812 6.582031 20.457031 6.789062 19.660156 C 6.867188 19.371094 6.949219 18.605469 6.433594 18.570312 C 5.78125 18.628906 5.359375 19.878906 5.6875 20.363281 " fill-opacity="1" fill-rule="nonzero"/><path fill="#0cc0df" d="M 2.140625 18.984375 C 2.277344 18.644531 2.511719 17.964844 2.421875 17.804688 C 2.417969 17.800781 2.410156 17.796875 2.40625 17.792969 C 2.195312 17.722656 1.527344 19.390625 1.65625 19.675781 C 1.714844 19.8125 1.921875 19.523438 2.140625 18.984375 " fill-opacity="1" fill-rule="nonzero"/><path fill="#0cc0df" d="M 9.816406 23.664062 C 8.933594 23.828125 8.855469 25.011719 9.34375 25.523438 C 9.871094 26.070312 10.796875 25.683594 10.773438 24.710938 C 10.757812 24.074219 10.328125 23.601562 9.816406 23.664062 " fill-opacity="1" fill-rule="nonzero"/><path fill="#0cc0df" d="M 13.460938 30.078125 C 13.386719 29.644531 13 29.023438 12.253906 29.097656 C 11.367188 29.238281 11.351562 30.460938 12.039062 30.972656 C 12.695312 31.457031 13.625 31.023438 13.460938 30.078125 " fill-opacity="1" fill-rule="nonzero"/><path fill="#0cc0df" d="M 13.15625 34.398438 C 13.878906 34.851562 14.679688 34.382812 14.496094 33.617188 C 14.363281 33.078125 13.78125 32.675781 13.25 32.753906 C 13.222656 32.757812 13.1875 32.765625 13.160156 32.773438 C 12.425781 32.96875 12.425781 33.941406 13.15625 34.398438 " fill-opacity="1" fill-rule="nonzero"/><path fill="#0cc0df" d="M 4.527344 16.734375 C 4.066406 16.703125 3.4375 18.078125 3.613281 18.480469 C 3.738281 18.769531 4.15625 18.445312 4.441406 17.835938 C 4.613281 17.460938 4.789062 16.832031 4.527344 16.734375 " fill-opacity="1" fill-rule="nonzero"/><path fill="#0cc0df" d="M 12.160156 41.167969 C 12.339844 41.152344 12.28125 40.984375 12.015625 40.761719 C 11.652344 40.457031 11.066406 40.179688 10.761719 40.167969 C 10.707031 40.167969 10.65625 40.167969 10.621094 40.199219 C 10.390625 40.414062 11.660156 41.210938 12.160156 41.167969 " fill-opacity="1" fill-rule="nonzero"/><path fill="#0cc0df" d="M 6.027344 16.890625 C 5.511719 16.925781 4.929688 18.058594 5.164062 18.574219 C 5.351562 18.984375 5.917969 18.601562 6.171875 17.890625 C 6.3125 17.503906 6.359375 16.9375 6.027344 16.890625 " fill-opacity="1" fill-rule="nonzero"/><path fill="#0cc0df" d="M 2.625 18.171875 C 2.691406 18.351562 2.992188 18.03125 3.265625 17.484375 C 3.449219 17.117188 3.667969 16.527344 3.546875 16.417969 C 3.546875 16.417969 3.546875 16.414062 3.542969 16.414062 C 3.269531 16.308594 2.484375 17.800781 2.625 18.171875 " fill-opacity="1" fill-rule="nonzero"/><path fill="#0cc0df" d="M 11.570312 25.335938 C 10.777344 25.460938 10.550781 26.621094 11.207031 27.1875 C 11.851562 27.742188 12.726562 27.21875 12.648438 26.320312 C 12.605469 25.875 12.246094 25.273438 11.570312 25.335938 " fill-opacity="1" fill-rule="nonzero"/><path fill="#0cc0df" d="M 14.863281 38.242188 C 14.695312 37.839844 14.109375 37.515625 13.652344 37.570312 C 13.609375 37.578125 13.554688 37.585938 13.515625 37.601562 C 13.007812 37.78125 13.132812 38.464844 13.910156 38.792969 C 14.601562 39.085938 15.0625 38.71875 14.863281 38.242188 " fill-opacity="1" fill-rule="nonzero"/><path fill="#0cc0df" d="M 14.304688 39.554688 C 14.132812 39.292969 13.621094 38.941406 13.105469 38.964844 C 13.015625 38.972656 12.9375 39 12.882812 39.039062 C 12.519531 39.304688 13.074219 39.945312 13.796875 40.097656 C 14.351562 40.210938 14.527344 39.894531 14.304688 39.554688 " fill-opacity="1" fill-rule="nonzero"/><path fill="#0cc0df" d="M 9.765625 20.085938 C 9.167969 20.164062 8.734375 21.179688 9.207031 21.761719 C 9.648438 22.300781 10.414062 21.878906 10.488281 21.054688 C 10.527344 20.628906 10.296875 20.054688 9.765625 20.085938 " fill-opacity="1" fill-rule="nonzero"/><path fill="#0cc0df" d="M 9.183594 19.441406 C 9.277344 18.910156 9.023438 18.449219 8.652344 18.480469 C 8.023438 18.585938 7.632812 19.628906 8.019531 20.144531 C 8.394531 20.640625 9.0625 20.136719 9.183594 19.441406 " fill-opacity="1" fill-rule="nonzero"/><path fill="#0cc0df" d="M 2.632812 17.046875 C 2.707031 16.902344 3.09375 16.175781 3.082031 15.996094 C 3.078125 15.992188 3.078125 15.988281 3.074219 15.984375 C 2.953125 15.894531 2.140625 17.433594 2.207031 17.632812 C 2.230469 17.710938 2.394531 17.484375 2.632812 17.046875 " fill-opacity="1" fill-rule="nonzero"/><path fill="#0cc0df" d="M 7.15625 18.476562 C 7.394531 18.886719 8.027344 18.574219 8.222656 17.796875 C 8.308594 17.445312 8.296875 16.917969 7.894531 16.910156 C 7.316406 16.988281 6.902344 18.03125 7.15625 18.476562 " fill-opacity="1" fill-rule="nonzero"/><path fill="#0cc0df" d="M 11.207031 21.699219 C 10.507812 21.808594 10.230469 22.894531 10.765625 23.410156 C 11.289062 23.90625 12.101562 23.410156 12.082031 22.605469 C 12.074219 22.222656 11.828125 21.640625 11.207031 21.699219 " fill-opacity="1" fill-rule="nonzero"/><path fill="#0cc0df" d="M 15.628906 36.640625 C 15.460938 36.210938 14.941406 35.917969 14.46875 35.988281 C 14.425781 35.996094 14.363281 36.007812 14.316406 36.027344 C 13.726562 36.238281 13.855469 37.007812 14.539062 37.332031 C 15.222656 37.65625 15.863281 37.25 15.628906 36.640625 " fill-opacity="1" fill-rule="nonzero"/><path fill="#0cc0df" d="M 14.035156 40.667969 C 13.742188 40.367188 13.222656 40.140625 12.875 40.15625 C 12.816406 40.164062 12.71875 40.175781 12.664062 40.230469 C 12.429688 40.476562 13.296875 41.09375 13.898438 41.109375 C 14.234375 41.117188 14.292969 40.933594 14.035156 40.667969 " fill-opacity="1" fill-rule="nonzero"/><path fill="#0cc0df" d="M 5.992188 15.289062 C 5.609375 15.253906 4.894531 16.394531 5.035156 16.816406 C 5.136719 17.109375 5.578125 16.871094 5.914062 16.210938 C 6.058594 15.917969 6.265625 15.347656 5.992188 15.289062 " fill-opacity="1" fill-rule="nonzero"/><path fill="#0cc0df" d="M 12.714844 41.839844 C 12.800781 41.824219 12.671875 41.710938 12.375 41.539062 C 12.300781 41.496094 11.640625 41.121094 11.226562 41.0625 C 11.183594 41.0625 11.140625 41.058594 11.125 41.078125 C 11.03125 41.21875 12.441406 41.894531 12.714844 41.839844 " fill-opacity="1" fill-rule="nonzero"/><path fill="#0cc0df" d="M 16.640625 34.921875 C 16.558594 34.585938 16.183594 34.121094 15.5 34.210938 C 15.496094 34.210938 15.496094 34.210938 15.496094 34.210938 C 15.394531 34.234375 15.175781 34.285156 15.027344 34.484375 C 14.671875 34.960938 15.152344 35.875 16.074219 35.753906 C 16.78125 35.589844 16.65625 34.992188 16.640625 34.921875 " fill-opacity="1" fill-rule="nonzero"/><path fill="#0cc0df" d="M 15.625 31.621094 C 15.558594 31.234375 15.175781 30.65625 14.4375 30.746094 C 13.582031 30.945312 13.585938 31.996094 14.253906 32.4375 C 14.941406 32.890625 15.761719 32.398438 15.625 31.621094 " fill-opacity="1" fill-rule="nonzero"/><path fill="#0cc0df" d="M 13.5625 26.992188 C 12.769531 27.140625 12.601562 28.277344 13.300781 28.785156 C 13.96875 29.269531 14.808594 28.722656 14.683594 27.882812 C 14.609375 27.394531 14.191406 26.914062 13.5625 26.992188 " fill-opacity="1" fill-rule="nonzero"/><path fill="#0cc0df" d="M 1.785156 18.378906 C 1.898438 18.101562 2.171875 17.4375 2.207031 17.273438 C 2.207031 17.269531 2.207031 17.261719 2.207031 17.257812 C 2.203125 17.257812 2.203125 17.257812 2.199219 17.257812 C 2.082031 17.398438 1.445312 18.914062 1.496094 19.007812 C 1.515625 18.984375 1.554688 18.929688 1.785156 18.378906 " fill-opacity="1" fill-rule="nonzero"/><path fill="#0cc0df" d="M 11.046875 41.347656 C 10.292969 40.953125 10.078125 40.859375 9.964844 40.820312 C 9.953125 40.816406 9.9375 40.8125 9.929688 40.808594 C 9.925781 40.8125 9.925781 40.816406 9.925781 40.820312 C 10.082031 40.96875 11.402344 41.605469 11.558594 41.628906 C 11.554688 41.617188 11.546875 41.605469 11.046875 41.347656 " fill-opacity="1" fill-rule="nonzero"/><path fill="#0cc0df" d="M 3.859375 16.621094 C 3.914062 16.820312 4.222656 16.625 4.574219 16.035156 C 4.597656 16 5.070312 15.199219 4.867188 15.070312 C 4.511719 15.015625 3.769531 16.308594 3.859375 16.621094 " fill-opacity="1" fill-rule="nonzero"/><path fill="#0cc0df" d="M 14.171875 41.882812 C 14.1875 41.882812 14.203125 41.882812 14.214844 41.878906 C 14.382812 41.859375 14.335938 41.738281 14.097656 41.566406 C 13.757812 41.324219 13.246094 41.128906 12.960938 41.132812 C 12.90625 41.136719 12.855469 41.136719 12.820312 41.164062 C 12.636719 41.316406 13.570312 41.871094 14.171875 41.882812 " fill-opacity="1" fill-rule="nonzero"/><path fill="#0cc0df" d="M 7.519531 15.359375 C 7.460938 15.363281 7.375 15.375 7.226562 15.492188 C 6.699219 15.921875 6.402344 16.9375 6.902344 16.976562 C 7.316406 16.933594 7.582031 16.320312 7.613281 16.253906 C 7.796875 15.820312 7.800781 15.359375 7.519531 15.359375 " fill-opacity="1" fill-rule="nonzero"/><path fill="#0cc0df" d="M 4.207031 14.722656 C 4.074219 14.691406 3.089844 15.996094 3.222656 16.265625 C 3.335938 16.332031 3.734375 15.726562 3.78125 15.660156 C 3.921875 15.441406 4.277344 14.847656 4.21875 14.730469 C 4.214844 14.726562 4.210938 14.722656 4.207031 14.722656 " fill-opacity="1" fill-rule="nonzero"/><path fill="#0cc0df" d="M 12.945312 23.292969 C 12.097656 23.492188 12.078125 24.558594 12.582031 24.984375 C 13.105469 25.425781 13.980469 25.027344 13.925781 24.179688 C 13.882812 23.605469 13.445312 23.207031 12.945312 23.292969 " fill-opacity="1" fill-rule="nonzero"/><path fill="#0cc0df" d="M 14.921875 24.859375 C 14.21875 25.042969 14.011719 25.949219 14.566406 26.449219 C 15.203125 27.027344 16.023438 26.453125 15.957031 25.703125 C 15.921875 25.292969 15.542969 24.773438 14.921875 24.859375 " fill-opacity="1" fill-rule="nonzero"/><path fill="#0cc0df" d="M 16.851562 29.445312 C 16.78125 28.90625 16.234375 28.496094 15.730469 28.59375 C 15.003906 28.785156 14.832031 29.730469 15.429688 30.226562 C 16.136719 30.808594 16.957031 30.21875 16.851562 29.445312 " fill-opacity="1" fill-rule="nonzero"/><path fill="#0cc0df" d="M 17.796875 32.96875 C 17.707031 32.503906 17.171875 32.15625 16.695312 32.25 C 15.980469 32.4375 15.84375 33.277344 16.457031 33.703125 C 17.15625 34.191406 17.921875 33.644531 17.796875 32.96875 " fill-opacity="1" fill-rule="nonzero"/><path fill="#0cc0df" d="M 5.300781 15.113281 C 5.335938 15.367188 5.742188 15.035156 6.054688 14.589844 C 6.273438 14.273438 6.5 13.796875 6.347656 13.734375 C 6.023438 13.722656 5.25 14.742188 5.300781 15.113281 " fill-opacity="1" fill-rule="nonzero"/><path fill="#0cc0df" d="M 16.902344 39.203125 C 16.773438 38.878906 16.25 38.621094 15.851562 38.679688 C 15.816406 38.6875 15.765625 38.695312 15.730469 38.710938 C 15.304688 38.863281 15.363281 39.390625 15.976562 39.65625 C 16.601562 39.929688 17.070312 39.613281 16.902344 39.203125 " fill-opacity="1" fill-rule="nonzero"/><path fill="#0cc0df" d="M 12.023438 41.746094 C 12.011719 41.746094 11.996094 41.742188 11.984375 41.742188 C 11.984375 41.746094 11.980469 41.75 11.980469 41.753906 C 12.113281 41.886719 13.277344 42.292969 13.542969 42.332031 C 13.546875 42.332031 13.550781 42.328125 13.550781 42.324219 C 13.507812 42.296875 13.351562 42.230469 13.089844 42.125 C 13.011719 42.09375 12.28125 41.804688 12.023438 41.746094 " fill-opacity="1" fill-rule="nonzero"/><path fill="#0cc0df" d="M 6.597656 15.21875 C 6.6875 15.492188 7.113281 15.207031 7.417969 14.671875 C 7.582031 14.382812 7.757812 13.910156 7.519531 13.871094 C 7.136719 13.898438 6.480469 14.855469 6.597656 15.21875 " fill-opacity="1" fill-rule="nonzero"/><path fill="#0cc0df" d="M 14.757812 42.4375 C 14.824219 42.398438 14.546875 42.265625 14.460938 42.226562 C 14.125 42.070312 13.621094 41.898438 13.386719 41.890625 C 13.347656 41.890625 13.308594 41.890625 13.296875 41.910156 C 13.214844 42.046875 14.578125 42.539062 14.757812 42.4375 " fill-opacity="1" fill-rule="nonzero"/><path fill="#0cc0df" d="M 11.15625 18.246094 C 10.566406 18.378906 10.273438 19.28125 10.675781 19.734375 C 11.066406 20.175781 11.75 19.765625 11.800781 19.0625 C 11.835938 18.582031 11.527344 18.191406 11.15625 18.246094 " fill-opacity="1" fill-rule="nonzero"/><path fill="#0cc0df" d="M 10.066406 16.753906 C 9.539062 16.859375 9.183594 17.722656 9.480469 18.175781 C 9.777344 18.621094 10.414062 18.25 10.535156 17.566406 C 10.617188 17.105469 10.390625 16.71875 10.066406 16.753906 " fill-opacity="1" fill-rule="nonzero"/><path fill="#0cc0df" d="M 15.804688 40.851562 C 16.320312 40.957031 16.527344 40.699219 16.332031 40.410156 C 16.144531 40.132812 15.648438 39.921875 15.292969 39.964844 C 15.222656 39.976562 15.160156 39.988281 15.09375 40.03125 C 14.78125 40.25 15.191406 40.722656 15.804688 40.851562 " fill-opacity="1" fill-rule="nonzero"/><path fill="#0cc0df" d="M 4.484375 14.847656 C 4.507812 14.984375 4.78125 14.761719 5.109375 14.335938 C 5.113281 14.328125 5.664062 13.613281 5.558594 13.5 C 5.34375 13.4375 4.4375 14.574219 4.484375 14.847656 " fill-opacity="1" fill-rule="nonzero"/><path fill="#0cc0df" d="M 15.914062 41.753906 C 16.207031 41.75 16.261719 41.601562 16.042969 41.398438 C 15.871094 41.238281 15.460938 41.011719 15.039062 41.035156 C 14.992188 41.039062 14.898438 41.054688 14.851562 41.101562 C 14.644531 41.3125 15.378906 41.761719 15.914062 41.753906 " fill-opacity="1" fill-rule="nonzero"/><path fill="#0cc0df" d="M 9.335938 15.300781 C 8.878906 15.347656 8.4375 16.261719 8.679688 16.660156 C 8.878906 16.988281 9.429688 16.710938 9.609375 16.070312 C 9.695312 15.753906 9.695312 15.292969 9.335938 15.300781 " fill-opacity="1" fill-rule="nonzero"/><path fill="#0cc0df" d="M 12.582031 19.761719 C 11.964844 19.871094 11.714844 20.808594 12.183594 21.261719 C 12.605469 21.667969 13.382812 21.308594 13.359375 20.542969 C 13.351562 20.191406 13.132812 19.691406 12.582031 19.761719 " fill-opacity="1" fill-rule="nonzero"/><path fill="#0cc0df" d="M 17.695312 37.722656 C 17.609375 37.476562 17.257812 37.113281 16.683594 37.191406 C 16.640625 37.199219 16.578125 37.214844 16.515625 37.242188 C 16.035156 37.445312 16.128906 38.050781 16.683594 38.308594 C 17.269531 38.578125 17.875 38.226562 17.695312 37.722656 " fill-opacity="1" fill-rule="nonzero"/><path fill="#0cc0df" d="M 3.46875 15.195312 C 3.699219 14.855469 3.988281 14.425781 4.023438 14.296875 C 4.023438 14.292969 4.019531 14.289062 4.019531 14.285156 C 3.882812 14.332031 3.0625 15.566406 3.09375 15.675781 C 3.109375 15.671875 3.148438 15.65625 3.46875 15.195312 " fill-opacity="1" fill-rule="nonzero"/><path fill="#0cc0df" d="M 4.621094 13.964844 C 4.628906 13.957031 5.1875 13.28125 5.191406 13.15625 C 5.1875 13.152344 5.1875 13.152344 5.183594 13.148438 C 5.023438 13.140625 4.066406 14.328125 4.148438 14.429688 C 4.21875 14.4375 4.476562 14.140625 4.621094 13.964844 " fill-opacity="1" fill-rule="nonzero"/><path fill="#0cc0df" d="M 14.160156 42.4375 C 14.125 42.4375 14.125 42.4375 14.117188 42.445312 C 14.203125 42.53125 15.433594 42.835938 15.546875 42.796875 C 15.53125 42.789062 15.503906 42.777344 15.15625 42.679688 C 14.65625 42.539062 14.324219 42.460938 14.160156 42.4375 " fill-opacity="1" fill-rule="nonzero"/><path fill="#0cc0df" d="M 17.078125 26.414062 C 16.402344 26.570312 16.230469 27.480469 16.785156 27.933594 C 17.386719 28.421875 18.207031 27.9375 18.097656 27.164062 C 18.042969 26.789062 17.695312 26.3125 17.078125 26.414062 " fill-opacity="1" fill-rule="nonzero"/><path fill="#0cc0df" d="M 18.195312 36.792969 C 18.199219 36.792969 18.199219 36.792969 18.199219 36.792969 C 18.828125 36.636719 18.730469 36.128906 18.714844 36.074219 C 18.652344 35.792969 18.332031 35.410156 17.726562 35.507812 C 17.488281 35.554688 17.359375 35.683594 17.304688 35.753906 C 16.957031 36.203125 17.441406 36.910156 18.195312 36.792969 " fill-opacity="1" fill-rule="nonzero"/><path fill="#0cc0df" d="M 8.988281 13.878906 C 8.621094 13.90625 8.109375 14.730469 8.234375 15.109375 C 8.335938 15.421875 8.808594 15.199219 9.066406 14.597656 C 9.183594 14.324219 9.265625 13.886719 8.988281 13.878906 " fill-opacity="1" fill-rule="nonzero"/><path fill="#0cc0df" d="M 5.960938 13.476562 C 5.957031 13.632812 6.261719 13.421875 6.617188 13.019531 C 6.800781 12.8125 7.148438 12.367188 7.058594 12.300781 C 6.832031 12.277344 5.96875 13.199219 5.960938 13.476562 " fill-opacity="1" fill-rule="nonzero"/><path fill="#0cc0df" d="M 16.21875 42.394531 C 16.324219 42.359375 16.257812 42.265625 16.054688 42.148438 C 15.882812 42.050781 15.460938 41.867188 15.109375 41.875 C 15.066406 41.882812 14.996094 41.886719 14.972656 41.925781 C 14.855469 42.101562 15.890625 42.492188 16.21875 42.394531 " fill-opacity="1" fill-rule="nonzero"/><path fill="#0cc0df" d="M 14.300781 21.261719 C 14.296875 21.261719 14.296875 21.261719 14.296875 21.261719 C 14.296875 21.261719 14.296875 21.265625 14.296875 21.265625 C 13.542969 21.46875 13.546875 22.425781 14.003906 22.773438 C 14.527344 23.171875 15.234375 22.710938 15.175781 22.011719 C 15.144531 21.675781 14.882812 21.175781 14.300781 21.261719 " fill-opacity="1" fill-rule="nonzero"/><path fill="#0cc0df" d="M 13.332031 42.296875 L 13.382812 42.3125 C 13.347656 42.300781 13.308594 42.289062 13.273438 42.277344 L 13.332031 42.296875 " fill-opacity="1" fill-rule="nonzero"/><path fill="#0cc0df" d="M 19.027344 30.84375 C 18.9375 30.371094 18.464844 30.054688 17.996094 30.160156 C 17.238281 30.371094 17.207031 31.277344 17.773438 31.648438 C 18.386719 32.042969 19.15625 31.546875 19.027344 30.84375 " fill-opacity="1" fill-rule="nonzero"/><path fill="#0cc0df" d="M 6.898438 13.652344 C 6.9375 13.84375 7.296875 13.597656 7.628906 13.15625 C 7.785156 12.949219 8.058594 12.503906 7.898438 12.460938 C 7.648438 12.441406 6.832031 13.328125 6.898438 13.652344 " fill-opacity="1" fill-rule="nonzero"/><path fill="#0cc0df" d="M 19.902344 34.230469 C 19.859375 33.875 19.453125 33.535156 18.9375 33.625 C 18.339844 33.789062 18.171875 34.445312 18.628906 34.8125 C 19.207031 35.277344 19.96875 34.824219 19.902344 34.230469 " fill-opacity="1" fill-rule="nonzero"/><path fill="#0cc0df" d="M 16.691406 42.828125 C 16.742188 42.800781 16.515625 42.71875 16.445312 42.695312 C 16.160156 42.597656 15.707031 42.488281 15.511719 42.492188 C 15.484375 42.492188 15.4375 42.496094 15.433594 42.515625 C 15.433594 42.628906 16.550781 42.90625 16.691406 42.828125 " fill-opacity="1" fill-rule="nonzero"/><path fill="#0cc0df" d="M 16.265625 22.742188 C 16.265625 22.742188 16.261719 22.742188 16.261719 22.742188 C 15.605469 22.933594 15.46875 23.835938 16.039062 24.226562 C 16.632812 24.632812 17.285156 24.070312 17.191406 23.429688 C 17.140625 23.089844 16.792969 22.660156 16.265625 22.742188 " fill-opacity="1" fill-rule="nonzero"/><path fill="#0cc0df" d="M 8.199219 13.660156 C 8.261719 13.875 8.644531 13.621094 8.917969 13.179688 C 9.042969 12.976562 9.234375 12.546875 9.03125 12.519531 C 8.691406 12.5625 8.109375 13.359375 8.199219 13.660156 " fill-opacity="1" fill-rule="nonzero"/><path fill="#0cc0df" d="M 5.460938 13.183594 C 5.460938 13.183594 5.464844 13.183594 5.464844 13.183594 C 5.542969 13.214844 5.917969 12.84375 6.027344 12.726562 C 6.050781 12.703125 6.585938 12.152344 6.558594 12.054688 C 6.554688 12.054688 6.550781 12.054688 6.550781 12.050781 C 6.441406 12.035156 5.386719 12.992188 5.460938 13.183594 " fill-opacity="1" fill-rule="nonzero"/><path fill="#0cc0df" d="M 18.78125 39.984375 C 18.695312 39.800781 18.378906 39.5625 17.941406 39.625 C 17.878906 39.636719 17.820312 39.65625 17.773438 39.679688 C 17.445312 39.855469 17.589844 40.246094 18.035156 40.40625 C 18.507812 40.570312 18.941406 40.328125 18.78125 39.984375 " fill-opacity="1" fill-rule="nonzero"/><path fill="#0cc0df" d="M 12.082031 17.730469 C 12.425781 18.105469 13.015625 17.71875 13.019531 17.113281 C 13.023438 16.824219 12.851562 16.433594 12.460938 16.480469 C 11.984375 16.566406 11.742188 17.363281 12.082031 17.730469 " fill-opacity="1" fill-rule="nonzero"/><path fill="#0cc0df" d="M 17.722656 41.449219 C 18.125 41.523438 18.371094 41.347656 18.203125 41.101562 C 18.058594 40.890625 17.667969 40.742188 17.363281 40.785156 C 17.3125 40.796875 17.230469 40.8125 17.167969 40.859375 C 16.949219 41.035156 17.257812 41.363281 17.722656 41.449219 " fill-opacity="1" fill-rule="nonzero"/><path fill="#0cc0df" d="M 11.394531 15.109375 C 10.910156 15.21875 10.683594 16.019531 10.953125 16.324219 C 11.199219 16.605469 11.71875 16.324219 11.792969 15.746094 C 11.835938 15.40625 11.699219 15.066406 11.394531 15.109375 " fill-opacity="1" fill-rule="nonzero"/><path fill="#0cc0df" d="M 19.613281 38.632812 C 19.546875 38.433594 19.269531 38.164062 18.789062 38.242188 C 18.765625 38.25 18.714844 38.261719 18.714844 38.261719 C 18.226562 38.410156 18.28125 38.90625 18.6875 39.117188 C 19.183594 39.375 19.761719 39.074219 19.613281 38.632812 " fill-opacity="1" fill-rule="nonzero"/><path fill="#0cc0df" d="M 10.691406 13.773438 C 10.324219 13.820312 9.960938 14.574219 10.152344 14.890625 C 10.3125 15.15625 10.765625 14.929688 10.914062 14.402344 C 10.988281 14.140625 10.988281 13.757812 10.691406 13.773438 " fill-opacity="1" fill-rule="nonzero"/><path fill="#0cc0df" d="M 13.871094 17.878906 C 13.253906 18.039062 13.222656 18.855469 13.578125 19.160156 C 13.945312 19.476562 14.574219 19.160156 14.542969 18.53125 C 14.523438 18.105469 14.222656 17.8125 13.871094 17.878906 " fill-opacity="1" fill-rule="nonzero"/><path fill="#0cc0df" d="M 17.789062 42.222656 C 18.019531 42.207031 18.066406 42.097656 17.898438 41.960938 C 17.726562 41.8125 17.375 41.683594 17.089844 41.71875 C 17.046875 41.726562 16.972656 41.738281 16.929688 41.777344 C 16.761719 41.9375 17.363281 42.25 17.789062 42.222656 " fill-opacity="1" fill-rule="nonzero"/><path fill="#0cc0df" d="M 18.027344 42.730469 C 18.109375 42.707031 18.066406 42.648438 17.914062 42.574219 C 17.75 42.5 17.40625 42.394531 17.136719 42.410156 C 17.09375 42.414062 17.039062 42.425781 17.023438 42.449219 C 16.941406 42.574219 17.777344 42.808594 18.027344 42.730469 " fill-opacity="1" fill-rule="nonzero"/><path fill="#0cc0df" d="M 8.546875 12.246094 C 8.578125 12.378906 8.878906 12.179688 9.164062 11.835938 C 9.394531 11.566406 9.558594 11.269531 9.445312 11.257812 C 9.179688 11.28125 8.5 12.03125 8.546875 12.246094 " fill-opacity="1" fill-rule="nonzero"/><g clip-path="url(#54dccd6d48)"><path fill="#0cc0df" d="M 16.269531 42.882812 C 16.238281 42.882812 16.238281 42.882812 16.230469 42.890625 C 16.3125 42.941406 17.371094 43.082031 17.449219 43.050781 C 17.421875 43.042969 17.382812 43.039062 17.101562 42.996094 C 16.660156 42.929688 16.414062 42.890625 16.269531 42.882812 " fill-opacity="1" fill-rule="nonzero"/></g><path fill="#0cc0df" d="M 10.425781 13.0625 C 10.554688 12.777344 10.566406 12.464844 10.378906 12.480469 C 10.046875 12.542969 9.628906 13.238281 9.761719 13.515625 C 9.867188 13.738281 10.234375 13.492188 10.425781 13.0625 " fill-opacity="1" fill-rule="nonzero"/><path fill="#0cc0df" d="M 6.980469 11.949219 C 6.964844 12.042969 7.210938 11.882812 7.554688 11.578125 C 7.558594 11.574219 8.128906 11.066406 8.085938 11 C 7.933594 10.972656 7.015625 11.761719 6.980469 11.949219 " fill-opacity="1" fill-rule="nonzero"/><path fill="#0cc0df" d="M 19.34375 27.949219 C 18.625 28.164062 18.65625 28.992188 19.078125 29.332031 C 19.570312 29.730469 20.386719 29.367188 20.28125 28.621094 C 20.214844 28.140625 19.792969 27.839844 19.34375 27.949219 " fill-opacity="1" fill-rule="nonzero"/><path fill="#0cc0df" d="M 8.628906 11.171875 C 8.410156 11.167969 7.570312 11.960938 7.585938 12.160156 C 7.59375 12.265625 7.84375 12.132812 8.226562 11.742188 C 8.246094 11.722656 8.738281 11.222656 8.628906 11.171875 " fill-opacity="1" fill-rule="nonzero"/><path fill="#0cc0df" d="M 20.257812 31.597656 C 19.613281 31.761719 19.539062 32.523438 19.992188 32.84375 C 20.503906 33.207031 21.238281 32.777344 21.152344 32.167969 C 21.113281 31.886719 20.832031 31.484375 20.257812 31.597656 " fill-opacity="1" fill-rule="nonzero"/><path fill="#0cc0df" d="M 5.207031 12.738281 C 5.207031 12.734375 5.207031 12.730469 5.207031 12.726562 C 5.105469 12.773438 4.273438 13.757812 4.269531 13.835938 C 4.292969 13.820312 4.355469 13.757812 4.628906 13.4375 C 5.074219 12.917969 5.171875 12.796875 5.207031 12.738281 " fill-opacity="1" fill-rule="nonzero"/><path fill="#0cc0df" d="M 18.414062 24.230469 C 17.691406 24.449219 17.75 25.3125 18.214844 25.621094 C 18.753906 25.976562 19.425781 25.523438 19.320312 24.871094 C 19.246094 24.421875 18.832031 24.128906 18.414062 24.230469 " fill-opacity="1" fill-rule="nonzero"/><path fill="#0cc0df" d="M 15.574219 19.273438 C 14.972656 19.445312 14.921875 20.246094 15.359375 20.566406 C 15.820312 20.898438 16.421875 20.472656 16.335938 19.875 C 16.296875 19.601562 16.054688 19.195312 15.574219 19.273438 " fill-opacity="1" fill-rule="nonzero"/><path fill="#0cc0df" d="M 20.660156 37.085938 C 20.605469 36.8125 20.304688 36.566406 19.851562 36.648438 C 19.296875 36.777344 19.238281 37.332031 19.617188 37.59375 C 20.078125 37.910156 20.761719 37.578125 20.660156 37.085938 " fill-opacity="1" fill-rule="nonzero"/><path fill="#0cc0df" d="M 5.8125 12.355469 C 5.820312 12.351562 6.367188 11.820312 6.40625 11.726562 C 6.40625 11.726562 6.40625 11.726562 6.402344 11.722656 C 6.285156 11.71875 5.347656 12.632812 5.371094 12.730469 C 5.410156 12.734375 5.664062 12.496094 5.8125 12.355469 " fill-opacity="1" fill-rule="nonzero"/><path fill="#0cc0df" d="M 17.371094 21.925781 C 17.890625 22.265625 18.429688 21.777344 18.332031 21.238281 C 18.28125 20.957031 17.988281 20.582031 17.527344 20.667969 C 17.023438 20.796875 16.847656 21.582031 17.371094 21.925781 " fill-opacity="1" fill-rule="nonzero"/><path fill="#0cc0df" d="M 21.863281 35.3125 C 21.824219 35.027344 21.515625 34.777344 21.085938 34.863281 C 20.621094 34.980469 20.382812 35.542969 20.800781 35.855469 C 21.28125 36.214844 21.925781 35.796875 21.863281 35.3125 " fill-opacity="1" fill-rule="nonzero"/><g clip-path="url(#ff5bc3069e)"><path fill="#0cc0df" d="M 17.527344 42.867188 C 17.480469 42.871094 17.46875 42.875 17.464844 42.886719 C 17.507812 42.972656 18.359375 43.066406 18.46875 43.023438 C 18.46875 43.019531 18.46875 43.019531 18.46875 43.015625 C 18.460938 43.011719 18.4375 42.992188 18.226562 42.953125 C 18.152344 42.9375 17.75 42.859375 17.527344 42.867188 " fill-opacity="1" fill-rule="nonzero"/></g><path fill="#0cc0df" d="M 9.757812 12.164062 C 9.785156 12.335938 10.078125 12.179688 10.335938 11.785156 C 10.496094 11.535156 10.589844 11.265625 10.453125 11.273438 C 10.207031 11.308594 9.71875 11.933594 9.757812 12.164062 " fill-opacity="1" fill-rule="nonzero"/><path fill="#0cc0df" d="M 7.214844 11.308594 C 7.429688 11.140625 7.785156 10.839844 7.800781 10.773438 C 7.738281 10.71875 6.761719 11.503906 6.75 11.625 C 6.757812 11.632812 6.785156 11.660156 7.214844 11.308594 " fill-opacity="1" fill-rule="nonzero"/><path fill="#0cc0df" d="M 13.375 15.804688 C 13.640625 16.058594 14.101562 15.808594 14.089844 15.308594 C 14.082031 15.113281 13.980469 14.757812 13.628906 14.804688 C 13.222656 14.890625 13.113281 15.550781 13.375 15.804688 " fill-opacity="1" fill-rule="nonzero"/><path fill="#0cc0df" d="M 19.847656 40.40625 C 19.820312 40.414062 19.785156 40.421875 19.761719 40.429688 C 19.445312 40.542969 19.515625 40.835938 19.796875 40.960938 C 20.121094 41.105469 20.578125 40.953125 20.472656 40.667969 C 20.421875 40.527344 20.214844 40.347656 19.847656 40.40625 " fill-opacity="1" fill-rule="nonzero"/><path fill="#0cc0df" d="M 12.90625 14.058594 C 12.9375 13.78125 12.820312 13.519531 12.582031 13.558594 C 12.210938 13.648438 12.050781 14.269531 12.261719 14.511719 C 12.460938 14.738281 12.859375 14.515625 12.90625 14.058594 " fill-opacity="1" fill-rule="nonzero"/><path fill="#0cc0df" d="M 19.429688 41.890625 C 19.730469 41.945312 19.996094 41.832031 19.867188 41.636719 C 19.761719 41.480469 19.488281 41.386719 19.246094 41.429688 C 19.207031 41.441406 19.140625 41.453125 19.089844 41.488281 C 18.917969 41.609375 19.105469 41.832031 19.429688 41.890625 " fill-opacity="1" fill-rule="nonzero"/><path fill="#0cc0df" d="M 21.332031 39.429688 C 21.296875 39.277344 21.097656 39.074219 20.710938 39.144531 C 20.253906 39.265625 20.277344 39.644531 20.550781 39.804688 C 20.910156 40.011719 21.414062 39.773438 21.332031 39.429688 " fill-opacity="1" fill-rule="nonzero"/><path fill="#0cc0df" d="M 20.675781 25.703125 C 20.046875 25.875 20.078125 26.648438 20.46875 26.941406 C 20.914062 27.273438 21.625 26.898438 21.5 26.25 C 21.453125 26.007812 21.222656 25.578125 20.675781 25.703125 " fill-opacity="1" fill-rule="nonzero"/><path fill="#0cc0df" d="M 10.214844 10.117188 C 10.027344 10.128906 9.289062 10.753906 9.289062 10.902344 C 9.289062 10.980469 9.488281 10.878906 9.824219 10.582031 C 9.828125 10.578125 10.304688 10.148438 10.214844 10.117188 " fill-opacity="1" fill-rule="nonzero"/><path fill="#0cc0df" d="M 8.660156 10.789062 C 8.652344 10.851562 8.867188 10.726562 9.1875 10.480469 C 9.238281 10.441406 9.691406 10.089844 9.699219 10.019531 C 9.695312 10.019531 9.695312 10.019531 9.695312 10.015625 C 9.550781 10.007812 8.671875 10.664062 8.660156 10.789062 " fill-opacity="1" fill-rule="nonzero"/><path fill="#0cc0df" d="M 21.382812 30.628906 C 21.8125 30.941406 22.519531 30.597656 22.433594 29.972656 C 22.398438 29.730469 22.183594 29.308594 21.625 29.433594 C 20.941406 29.65625 21.046875 30.382812 21.382812 30.628906 " fill-opacity="1" fill-rule="nonzero"/><path fill="#0cc0df" d="M 14.832031 17.105469 C 15.179688 17.390625 15.648438 17.050781 15.585938 16.5625 C 15.554688 16.34375 15.375 16.015625 15.015625 16.078125 C 14.609375 16.171875 14.492188 16.824219 14.832031 17.105469 " fill-opacity="1" fill-rule="nonzero"/><path fill="#0cc0df" d="M 23.152344 33.332031 C 23.109375 33.019531 22.765625 32.816406 22.429688 32.90625 C 21.9375 33.066406 21.777344 33.632812 22.148438 33.914062 C 22.601562 34.261719 23.21875 33.8125 23.152344 33.332031 " fill-opacity="1" fill-rule="nonzero"/><path fill="#0cc0df" d="M 19.488281 42.527344 C 19.632812 42.503906 19.652344 42.425781 19.539062 42.34375 C 19.441406 42.277344 19.195312 42.179688 18.941406 42.210938 C 18.859375 42.226562 18.824219 42.25 18.808594 42.269531 C 18.710938 42.398438 19.1875 42.578125 19.488281 42.527344 " fill-opacity="1" fill-rule="nonzero"/><path fill="#0cc0df" d="M 11.507812 13.21875 C 11.640625 13.441406 11.976562 13.21875 12.082031 12.839844 C 12.152344 12.589844 12.097656 12.324219 11.90625 12.351562 C 11.617188 12.417969 11.363281 12.96875 11.507812 13.21875 " fill-opacity="1" fill-rule="nonzero"/><path fill="#0cc0df" d="M 21.800781 37.65625 C 21.417969 37.769531 21.269531 38.148438 21.519531 38.363281 C 21.875 38.667969 22.4375 38.371094 22.410156 37.996094 C 22.394531 37.753906 22.09375 37.585938 21.800781 37.65625 " fill-opacity="1" fill-rule="nonzero"/><path fill="#0cc0df" d="M 16.984375 18.480469 C 16.988281 18.480469 16.988281 18.480469 16.988281 18.480469 C 17.3125 18.375 17.386719 18.046875 17.355469 17.851562 C 17.304688 17.53125 16.992188 17.292969 16.707031 17.359375 C 16.652344 17.378906 16.53125 17.414062 16.433594 17.570312 C 16.15625 18 16.503906 18.570312 16.984375 18.480469 " fill-opacity="1" fill-rule="nonzero"/><path fill="#0cc0df" d="M 19.496094 23.207031 C 19.996094 23.585938 20.550781 23.125 20.453125 22.59375 C 20.394531 22.273438 20.078125 21.980469 19.671875 22.066406 C 19.175781 22.226562 19.078125 22.890625 19.496094 23.207031 " fill-opacity="1" fill-rule="nonzero"/><path fill="#0cc0df" d="M 8.324219 10.582031 C 8.371094 10.597656 8.683594 10.386719 8.8125 10.296875 C 8.820312 10.292969 9.367188 9.917969 9.382812 9.859375 C 9.277344 9.835938 8.316406 10.488281 8.324219 10.582031 " fill-opacity="1" fill-rule="nonzero"/><path fill="#0cc0df" d="M 11.628906 11.199219 C 11.410156 11.25 11.074219 11.753906 11.160156 11.980469 C 11.234375 12.183594 11.535156 11.921875 11.667969 11.609375 C 11.75 11.40625 11.753906 11.1875 11.628906 11.199219 " fill-opacity="1" fill-rule="nonzero"/><path fill="#0cc0df" d="M 10.917969 10.152344 C 10.765625 10.15625 10.160156 10.726562 10.164062 10.914062 C 10.164062 11.03125 10.4375 10.832031 10.660156 10.585938 C 10.792969 10.441406 11.003906 10.164062 10.917969 10.152344 " fill-opacity="1" fill-rule="nonzero"/><path fill="#0cc0df" d="M 19.539062 42.816406 C 19.390625 42.765625 19.113281 42.726562 18.964844 42.742188 C 18.9375 42.75 18.894531 42.753906 18.886719 42.777344 C 18.855469 42.878906 19.515625 42.953125 19.636719 42.898438 C 19.683594 42.875 19.617188 42.839844 19.539062 42.816406 " fill-opacity="1" fill-rule="nonzero"/><path fill="#0cc0df" d="M 6.574219 11.339844 C 6.574219 11.335938 6.578125 11.335938 6.578125 11.332031 C 6.515625 11.359375 5.734375 12.074219 5.695312 12.164062 C 5.710938 12.152344 5.710938 12.152344 6.03125 11.851562 C 6.445312 11.46875 6.542969 11.378906 6.574219 11.339844 " fill-opacity="1" fill-rule="nonzero"/><path fill="#0cc0df" d="M 7.222656 10.949219 C 7.730469 10.5625 7.765625 10.515625 7.792969 10.484375 C 7.742188 10.457031 6.867188 11.121094 6.863281 11.199219 C 6.871094 11.199219 6.890625 11.199219 7.222656 10.949219 " fill-opacity="1" fill-rule="nonzero"/><path fill="#0cc0df" d="M 10.417969 9.703125 C 10.441406 9.726562 10.574219 9.65625 10.898438 9.4375 C 10.964844 9.394531 11.308594 9.164062 11.324219 9.121094 C 11.320312 9.121094 11.320312 9.117188 11.320312 9.117188 C 11.257812 9.109375 10.433594 9.59375 10.417969 9.703125 " fill-opacity="1" fill-rule="nonzero"/><path fill="#0cc0df" d="M 23.625 36.339844 C 23.625 36.332031 23.601562 35.84375 23.058594 35.988281 C 22.433594 36.179688 22.707031 36.679688 22.765625 36.738281 C 22.964844 36.945312 23.597656 36.835938 23.625 36.339844 " fill-opacity="1" fill-rule="nonzero"/><path fill="#0cc0df" d="M 11.730469 10.144531 C 11.566406 10.179688 11.191406 10.644531 11.210938 10.792969 C 11.226562 10.90625 11.441406 10.785156 11.621094 10.519531 C 11.664062 10.457031 11.871094 10.136719 11.730469 10.144531 " fill-opacity="1" fill-rule="nonzero"/><g clip-path="url(#18d0519b62)"><path fill="#0cc0df" d="M 19.84375 43.03125 C 19.566406 43.019531 19.441406 43.019531 19.347656 43.027344 C 19.300781 43.03125 19.300781 43.035156 19.296875 43.039062 C 19.359375 43.074219 19.941406 43.066406 20.027344 43.042969 C 20.019531 43.042969 20.019531 43.039062 19.84375 43.03125 " fill-opacity="1" fill-rule="nonzero"/></g><path fill="#0cc0df" d="M 23.585938 31.773438 C 23.667969 31.835938 23.894531 31.957031 24.222656 31.746094 C 24.328125 31.675781 24.5 31.507812 24.457031 31.199219 C 24.398438 30.792969 24.070312 30.738281 23.808594 30.8125 C 23.28125 31 23.335938 31.585938 23.585938 31.773438 " fill-opacity="1" fill-rule="nonzero"/><path fill="#0cc0df" d="M 22.765625 28.238281 C 23.023438 28.453125 23.746094 28.332031 23.675781 27.632812 C 23.675781 27.628906 23.582031 27.003906 22.972656 27.15625 C 22.324219 27.351562 22.546875 28.058594 22.765625 28.238281 " fill-opacity="1" fill-rule="nonzero"/><path fill="#0cc0df" d="M 21.804688 24.503906 C 21.855469 24.539062 22.117188 24.695312 22.421875 24.488281 C 22.554688 24.394531 22.695312 24.226562 22.632812 23.929688 C 22.550781 23.542969 22.273438 23.371094 21.914062 23.472656 C 21.386719 23.664062 21.503906 24.300781 21.804688 24.503906 " fill-opacity="1" fill-rule="nonzero"/><path fill="#0cc0df" d="M 18.585938 19.652344 C 18.886719 19.824219 19.425781 19.664062 19.308594 19.125 C 19.25 18.84375 19.011719 18.597656 18.675781 18.671875 C 18.144531 18.820312 18.28125 19.472656 18.585938 19.652344 " fill-opacity="1" fill-rule="nonzero"/><path fill="#0cc0df" d="M 9.238281 9.675781 C 9.238281 9.675781 9.238281 9.671875 9.238281 9.671875 C 9.148438 9.675781 8.398438 10.132812 8.296875 10.269531 C 8.339844 10.261719 8.449219 10.203125 8.722656 10.027344 C 9.109375 9.785156 9.226562 9.703125 9.238281 9.675781 " fill-opacity="1" fill-rule="nonzero"/><path fill="#0cc0df" d="M 20.855469 41.914062 C 20.828125 41.917969 20.777344 41.929688 20.742188 41.957031 C 20.65625 42.015625 20.6875 42.144531 20.90625 42.195312 C 21.097656 42.238281 21.355469 42.167969 21.269531 42.027344 C 21.214844 41.941406 21.066406 41.871094 20.855469 41.914062 " fill-opacity="1" fill-rule="nonzero"/><path fill="#0cc0df" d="M 10.980469 9.765625 C 11.050781 9.738281 11.148438 9.691406 11.378906 9.507812 C 11.5625 9.359375 11.777344 9.175781 11.734375 9.167969 C 11.640625 9.171875 10.902344 9.6875 10.980469 9.765625 " fill-opacity="1" fill-rule="nonzero"/><path fill="#0cc0df" d="M 10.066406 9.589844 C 10.144531 9.566406 10.273438 9.5 10.550781 9.339844 C 11.019531 9.0625 11.027344 9.046875 11.03125 9.03125 C 10.960938 9.023438 10.121094 9.480469 10.066406 9.589844 " fill-opacity="1" fill-rule="nonzero"/><path fill="#0cc0df" d="M 21.488281 41.035156 C 21.476562 41.039062 21.460938 41.042969 21.445312 41.046875 C 21.257812 41.105469 21.160156 41.296875 21.398438 41.414062 C 21.609375 41.515625 21.964844 41.390625 21.898438 41.191406 C 21.886719 41.15625 21.8125 40.972656 21.488281 41.035156 " fill-opacity="1" fill-rule="nonzero"/><path fill="#0cc0df" d="M 13.382812 12.808594 C 13.484375 12.945312 13.796875 12.902344 13.832031 12.480469 C 13.832031 12.476562 13.832031 12.101562 13.585938 12.136719 C 13.300781 12.199219 13.261719 12.65625 13.382812 12.808594 " fill-opacity="1" fill-rule="nonzero"/><path fill="#0cc0df" d="M 14.476562 13.976562 C 14.480469 13.976562 14.636719 14.109375 14.785156 14.003906 C 14.839844 13.96875 14.984375 13.867188 14.96875 13.632812 C 14.964844 13.613281 14.933594 13.195312 14.609375 13.25 C 14.292969 13.324219 14.285156 13.816406 14.476562 13.976562 " fill-opacity="1" fill-rule="nonzero"/><path fill="#0cc0df" d="M 22.375 39.921875 C 22.0625 40.007812 22.046875 40.257812 22.207031 40.371094 C 22.382812 40.5 22.820312 40.382812 22.78125 40.105469 C 22.761719 39.933594 22.605469 39.863281 22.375 39.921875 " fill-opacity="1" fill-rule="nonzero"/><path fill="#0cc0df" d="M 20.734375 20.875 C 20.976562 21.03125 21.515625 20.929688 21.421875 20.375 C 21.40625 20.285156 21.234375 19.851562 20.792969 19.980469 C 20.28125 20.15625 20.519531 20.742188 20.734375 20.875 " fill-opacity="1" fill-rule="nonzero"/><path fill="#0cc0df" d="M 24.433594 34.117188 C 23.914062 34.292969 24.046875 34.742188 24.128906 34.84375 C 24.320312 35.089844 24.917969 34.941406 24.949219 34.449219 C 24.953125 34.371094 24.878906 33.988281 24.433594 34.117188 " fill-opacity="1" fill-rule="nonzero"/><path fill="#0cc0df" d="M 7.589844 10.484375 C 8.003906 10.183594 8.003906 10.183594 8.027344 10.160156 C 8.03125 10.160156 8.035156 10.15625 8.035156 10.152344 C 7.96875 10.179688 7.375 10.621094 7.332031 10.675781 C 7.421875 10.621094 7.503906 10.550781 7.589844 10.484375 " fill-opacity="1" fill-rule="nonzero"/><g clip-path="url(#8c58657d0e)"><path fill="#0cc0df" d="M 10.84375 8.925781 C 10.8125 8.910156 10.058594 9.277344 9.972656 9.375 C 9.996094 9.382812 10.109375 9.328125 10.378906 9.1875 C 10.75 8.992188 10.835938 8.945312 10.84375 8.925781 " fill-opacity="1" fill-rule="nonzero"/></g><path fill="#0cc0df" d="M 20.84375 42.695312 C 20.96875 42.675781 20.992188 42.644531 20.921875 42.59375 C 20.917969 42.589844 20.761719 42.492188 20.539062 42.535156 C 20.511719 42.539062 20.457031 42.550781 20.4375 42.574219 C 20.394531 42.632812 20.625 42.726562 20.84375 42.695312 " fill-opacity="1" fill-rule="nonzero"/><path fill="#0cc0df" d="M 13.058594 11.390625 C 13.085938 11.238281 13.085938 11.0625 12.933594 11.082031 C 12.699219 11.125 12.605469 11.574219 12.691406 11.683594 C 12.769531 11.785156 13 11.710938 13.058594 11.390625 " fill-opacity="1" fill-rule="nonzero"/><path fill="#0cc0df" d="M 23.882812 38.777344 C 23.878906 38.664062 23.824219 38.488281 23.503906 38.566406 C 23.039062 38.707031 23.230469 39.03125 23.273438 39.070312 C 23.425781 39.210938 23.890625 39.082031 23.882812 38.777344 " fill-opacity="1" fill-rule="nonzero"/><path fill="#0cc0df" d="M 12.027344 9.464844 C 12.039062 9.457031 12.050781 9.445312 12.058594 9.433594 C 12.273438 9.210938 12.261719 9.1875 12.230469 9.1875 C 12.121094 9.203125 11.695312 9.601562 11.6875 9.691406 C 11.683594 9.734375 11.765625 9.734375 12.027344 9.464844 " fill-opacity="1" fill-rule="nonzero"/><path fill="#0cc0df" d="M 15.914062 15.152344 C 16.117188 15.285156 16.5 15.160156 16.417969 14.757812 C 16.375 14.546875 16.238281 14.347656 15.984375 14.40625 C 15.597656 14.523438 15.730469 15.03125 15.914062 15.152344 " fill-opacity="1" fill-rule="nonzero"/><path fill="#0cc0df" d="M 17.644531 16.308594 C 17.886719 16.449219 18.253906 16.277344 18.140625 15.90625 C 18.097656 15.753906 17.976562 15.511719 17.671875 15.582031 C 17.277344 15.691406 17.445312 16.195312 17.644531 16.308594 " fill-opacity="1" fill-rule="nonzero"/><path fill="#0cc0df" d="M 24.085938 25.703125 C 24.304688 25.902344 24.859375 25.835938 24.808594 25.214844 C 24.796875 25.039062 24.582031 24.894531 24.582031 24.894531 C 24.445312 24.808594 24.316406 24.84375 24.246094 24.863281 C 23.769531 25.019531 23.90625 25.535156 24.085938 25.703125 " fill-opacity="1" fill-rule="nonzero"/><path fill="#0cc0df" d="M 20.542969 42.886719 C 20.527344 42.890625 20.484375 42.898438 20.488281 42.90625 C 20.488281 42.921875 20.578125 42.9375 20.722656 42.9375 C 20.792969 42.9375 20.960938 42.929688 20.96875 42.910156 C 20.964844 42.90625 20.957031 42.902344 20.902344 42.894531 C 20.898438 42.894531 20.699219 42.863281 20.542969 42.886719 " fill-opacity="1" fill-rule="nonzero"/><path fill="#0cc0df" d="M 12.382812 10.582031 C 12.394531 10.609375 12.425781 10.664062 12.511719 10.601562 C 12.5625 10.566406 12.632812 10.5 12.691406 10.355469 C 12.734375 10.25 12.789062 10.074219 12.679688 10.082031 C 12.535156 10.105469 12.34375 10.464844 12.382812 10.582031 " fill-opacity="1" fill-rule="nonzero"/><path fill="#0cc0df" d="M 25.03125 29.425781 C 25.148438 29.507812 25.386719 29.511719 25.46875 29.453125 C 25.546875 29.398438 25.785156 29.234375 25.734375 28.929688 C 25.695312 28.6875 25.519531 28.488281 25.203125 28.585938 C 24.710938 28.769531 24.851562 29.300781 25.03125 29.425781 " fill-opacity="1" fill-rule="nonzero"/><path fill="#0cc0df" d="M 8.859375 9.71875 C 8.863281 9.714844 9.253906 9.488281 9.296875 9.445312 C 9.296875 9.445312 9.296875 9.441406 9.296875 9.441406 C 9.234375 9.453125 8.644531 9.792969 8.566406 9.875 C 8.566406 9.878906 8.566406 9.878906 8.566406 9.878906 C 8.589844 9.871094 8.664062 9.832031 8.859375 9.71875 " fill-opacity="1" fill-rule="nonzero"/><path fill="#0cc0df" d="M 25.871094 32.097656 C 25.503906 32.21875 25.46875 32.597656 25.644531 32.773438 C 25.835938 32.964844 26.296875 32.757812 26.292969 32.402344 C 26.289062 32.332031 26.265625 31.984375 25.871094 32.097656 " fill-opacity="1" fill-rule="nonzero"/><path fill="#0cc0df" d="M 25.132812 37.210938 C 25.136719 37.121094 25.105469 36.914062 24.796875 36.996094 C 24.441406 37.105469 24.449219 37.40625 24.550781 37.511719 C 24.703125 37.671875 25.132812 37.496094 25.132812 37.210938 " fill-opacity="1" fill-rule="nonzero"/><path fill="#0cc0df" d="M 23.019531 22.046875 C 23.273438 22.207031 23.707031 22.011719 23.597656 21.617188 C 23.566406 21.515625 23.445312 21.191406 23.074219 21.292969 C 22.65625 21.433594 22.8125 21.914062 23.019531 22.046875 " fill-opacity="1" fill-rule="nonzero"/><path fill="#0cc0df" d="M 19.601562 17.4375 C 19.785156 17.550781 20.175781 17.476562 20.082031 17.078125 C 20.082031 17.074219 19.96875 16.675781 19.613281 16.78125 C 19.226562 16.914062 19.464844 17.347656 19.601562 17.4375 " fill-opacity="1" fill-rule="nonzero"/><path fill="#0cc0df" d="M 12.730469 9.398438 C 12.746094 9.375 12.890625 9.175781 12.820312 9.175781 C 12.71875 9.195312 12.496094 9.496094 12.5 9.5625 C 12.5 9.566406 12.53125 9.667969 12.730469 9.398438 " fill-opacity="1" fill-rule="nonzero"/><path fill="#0cc0df" d="M 22.160156 42.246094 C 22.148438 42.25 22.136719 42.25 22.128906 42.253906 C 22.027344 42.289062 22.054688 42.339844 22.101562 42.363281 C 22.179688 42.40625 22.375 42.371094 22.347656 42.289062 C 22.347656 42.285156 22.304688 42.214844 22.160156 42.246094 " fill-opacity="1" fill-rule="nonzero"/><path fill="#0cc0df" d="M 26.1875 35.246094 C 26 35.316406 25.863281 35.550781 25.988281 35.699219 C 26.113281 35.84375 26.453125 35.707031 26.476562 35.441406 C 26.496094 35.238281 26.34375 35.195312 26.1875 35.246094 " fill-opacity="1" fill-rule="nonzero"/><path fill="#0cc0df" d="M 21.78125 18.542969 C 22.011719 18.660156 22.269531 18.476562 22.160156 18.199219 C 22.089844 18.019531 21.929688 17.933594 21.761719 17.988281 C 21.453125 18.101562 21.613281 18.460938 21.78125 18.542969 " fill-opacity="1" fill-rule="nonzero"/><path fill="#0cc0df" d="M 22.816406 41.539062 C 22.667969 41.574219 22.644531 41.667969 22.695312 41.714844 C 22.777344 41.796875 23.011719 41.726562 23.007812 41.617188 C 23.003906 41.574219 22.960938 41.507812 22.816406 41.539062 " fill-opacity="1" fill-rule="nonzero"/><path fill="#0cc0df" d="M 26.433594 26.886719 C 26.574219 26.992188 26.914062 26.871094 26.867188 26.5625 C 26.839844 26.40625 26.761719 26.234375 26.515625 26.3125 C 26.199219 26.421875 26.296875 26.785156 26.433594 26.886719 " fill-opacity="1" fill-rule="nonzero"/><g clip-path="url(#dadb14ef56)"><path fill="#0cc0df" d="M 27.292969 29.960938 C 26.988281 30.070312 27.058594 30.402344 27.160156 30.476562 C 27.164062 30.476562 27.292969 30.566406 27.457031 30.445312 C 27.492188 30.417969 27.601562 30.335938 27.585938 30.160156 C 27.574219 30.054688 27.523438 29.886719 27.292969 29.960938 " fill-opacity="1" fill-rule="nonzero"/></g><path fill="#0cc0df" d="M 23.726562 40.582031 C 23.5 40.648438 23.589844 40.804688 23.589844 40.804688 C 23.648438 40.878906 23.898438 40.820312 23.914062 40.671875 C 23.917969 40.628906 23.90625 40.535156 23.726562 40.582031 " fill-opacity="1" fill-rule="nonzero"/><path fill="#0cc0df" d="M 16.75 13.296875 C 16.851562 13.355469 17.058594 13.296875 16.988281 13.078125 C 16.96875 13.007812 16.898438 12.851562 16.738281 12.894531 C 16.519531 12.964844 16.652344 13.242188 16.75 13.296875 " fill-opacity="1" fill-rule="nonzero"/><path fill="#0cc0df" d="M 21.980469 42.691406 C 21.960938 42.683594 21.90625 42.664062 21.8125 42.683594 C 21.796875 42.6875 21.765625 42.695312 21.757812 42.703125 C 21.742188 42.730469 21.890625 42.75 21.972656 42.71875 C 21.996094 42.710938 22 42.703125 21.980469 42.691406 " fill-opacity="1" fill-rule="nonzero"/><path fill="#0cc0df" d="M 15.335938 12.261719 C 15.410156 12.324219 15.605469 12.316406 15.578125 12.078125 C 15.578125 12.074219 15.539062 11.839844 15.363281 11.882812 C 15.191406 11.933594 15.253906 12.191406 15.335938 12.261719 " fill-opacity="1" fill-rule="nonzero"/><path fill="#0cc0df" d="M 13.789062 10.160156 C 13.800781 10.101562 13.808594 9.976562 13.726562 9.988281 C 13.617188 10.011719 13.589844 10.234375 13.632812 10.285156 C 13.671875 10.332031 13.765625 10.304688 13.789062 10.160156 " fill-opacity="1" fill-rule="nonzero"/><path fill="#0cc0df" d="M 14.296875 11.261719 C 14.320312 11.277344 14.378906 11.316406 14.445312 11.253906 C 14.472656 11.226562 14.503906 11.175781 14.496094 11.078125 C 14.496094 11.03125 14.472656 10.878906 14.355469 10.90625 C 14.199219 10.949219 14.230469 11.203125 14.296875 11.261719 " fill-opacity="1" fill-rule="nonzero"/><path fill="#0cc0df" d="M 25.371094 23.175781 C 25.492188 23.25 25.828125 23.195312 25.753906 22.851562 C 25.753906 22.847656 25.675781 22.558594 25.40625 22.640625 C 25.097656 22.75 25.242188 23.101562 25.371094 23.175781 " fill-opacity="1" fill-rule="nonzero"/><path fill="#0cc0df" d="M 18.472656 14.320312 C 18.589844 14.363281 18.621094 14.328125 18.660156 14.285156 C 18.683594 14.261719 18.722656 14.199219 18.675781 14.089844 C 18.628906 13.972656 18.519531 13.910156 18.414062 13.941406 C 18.40625 13.941406 18.402344 13.945312 18.394531 13.945312 C 18.253906 14.007812 18.304688 14.257812 18.472656 14.320312 " fill-opacity="1" fill-rule="nonzero"/><path fill="#0cc0df" d="M 24.886719 39.367188 C 24.726562 39.414062 24.679688 39.542969 24.722656 39.609375 C 24.765625 39.671875 24.890625 39.640625 24.890625 39.640625 C 24.890625 39.636719 25.023438 39.570312 25.042969 39.480469 C 25.050781 39.4375 25.042969 39.324219 24.886719 39.367188 " fill-opacity="1" fill-rule="nonzero"/><path fill="#0cc0df" d="M 26.199219 37.933594 C 26.039062 37.992188 26.046875 38.128906 26.070312 38.15625 C 26.113281 38.21875 26.296875 38.160156 26.324219 38.03125 C 26.328125 38.007812 26.347656 37.886719 26.199219 37.933594 " fill-opacity="1" fill-rule="nonzero"/><g clip-path="url(#206cd8c372)"><path fill="#0cc0df" d="M 27.65625 33.328125 C 27.492188 33.386719 27.457031 33.582031 27.53125 33.664062 C 27.613281 33.75 27.84375 33.636719 27.851562 33.46875 C 27.855469 33.390625 27.832031 33.269531 27.65625 33.328125 " fill-opacity="1" fill-rule="nonzero"/></g><path fill="#0cc0df" d="M 24.066406 19.605469 C 24.183594 19.664062 24.394531 19.570312 24.320312 19.375 C 24.289062 19.296875 24.214844 19.175781 24.0625 19.222656 C 23.832031 19.304688 23.964844 19.554688 24.066406 19.605469 " fill-opacity="1" fill-rule="nonzero"/><path fill="#0cc0df" d="M 20.421875 15.308594 C 20.429688 15.3125 20.503906 15.339844 20.554688 15.292969 C 20.59375 15.253906 20.605469 15.207031 20.582031 15.152344 C 20.582031 15.152344 20.515625 14.992188 20.378906 15.03125 C 20.375 15.03125 20.367188 15.035156 20.359375 15.039062 C 20.234375 15.097656 20.324219 15.273438 20.421875 15.308594 " fill-opacity="1" fill-rule="nonzero"/><g fill="#312f30" fill-opacity="1"><g transform="translate(26.934958, 39.596866)"><g><path d="M 1.4375 -0.25 L 1.4375 0 L 0.21875 0 L 0.21875 -1.625 L 1.40625 -1.625 L 1.40625 -1.375 L 0.515625 -1.375 L 0.515625 -0.953125 L 1.3125 -0.953125 L 1.3125 -0.703125 L 0.515625 -0.703125 L 0.515625 -0.25 Z M 1.4375 -0.25 "/></g></g></g><g fill="#312f30" fill-opacity="1"><g transform="translate(29.022754, 39.596866)"><g><path d="M 1.25 0 L 0.796875 -0.625 L 0.359375 0 L 0.015625 0 L 0.625 -0.828125 L 0.046875 -1.625 L 0.390625 -1.625 L 0.8125 -1.046875 L 1.21875 -1.625 L 1.546875 -1.625 L 0.984375 -0.84375 L 1.59375 0 Z M 1.25 0 "/></g></g></g><g fill="#312f30" fill-opacity="1"><g transform="translate(31.164202, 39.596866)"><g><path d="M 0.890625 -1.625 C 1.023438 -1.625 1.144531 -1.597656 1.25 -1.546875 C 1.363281 -1.503906 1.445312 -1.441406 1.5 -1.359375 C 1.550781 -1.273438 1.578125 -1.171875 1.578125 -1.046875 C 1.578125 -0.929688 1.550781 -0.828125 1.5 -0.734375 C 1.445312 -0.648438 1.363281 -0.582031 1.25 -0.53125 C 1.144531 -0.488281 1.023438 -0.46875 0.890625 -0.46875 L 0.515625 -0.46875 L 0.515625 0 L 0.21875 0 L 0.21875 -1.625 Z M 0.875 -0.71875 C 1.007812 -0.71875 1.109375 -0.742188 1.171875 -0.796875 C 1.242188 -0.859375 1.28125 -0.941406 1.28125 -1.046875 C 1.28125 -1.148438 1.242188 -1.226562 1.171875 -1.28125 C 1.109375 -1.34375 1.007812 -1.375 0.875 -1.375 L 0.515625 -1.375 L 0.515625 -0.71875 Z M 0.875 -0.71875 "/></g></g></g><g fill="#312f30" fill-opacity="1"><g transform="translate(33.382632, 39.596866)"><g><path d="M 1.4375 -0.25 L 1.4375 0 L 0.21875 0 L 0.21875 -1.625 L 1.40625 -1.625 L 1.40625 -1.375 L 0.515625 -1.375 L 0.515625 -0.953125 L 1.3125 -0.953125 L 1.3125 -0.703125 L 0.515625 -0.703125 L 0.515625 -0.25 Z M 1.4375 -0.25 "/></g></g></g><g fill="#312f30" fill-opacity="1"><g transform="translate(35.470427, 39.596866)"><g><path d="M 1.28125 0 L 0.953125 -0.484375 C 0.941406 -0.472656 0.921875 -0.46875 0.890625 -0.46875 L 0.515625 -0.46875 L 0.515625 0 L 0.21875 0 L 0.21875 -1.625 L 0.890625 -1.625 C 1.023438 -1.625 1.144531 -1.597656 1.25 -1.546875 C 1.363281 -1.503906 1.445312 -1.441406 1.5 -1.359375 C 1.550781 -1.273438 1.578125 -1.171875 1.578125 -1.046875 C 1.578125 -0.921875 1.546875 -0.8125 1.484375 -0.71875 C 1.429688 -0.632812 1.347656 -0.570312 1.234375 -0.53125 L 1.609375 0 Z M 1.28125 -1.046875 C 1.28125 -1.148438 1.242188 -1.226562 1.171875 -1.28125 C 1.109375 -1.34375 1.007812 -1.375 0.875 -1.375 L 0.515625 -1.375 L 0.515625 -0.71875 L 0.875 -0.71875 C 1.007812 -0.71875 1.109375 -0.742188 1.171875 -0.796875 C 1.242188 -0.859375 1.28125 -0.941406 1.28125 -1.046875 Z M 1.28125 -1.046875 "/></g></g></g><g fill="#312f30" fill-opacity="1"><g transform="translate(37.700521, 39.596866)"><g><path d="M 0.546875 -1.375 L 0.015625 -1.375 L 0.015625 -1.625 L 1.390625 -1.625 L 1.390625 -1.375 L 0.859375 -1.375 L 0.859375 0 L 0.546875 0 Z M 0.546875 -1.375 "/></g></g></g><g fill="#312f30" fill-opacity="1"><g transform="translate(39.629689, 39.596866)"><g/></g></g><g fill="#312f30" fill-opacity="1"><g transform="translate(40.798387, 39.596866)"><g><path d="M 1.328125 -0.828125 L 1.625 -0.828125 L 1.625 -0.1875 C 1.539062 -0.113281 1.441406 -0.0625 1.328125 -0.03125 C 1.210938 0 1.097656 0.015625 0.984375 0.015625 C 0.816406 0.015625 0.664062 -0.015625 0.53125 -0.078125 C 0.394531 -0.148438 0.289062 -0.25 0.21875 -0.375 C 0.144531 -0.507812 0.109375 -0.65625 0.109375 -0.8125 C 0.109375 -0.96875 0.144531 -1.109375 0.21875 -1.234375 C 0.289062 -1.367188 0.394531 -1.472656 0.53125 -1.546875 C 0.664062 -1.617188 0.816406 -1.65625 0.984375 -1.65625 C 1.117188 -1.65625 1.242188 -1.628906 1.359375 -1.578125 C 1.472656 -1.535156 1.566406 -1.472656 1.640625 -1.390625 L 1.453125 -1.203125 C 1.328125 -1.328125 1.175781 -1.390625 1 -1.390625 C 0.882812 -1.390625 0.78125 -1.363281 0.6875 -1.3125 C 0.601562 -1.269531 0.535156 -1.203125 0.484375 -1.109375 C 0.429688 -1.023438 0.40625 -0.925781 0.40625 -0.8125 C 0.40625 -0.707031 0.429688 -0.609375 0.484375 -0.515625 C 0.535156 -0.429688 0.601562 -0.363281 0.6875 -0.3125 C 0.78125 -0.257812 0.882812 -0.234375 1 -0.234375 C 1.125 -0.234375 1.234375 -0.265625 1.328125 -0.328125 Z M 1.328125 -0.828125 "/></g></g></g><g fill="#312f30" fill-opacity="1"><g transform="translate(43.124122, 39.596866)"><g><path d="M 0.921875 0.015625 C 0.691406 0.015625 0.515625 -0.046875 0.390625 -0.171875 C 0.265625 -0.296875 0.203125 -0.472656 0.203125 -0.703125 L 0.203125 -1.625 L 0.5 -1.625 L 0.5 -0.71875 C 0.5 -0.394531 0.640625 -0.234375 0.921875 -0.234375 C 1.191406 -0.234375 1.328125 -0.394531 1.328125 -0.71875 L 1.328125 -1.625 L 1.625 -1.625 L 1.625 -0.703125 C 1.625 -0.472656 1.5625 -0.296875 1.4375 -0.171875 C 1.3125 -0.046875 1.140625 0.015625 0.921875 0.015625 Z M 0.921875 0.015625 "/></g></g></g><g fill="#312f30" fill-opacity="1"><g transform="translate(45.489512, 39.596866)"><g><path d="M 0.21875 -1.625 L 0.515625 -1.625 L 0.515625 0 L 0.21875 0 Z M 0.21875 -1.625 "/></g></g></g><g fill="#312f30" fill-opacity="1"><g transform="translate(46.758518, 39.596866)"><g><path d="M 0.21875 -1.625 L 0.9375 -1.625 C 1.101562 -1.625 1.253906 -1.585938 1.390625 -1.515625 C 1.523438 -1.453125 1.628906 -1.359375 1.703125 -1.234375 C 1.785156 -1.117188 1.828125 -0.976562 1.828125 -0.8125 C 1.828125 -0.65625 1.785156 -0.515625 1.703125 -0.390625 C 1.628906 -0.265625 1.523438 -0.164062 1.390625 -0.09375 C 1.253906 -0.03125 1.101562 0 0.9375 0 L 0.21875 0 Z M 0.921875 -0.25 C 1.035156 -0.25 1.140625 -0.269531 1.234375 -0.3125 C 1.328125 -0.363281 1.394531 -0.429688 1.4375 -0.515625 C 1.488281 -0.597656 1.515625 -0.695312 1.515625 -0.8125 C 1.515625 -0.925781 1.488281 -1.023438 1.4375 -1.109375 C 1.394531 -1.191406 1.328125 -1.253906 1.234375 -1.296875 C 1.140625 -1.347656 1.035156 -1.375 0.921875 -1.375 L 0.515625 -1.375 L 0.515625 -0.25 Z M 0.921875 -0.25 "/></g></g></g><g fill="#312f30" fill-opacity="1"><g transform="translate(49.210219, 39.596866)"><g><path d="M 1.28125 -0.375 L 0.46875 -0.375 L 0.296875 0 L -0.015625 0 L 0.71875 -1.625 L 1.015625 -1.625 L 1.75 0 L 1.4375 0 Z M 1.171875 -0.609375 L 0.875 -1.328125 L 0.5625 -0.609375 Z M 1.171875 -0.609375 "/></g></g></g><g fill="#312f30" fill-opacity="1"><g transform="translate(51.482301, 39.596866)"><g><path d="M 1.671875 -1.625 L 1.671875 0 L 1.421875 0 L 0.515625 -1.109375 L 0.515625 0 L 0.21875 0 L 0.21875 -1.625 L 0.46875 -1.625 L 1.359375 -0.53125 L 1.359375 -1.625 Z M 1.671875 -1.625 "/></g></g></g><g fill="#312f30" fill-opacity="1"><g transform="translate(53.896679, 39.596866)"><g><path d="M 0.96875 0.015625 C 0.800781 0.015625 0.648438 -0.015625 0.515625 -0.078125 C 0.390625 -0.148438 0.289062 -0.25 0.21875 -0.375 C 0.144531 -0.507812 0.109375 -0.65625 0.109375 -0.8125 C 0.109375 -0.96875 0.144531 -1.109375 0.21875 -1.234375 C 0.289062 -1.367188 0.394531 -1.472656 0.53125 -1.546875 C 0.664062 -1.617188 0.8125 -1.65625 0.96875 -1.65625 C 1.101562 -1.65625 1.222656 -1.628906 1.328125 -1.578125 C 1.441406 -1.535156 1.539062 -1.46875 1.625 -1.375 L 1.421875 -1.203125 C 1.304688 -1.328125 1.160156 -1.390625 0.984375 -1.390625 C 0.878906 -1.390625 0.78125 -1.363281 0.6875 -1.3125 C 0.601562 -1.257812 0.535156 -1.191406 0.484375 -1.109375 C 0.429688 -1.023438 0.40625 -0.925781 0.40625 -0.8125 C 0.40625 -0.707031 0.429688 -0.609375 0.484375 -0.515625 C 0.535156 -0.429688 0.601562 -0.363281 0.6875 -0.3125 C 0.78125 -0.257812 0.878906 -0.234375 0.984375 -0.234375 C 1.160156 -0.234375 1.304688 -0.300781 1.421875 -0.4375 L 1.625 -0.25 C 1.539062 -0.15625 1.441406 -0.0859375 1.328125 -0.046875 C 1.222656 -0.00390625 1.101562 0.015625 0.96875 0.015625 Z M 0.96875 0.015625 "/></g></g></g><g fill="#312f30" fill-opacity="1"><g transform="translate(56.11744, 39.596866)"><g><path d="M 1.4375 -0.25 L 1.4375 0 L 0.21875 0 L 0.21875 -1.625 L 1.40625 -1.625 L 1.40625 -1.375 L 0.515625 -1.375 L 0.515625 -0.953125 L 1.3125 -0.953125 L 1.3125 -0.703125 L 0.515625 -0.703125 L 0.515625 -0.25 Z M 1.4375 -0.25 "/></g></g></g><g fill="#312f30" fill-opacity="1"><g transform="translate(58.205235, 39.596866)"><g/></g></g><g fill="#312f30" fill-opacity="1"><g transform="translate(59.373932, 39.596866)"><g><path d="M 1.28125 -0.375 L 0.46875 -0.375 L 0.296875 0 L -0.015625 0 L 0.71875 -1.625 L 1.015625 -1.625 L 1.75 0 L 1.4375 0 Z M 1.171875 -0.609375 L 0.875 -1.328125 L 0.5625 -0.609375 Z M 1.171875 -0.609375 "/></g></g></g><g fill="#312f30" fill-opacity="1"><g transform="translate(61.646015, 39.596866)"><g><path d="M 1.671875 -1.625 L 1.671875 0 L 1.421875 0 L 0.515625 -1.109375 L 0.515625 0 L 0.21875 0 L 0.21875 -1.625 L 0.46875 -1.625 L 1.359375 -0.53125 L 1.359375 -1.625 Z M 1.671875 -1.625 "/></g></g></g><g fill="#312f30" fill-opacity="1"><g transform="translate(64.060392, 39.596866)"><g><path d="M 0.21875 -1.625 L 0.9375 -1.625 C 1.101562 -1.625 1.253906 -1.585938 1.390625 -1.515625 C 1.523438 -1.453125 1.628906 -1.359375 1.703125 -1.234375 C 1.785156 -1.117188 1.828125 -0.976562 1.828125 -0.8125 C 1.828125 -0.65625 1.785156 -0.515625 1.703125 -0.390625 C 1.628906 -0.265625 1.523438 -0.164062 1.390625 -0.09375 C 1.253906 -0.03125 1.101562 0 0.9375 0 L 0.21875 0 Z M 0.921875 -0.25 C 1.035156 -0.25 1.140625 -0.269531 1.234375 -0.3125 C 1.328125 -0.363281 1.394531 -0.429688 1.4375 -0.515625 C 1.488281 -0.597656 1.515625 -0.695312 1.515625 -0.8125 C 1.515625 -0.925781 1.488281 -1.023438 1.4375 -1.109375 C 1.394531 -1.191406 1.328125 -1.253906 1.234375 -1.296875 C 1.140625 -1.347656 1.035156 -1.375 0.921875 -1.375 L 0.515625 -1.375 L 0.515625 -0.25 Z M 0.921875 -0.25 "/></g></g></g><g fill="#312f30" fill-opacity="1"><g transform="translate(66.512093, 39.596866)"><g/></g></g><g fill="#312f30" fill-opacity="1"><g transform="translate(67.680791, 39.596866)"><g><path d="M 1.4375 -0.25 L 1.4375 0 L 0.21875 0 L 0.21875 -1.625 L 1.40625 -1.625 L 1.40625 -1.375 L 0.515625 -1.375 L 0.515625 -0.953125 L 1.3125 -0.953125 L 1.3125 -0.703125 L 0.515625 -0.703125 L 0.515625 -0.25 Z M 1.4375 -0.25 "/></g></g></g><g fill="#312f30" fill-opacity="1"><g transform="translate(69.768586, 39.596866)"><g><path d="M 1.671875 -1.625 L 1.671875 0 L 1.421875 0 L 0.515625 -1.109375 L 0.515625 0 L 0.21875 0 L 0.21875 -1.625 L 0.46875 -1.625 L 1.359375 -0.53125 L 1.359375 -1.625 Z M 1.671875 -1.625 "/></g></g></g><g fill="#312f30" fill-opacity="1"><g transform="translate(72.182963, 39.596866)"><g><path d="M 0.21875 -1.625 L 0.9375 -1.625 C 1.101562 -1.625 1.253906 -1.585938 1.390625 -1.515625 C 1.523438 -1.453125 1.628906 -1.359375 1.703125 -1.234375 C 1.785156 -1.117188 1.828125 -0.976562 1.828125 -0.8125 C 1.828125 -0.65625 1.785156 -0.515625 1.703125 -0.390625 C 1.628906 -0.265625 1.523438 -0.164062 1.390625 -0.09375 C 1.253906 -0.03125 1.101562 0 0.9375 0 L 0.21875 0 Z M 0.921875 -0.25 C 1.035156 -0.25 1.140625 -0.269531 1.234375 -0.3125 C 1.328125 -0.363281 1.394531 -0.429688 1.4375 -0.515625 C 1.488281 -0.597656 1.515625 -0.695312 1.515625 -0.8125 C 1.515625 -0.925781 1.488281 -1.023438 1.4375 -1.109375 C 1.394531 -1.191406 1.328125 -1.253906 1.234375 -1.296875 C 1.140625 -1.347656 1.035156 -1.375 0.921875 -1.375 L 0.515625 -1.375 L 0.515625 -0.25 Z M 0.921875 -0.25 "/></g></g></g><g fill="#312f30" fill-opacity="1"><g transform="translate(74.634664, 39.596866)"><g><path d="M 0.21875 -1.625 L 0.515625 -1.625 L 0.515625 -0.25 L 1.375 -0.25 L 1.375 0 L 0.21875 0 Z M 0.21875 -1.625 "/></g></g></g><g fill="#312f30" fill-opacity="1"><g transform="translate(76.556835, 39.596866)"><g><path d="M 1.4375 -0.25 L 1.4375 0 L 0.21875 0 L 0.21875 -1.625 L 1.40625 -1.625 L 1.40625 -1.375 L 0.515625 -1.375 L 0.515625 -0.953125 L 1.3125 -0.953125 L 1.3125 -0.703125 L 0.515625 -0.703125 L 0.515625 -0.25 Z M 1.4375 -0.25 "/></g></g></g><g fill="#312f30" fill-opacity="1"><g transform="translate(78.64463, 39.596866)"><g><path d="M 0.71875 0.015625 C 0.59375 0.015625 0.472656 0 0.359375 -0.03125 C 0.242188 -0.0625 0.148438 -0.109375 0.078125 -0.171875 L 0.1875 -0.40625 C 0.25 -0.351562 0.328125 -0.3125 0.421875 -0.28125 C 0.523438 -0.25 0.625 -0.234375 0.71875 -0.234375 C 0.84375 -0.234375 0.929688 -0.25 0.984375 -0.28125 C 1.046875 -0.320312 1.078125 -0.375 1.078125 -0.4375 C 1.078125 -0.488281 1.0625 -0.523438 1.03125 -0.546875 C 1 -0.578125 0.957031 -0.601562 0.90625 -0.625 C 0.851562 -0.644531 0.785156 -0.664062 0.703125 -0.6875 C 0.578125 -0.71875 0.472656 -0.742188 0.390625 -0.765625 C 0.316406 -0.796875 0.25 -0.84375 0.1875 -0.90625 C 0.132812 -0.96875 0.109375 -1.054688 0.109375 -1.171875 C 0.109375 -1.253906 0.132812 -1.332031 0.1875 -1.40625 C 0.238281 -1.476562 0.3125 -1.535156 0.40625 -1.578125 C 0.507812 -1.628906 0.628906 -1.65625 0.765625 -1.65625 C 0.867188 -1.65625 0.96875 -1.640625 1.0625 -1.609375 C 1.15625 -1.585938 1.238281 -1.554688 1.3125 -1.515625 L 1.21875 -1.28125 C 1.144531 -1.320312 1.066406 -1.351562 0.984375 -1.375 C 0.910156 -1.394531 0.835938 -1.40625 0.765625 -1.40625 C 0.648438 -1.40625 0.5625 -1.382812 0.5 -1.34375 C 0.445312 -1.300781 0.421875 -1.25 0.421875 -1.1875 C 0.421875 -1.132812 0.4375 -1.09375 0.46875 -1.0625 C 0.5 -1.03125 0.539062 -1.003906 0.59375 -0.984375 C 0.644531 -0.972656 0.710938 -0.957031 0.796875 -0.9375 C 0.921875 -0.90625 1.019531 -0.875 1.09375 -0.84375 C 1.175781 -0.820312 1.242188 -0.78125 1.296875 -0.71875 C 1.359375 -0.65625 1.390625 -0.570312 1.390625 -0.46875 C 1.390625 -0.375 1.363281 -0.289062 1.3125 -0.21875 C 1.257812 -0.144531 1.179688 -0.0859375 1.078125 -0.046875 C 0.984375 -0.00390625 0.863281 0.015625 0.71875 0.015625 Z M 0.71875 0.015625 "/></g></g></g><g fill="#312f30" fill-opacity="1"><g transform="translate(80.636782, 39.596866)"><g><path d="M 0.71875 0.015625 C 0.59375 0.015625 0.472656 0 0.359375 -0.03125 C 0.242188 -0.0625 0.148438 -0.109375 0.078125 -0.171875 L 0.1875 -0.40625 C 0.25 -0.351562 0.328125 -0.3125 0.421875 -0.28125 C 0.523438 -0.25 0.625 -0.234375 0.71875 -0.234375 C 0.84375 -0.234375 0.929688 -0.25 0.984375 -0.28125 C 1.046875 -0.320312 1.078125 -0.375 1.078125 -0.4375 C 1.078125 -0.488281 1.0625 -0.523438 1.03125 -0.546875 C 1 -0.578125 0.957031 -0.601562 0.90625 -0.625 C 0.851562 -0.644531 0.785156 -0.664062 0.703125 -0.6875 C 0.578125 -0.71875 0.472656 -0.742188 0.390625 -0.765625 C 0.316406 -0.796875 0.25 -0.84375 0.1875 -0.90625 C 0.132812 -0.96875 0.109375 -1.054688 0.109375 -1.171875 C 0.109375 -1.253906 0.132812 -1.332031 0.1875 -1.40625 C 0.238281 -1.476562 0.3125 -1.535156 0.40625 -1.578125 C 0.507812 -1.628906 0.628906 -1.65625 0.765625 -1.65625 C 0.867188 -1.65625 0.96875 -1.640625 1.0625 -1.609375 C 1.15625 -1.585938 1.238281 -1.554688 1.3125 -1.515625 L 1.21875 -1.28125 C 1.144531 -1.320312 1.066406 -1.351562 0.984375 -1.375 C 0.910156 -1.394531 0.835938 -1.40625 0.765625 -1.40625 C 0.648438 -1.40625 0.5625 -1.382812 0.5 -1.34375 C 0.445312 -1.300781 0.421875 -1.25 0.421875 -1.1875 C 0.421875 -1.132812 0.4375 -1.09375 0.46875 -1.0625 C 0.5 -1.03125 0.539062 -1.003906 0.59375 -0.984375 C 0.644531 -0.972656 0.710938 -0.957031 0.796875 -0.9375 C 0.921875 -0.90625 1.019531 -0.875 1.09375 -0.84375 C 1.175781 -0.820312 1.242188 -0.78125 1.296875 -0.71875 C 1.359375 -0.65625 1.390625 -0.570312 1.390625 -0.46875 C 1.390625 -0.375 1.363281 -0.289062 1.3125 -0.21875 C 1.257812 -0.144531 1.179688 -0.0859375 1.078125 -0.046875 C 0.984375 -0.00390625 0.863281 0.015625 0.71875 0.015625 Z M 0.71875 0.015625 "/></g></g></g><g fill="#312f30" fill-opacity="1"><g transform="translate(82.628935, 39.596866)"><g/></g></g><g fill="#312f30" fill-opacity="1"><g transform="translate(83.797632, 39.596866)"><g><path d="M 0.71875 0.015625 C 0.59375 0.015625 0.472656 0 0.359375 -0.03125 C 0.242188 -0.0625 0.148438 -0.109375 0.078125 -0.171875 L 0.1875 -0.40625 C 0.25 -0.351562 0.328125 -0.3125 0.421875 -0.28125 C 0.523438 -0.25 0.625 -0.234375 0.71875 -0.234375 C 0.84375 -0.234375 0.929688 -0.25 0.984375 -0.28125 C 1.046875 -0.320312 1.078125 -0.375 1.078125 -0.4375 C 1.078125 -0.488281 1.0625 -0.523438 1.03125 -0.546875 C 1 -0.578125 0.957031 -0.601562 0.90625 -0.625 C 0.851562 -0.644531 0.785156 -0.664062 0.703125 -0.6875 C 0.578125 -0.71875 0.472656 -0.742188 0.390625 -0.765625 C 0.316406 -0.796875 0.25 -0.84375 0.1875 -0.90625 C 0.132812 -0.96875 0.109375 -1.054688 0.109375 -1.171875 C 0.109375 -1.253906 0.132812 -1.332031 0.1875 -1.40625 C 0.238281 -1.476562 0.3125 -1.535156 0.40625 -1.578125 C 0.507812 -1.628906 0.628906 -1.65625 0.765625 -1.65625 C 0.867188 -1.65625 0.96875 -1.640625 1.0625 -1.609375 C 1.15625 -1.585938 1.238281 -1.554688 1.3125 -1.515625 L 1.21875 -1.28125 C 1.144531 -1.320312 1.066406 -1.351562 0.984375 -1.375 C 0.910156 -1.394531 0.835938 -1.40625 0.765625 -1.40625 C 0.648438 -1.40625 0.5625 -1.382812 0.5 -1.34375 C 0.445312 -1.300781 0.421875 -1.25 0.421875 -1.1875 C 0.421875 -1.132812 0.4375 -1.09375 0.46875 -1.0625 C 0.5 -1.03125 0.539062 -1.003906 0.59375 -0.984375 C 0.644531 -0.972656 0.710938 -0.957031 0.796875 -0.9375 C 0.921875 -0.90625 1.019531 -0.875 1.09375 -0.84375 C 1.175781 -0.820312 1.242188 -0.78125 1.296875 -0.71875 C 1.359375 -0.65625 1.390625 -0.570312 1.390625 -0.46875 C 1.390625 -0.375 1.363281 -0.289062 1.3125 -0.21875 C 1.257812 -0.144531 1.179688 -0.0859375 1.078125 -0.046875 C 0.984375 -0.00390625 0.863281 0.015625 0.71875 0.015625 Z M 0.71875 0.015625 "/></g></g></g><g fill="#312f30" fill-opacity="1"><g transform="translate(85.789785, 39.596866)"><g><path d="M 0.921875 0.015625 C 0.691406 0.015625 0.515625 -0.046875 0.390625 -0.171875 C 0.265625 -0.296875 0.203125 -0.472656 0.203125 -0.703125 L 0.203125 -1.625 L 0.5 -1.625 L 0.5 -0.71875 C 0.5 -0.394531 0.640625 -0.234375 0.921875 -0.234375 C 1.191406 -0.234375 1.328125 -0.394531 1.328125 -0.71875 L 1.328125 -1.625 L 1.625 -1.625 L 1.625 -0.703125 C 1.625 -0.472656 1.5625 -0.296875 1.4375 -0.171875 C 1.3125 -0.046875 1.140625 0.015625 0.921875 0.015625 Z M 0.921875 0.015625 "/></g></g></g><g fill="#312f30" fill-opacity="1"><g transform="translate(88.155175, 39.596866)"><g><path d="M 0.890625 -1.625 C 1.023438 -1.625 1.144531 -1.597656 1.25 -1.546875 C 1.363281 -1.503906 1.445312 -1.441406 1.5 -1.359375 C 1.550781 -1.273438 1.578125 -1.171875 1.578125 -1.046875 C 1.578125 -0.929688 1.550781 -0.828125 1.5 -0.734375 C 1.445312 -0.648438 1.363281 -0.582031 1.25 -0.53125 C 1.144531 -0.488281 1.023438 -0.46875 0.890625 -0.46875 L 0.515625 -0.46875 L 0.515625 0 L 0.21875 0 L 0.21875 -1.625 Z M 0.875 -0.71875 C 1.007812 -0.71875 1.109375 -0.742188 1.171875 -0.796875 C 1.242188 -0.859375 1.28125 -0.941406 1.28125 -1.046875 C 1.28125 -1.148438 1.242188 -1.226562 1.171875 -1.28125 C 1.109375 -1.34375 1.007812 -1.375 0.875 -1.375 L 0.515625 -1.375 L 0.515625 -0.71875 Z M 0.875 -0.71875 "/></g></g></g><g fill="#312f30" fill-opacity="1"><g transform="translate(90.373608, 39.596866)"><g><path d="M 0.890625 -1.625 C 1.023438 -1.625 1.144531 -1.597656 1.25 -1.546875 C 1.363281 -1.503906 1.445312 -1.441406 1.5 -1.359375 C 1.550781 -1.273438 1.578125 -1.171875 1.578125 -1.046875 C 1.578125 -0.929688 1.550781 -0.828125 1.5 -0.734375 C 1.445312 -0.648438 1.363281 -0.582031 1.25 -0.53125 C 1.144531 -0.488281 1.023438 -0.46875 0.890625 -0.46875 L 0.515625 -0.46875 L 0.515625 0 L 0.21875 0 L 0.21875 -1.625 Z M 0.875 -0.71875 C 1.007812 -0.71875 1.109375 -0.742188 1.171875 -0.796875 C 1.242188 -0.859375 1.28125 -0.941406 1.28125 -1.046875 C 1.28125 -1.148438 1.242188 -1.226562 1.171875 -1.28125 C 1.109375 -1.34375 1.007812 -1.375 0.875 -1.375 L 0.515625 -1.375 L 0.515625 -0.71875 Z M 0.875 -0.71875 "/></g></g></g><g fill="#312f30" fill-opacity="1"><g transform="translate(92.59204, 39.596866)"><g><path d="M 0.984375 0.015625 C 0.816406 0.015625 0.664062 -0.015625 0.53125 -0.078125 C 0.394531 -0.148438 0.289062 -0.25 0.21875 -0.375 C 0.144531 -0.507812 0.109375 -0.65625 0.109375 -0.8125 C 0.109375 -0.96875 0.144531 -1.109375 0.21875 -1.234375 C 0.289062 -1.367188 0.394531 -1.472656 0.53125 -1.546875 C 0.664062 -1.617188 0.816406 -1.65625 0.984375 -1.65625 C 1.148438 -1.65625 1.296875 -1.617188 1.421875 -1.546875 C 1.554688 -1.472656 1.660156 -1.367188 1.734375 -1.234375 C 1.816406 -1.109375 1.859375 -0.96875 1.859375 -0.8125 C 1.859375 -0.65625 1.816406 -0.507812 1.734375 -0.375 C 1.660156 -0.25 1.554688 -0.148438 1.421875 -0.078125 C 1.296875 -0.015625 1.148438 0.015625 0.984375 0.015625 Z M 0.984375 -0.234375 C 1.085938 -0.234375 1.179688 -0.257812 1.265625 -0.3125 C 1.359375 -0.363281 1.425781 -0.429688 1.46875 -0.515625 C 1.519531 -0.609375 1.546875 -0.707031 1.546875 -0.8125 C 1.546875 -0.925781 1.519531 -1.023438 1.46875 -1.109375 C 1.425781 -1.191406 1.359375 -1.257812 1.265625 -1.3125 C 1.179688 -1.363281 1.085938 -1.390625 0.984375 -1.390625 C 0.867188 -1.390625 0.769531 -1.363281 0.6875 -1.3125 C 0.601562 -1.257812 0.535156 -1.191406 0.484375 -1.109375 C 0.429688 -1.023438 0.40625 -0.925781 0.40625 -0.8125 C 0.40625 -0.707031 0.429688 -0.609375 0.484375 -0.515625 C 0.535156 -0.429688 0.601562 -0.363281 0.6875 -0.3125 C 0.769531 -0.257812 0.867188 -0.234375 0.984375 -0.234375 Z M 0.984375 -0.234375 "/></g></g></g><g fill="#312f30" fill-opacity="1"><g transform="translate(95.081068, 39.596866)"><g><path d="M 1.28125 0 L 0.953125 -0.484375 C 0.941406 -0.472656 0.921875 -0.46875 0.890625 -0.46875 L 0.515625 -0.46875 L 0.515625 0 L 0.21875 0 L 0.21875 -1.625 L 0.890625 -1.625 C 1.023438 -1.625 1.144531 -1.597656 1.25 -1.546875 C 1.363281 -1.503906 1.445312 -1.441406 1.5 -1.359375 C 1.550781 -1.273438 1.578125 -1.171875 1.578125 -1.046875 C 1.578125 -0.921875 1.546875 -0.8125 1.484375 -0.71875 C 1.429688 -0.632812 1.347656 -0.570312 1.234375 -0.53125 L 1.609375 0 Z M 1.28125 -1.046875 C 1.28125 -1.148438 1.242188 -1.226562 1.171875 -1.28125 C 1.109375 -1.34375 1.007812 -1.375 0.875 -1.375 L 0.515625 -1.375 L 0.515625 -0.71875 L 0.875 -0.71875 C 1.007812 -0.71875 1.109375 -0.742188 1.171875 -0.796875 C 1.242188 -0.859375 1.28125 -0.941406 1.28125 -1.046875 Z M 1.28125 -1.046875 "/></g></g></g><g fill="#312f30" fill-opacity="1"><g transform="translate(97.311164, 39.596866)"><g><path d="M 0.546875 -1.375 L 0.015625 -1.375 L 0.015625 -1.625 L 1.390625 -1.625 L 1.390625 -1.375 L 0.859375 -1.375 L 0.859375 0 L 0.546875 0 Z M 0.546875 -1.375 "/></g></g></g><g fill="#022135" fill-opacity="1"><g transform="translate(7.198937, 32.863222)"><g><path d="M 8.171875 -8.890625 L 8.171875 0 L 4.328125 0 L 4.328125 -8.890625 L 0.40625 -8.890625 L 0.40625 -11.953125 L 12.078125 -11.953125 L 12.078125 -8.890625 Z M 8.171875 -8.890625 "/></g></g></g><g fill="#022135" fill-opacity="1"><g transform="translate(19.743569, 32.863222)"><g><path d="M 1.28125 -11.953125 L 11.625 -11.953125 L 11.625 -9.09375 L 5.125 -9.09375 L 5.125 -7.4375 L 10.6875 -7.4375 L 10.6875 -4.6875 L 5.125 -4.6875 L 5.125 -2.859375 L 11.75 -2.859375 L 11.75 0 L 1.28125 0 Z M 1.28125 -11.953125 "/></g></g></g><g fill="#022135" fill-opacity="1"><g transform="translate(32.288202, 32.863222)"><g><path d="M 0.78125 -5.984375 C 0.78125 -8.003906 1.335938 -9.535156 2.453125 -10.578125 C 3.578125 -11.628906 5.171875 -12.15625 7.234375 -12.15625 C 9.296875 -12.15625 10.882812 -11.628906 12 -10.578125 C 13.125 -9.523438 13.6875 -7.992188 13.6875 -5.984375 C 13.6875 -4.640625 13.4375 -3.503906 12.9375 -2.578125 C 12.4375 -1.660156 11.703125 -0.960938 10.734375 -0.484375 L 13.46875 2.28125 L 8.890625 2.28125 L 7.046875 0.203125 C 5.035156 0.171875 3.488281 -0.363281 2.40625 -1.40625 C 1.320312 -2.457031 0.78125 -3.984375 0.78125 -5.984375 Z M 9.765625 -6.53125 C 9.765625 -7.375 9.546875 -8.046875 9.109375 -8.546875 C 8.679688 -9.046875 8.054688 -9.296875 7.234375 -9.296875 C 6.410156 -9.296875 5.78125 -9.046875 5.34375 -8.546875 C 4.914062 -8.046875 4.703125 -7.375 4.703125 -6.53125 L 4.703125 -5.421875 C 4.703125 -4.578125 4.914062 -3.90625 5.34375 -3.40625 C 5.78125 -2.90625 6.410156 -2.65625 7.234375 -2.65625 C 8.054688 -2.65625 8.679688 -2.90625 9.109375 -3.40625 C 9.546875 -3.90625 9.765625 -4.578125 9.765625 -5.421875 Z M 9.765625 -6.53125 "/></g></g></g><g fill="#0cc0df" fill-opacity="1"><g transform="translate(46.76302, 32.863222)"><g><path d="M 6.3125 -12.15625 C 7.832031 -12.15625 9.082031 -11.84375 10.0625 -11.21875 C 11.050781 -10.601562 11.5625 -9.691406 11.59375 -8.484375 L 11.59375 -8.265625 L 8 -8.265625 L 8 -8.34375 C 8 -8.6875 7.867188 -8.972656 7.609375 -9.203125 C 7.359375 -9.441406 6.972656 -9.5625 6.453125 -9.5625 C 5.941406 -9.5625 5.546875 -9.484375 5.265625 -9.328125 C 4.992188 -9.179688 4.859375 -9 4.859375 -8.78125 C 4.859375 -8.46875 5.046875 -8.234375 5.421875 -8.078125 C 5.796875 -7.929688 6.390625 -7.773438 7.203125 -7.609375 C 8.171875 -7.410156 8.960938 -7.203125 9.578125 -6.984375 C 10.203125 -6.773438 10.742188 -6.425781 11.203125 -5.9375 C 11.671875 -5.457031 11.910156 -4.800781 11.921875 -3.96875 C 11.921875 -2.550781 11.441406 -1.5 10.484375 -0.8125 C 9.523438 -0.132812 8.25 0.203125 6.65625 0.203125 C 4.789062 0.203125 3.335938 -0.109375 2.296875 -0.734375 C 1.265625 -1.359375 0.75 -2.460938 0.75 -4.046875 L 4.375 -4.046875 C 4.375 -3.441406 4.53125 -3.035156 4.84375 -2.828125 C 5.15625 -2.628906 5.644531 -2.53125 6.3125 -2.53125 C 6.789062 -2.53125 7.191406 -2.582031 7.515625 -2.6875 C 7.835938 -2.789062 8 -3.007812 8 -3.34375 C 8 -3.625 7.820312 -3.835938 7.46875 -3.984375 C 7.113281 -4.128906 6.535156 -4.285156 5.734375 -4.453125 C 4.765625 -4.660156 3.957031 -4.875 3.3125 -5.09375 C 2.675781 -5.320312 2.117188 -5.695312 1.640625 -6.21875 C 1.171875 -6.738281 0.9375 -7.445312 0.9375 -8.34375 C 0.9375 -9.644531 1.441406 -10.601562 2.453125 -11.21875 C 3.472656 -11.84375 4.757812 -12.15625 6.3125 -12.15625 Z M 6.3125 -12.15625 "/></g></g></g><g fill="#ed751c" fill-opacity="1"><g transform="translate(59.310438, 32.863222)"><g><path d="M 8 -11.953125 C 8.738281 -11.953125 9.394531 -11.78125 9.96875 -11.4375 C 10.550781 -11.09375 11.003906 -10.625 11.328125 -10.03125 C 11.648438 -9.4375 11.8125 -8.769531 11.8125 -8.03125 L 11.8125 -7.796875 C 11.8125 -7.054688 11.648438 -6.382812 11.328125 -5.78125 C 11.003906 -5.175781 10.550781 -4.703125 9.96875 -4.359375 C 9.394531 -4.023438 8.738281 -3.859375 8 -3.859375 L 5.125 -3.859375 L 5.125 0 L 1.28125 0 L 1.28125 -11.953125 Z M 5.125 -6.65625 L 6.703125 -6.65625 C 7.109375 -6.65625 7.410156 -6.757812 7.609375 -6.96875 C 7.816406 -7.175781 7.921875 -7.457031 7.921875 -7.8125 L 7.921875 -7.953125 C 7.921875 -8.328125 7.816406 -8.613281 7.609375 -8.8125 C 7.410156 -9.019531 7.109375 -9.125 6.703125 -9.125 L 5.125 -9.125 Z M 5.125 -6.65625 "/></g></g></g><g fill="#00bf63" fill-opacity="1"><g transform="translate(71.857859, 32.863222)"><g><path d="M 7.234375 -12.15625 C 9.296875 -12.15625 10.882812 -11.628906 12 -10.578125 C 13.125 -9.523438 13.6875 -7.992188 13.6875 -5.984375 C 13.6875 -3.960938 13.125 -2.425781 12 -1.375 C 10.882812 -0.320312 9.296875 0.203125 7.234375 0.203125 C 5.171875 0.203125 3.578125 -0.316406 2.453125 -1.359375 C 1.335938 -2.410156 0.78125 -3.953125 0.78125 -5.984375 C 0.78125 -8.003906 1.335938 -9.535156 2.453125 -10.578125 C 3.578125 -11.628906 5.171875 -12.15625 7.234375 -12.15625 Z M 7.234375 -9.296875 C 6.410156 -9.296875 5.78125 -9.046875 5.34375 -8.546875 C 4.914062 -8.046875 4.703125 -7.375 4.703125 -6.53125 L 4.703125 -5.421875 C 4.703125 -4.578125 4.914062 -3.90625 5.34375 -3.40625 C 5.78125 -2.90625 6.410156 -2.65625 7.234375 -2.65625 C 8.054688 -2.65625 8.679688 -2.90625 9.109375 -3.40625 C 9.546875 -3.90625 9.765625 -4.578125 9.765625 -5.421875 L 9.765625 -6.53125 C 9.765625 -7.375 9.546875 -8.046875 9.109375 -8.546875 C 8.679688 -9.046875 8.054688 -9.296875 7.234375 -9.296875 Z M 7.234375 -9.296875 "/></g></g></g><g fill="#ff3131" fill-opacity="1"><g transform="translate(86.333638, 32.863222)"><g><path d="M 6.984375 -12.15625 C 8.753906 -12.15625 10.15625 -11.710938 11.1875 -10.828125 C 12.21875 -9.941406 12.734375 -8.675781 12.734375 -7.03125 L 9.0625 -7.03125 C 9.0625 -7.726562 8.878906 -8.28125 8.515625 -8.6875 C 8.148438 -9.09375 7.632812 -9.296875 6.96875 -9.296875 C 6.1875 -9.296875 5.613281 -9.050781 5.25 -8.5625 C 4.882812 -8.082031 4.703125 -7.40625 4.703125 -6.53125 L 4.703125 -5.421875 C 4.703125 -4.566406 4.882812 -3.890625 5.25 -3.390625 C 5.613281 -2.898438 6.175781 -2.65625 6.9375 -2.65625 C 7.675781 -2.65625 8.234375 -2.847656 8.609375 -3.234375 C 8.992188 -3.617188 9.1875 -4.15625 9.1875 -4.84375 L 12.734375 -4.84375 C 12.734375 -3.207031 12.234375 -1.957031 11.234375 -1.09375 C 10.234375 -0.226562 8.816406 0.203125 6.984375 0.203125 C 4.941406 0.203125 3.394531 -0.316406 2.34375 -1.359375 C 1.300781 -2.398438 0.78125 -3.941406 0.78125 -5.984375 C 0.78125 -8.015625 1.300781 -9.550781 2.34375 -10.59375 C 3.394531 -11.632812 4.941406 -12.15625 6.984375 -12.15625 Z M 6.984375 -12.15625 "/></g></g></g></svg>