<svg xmlns="http://www.w3.org/2000/svg" xmlns:xlink="http://www.w3.org/1999/xlink" width="140" zoomAndPan="magnify" viewBox="0 0 104.88 52.499999" height="70" preserveAspectRatio="xMidYMid meet" version="1.0"><defs><g/><clipPath id="d162e77a83"><path d="M 20 15 L 39 15 L 39 29 L 20 29 Z M 20 15 " clip-rule="nonzero"/></clipPath><clipPath id="e30d72d004"><path d="M 18.242188 17.289062 L 35.480469 12.730469 L 40.613281 32.121094 L 23.375 36.683594 Z M 18.242188 17.289062 " clip-rule="nonzero"/></clipPath><clipPath id="75693d72d1"><path d="M 18.242188 17.289062 L 35.480469 12.730469 L 40.613281 32.121094 L 23.375 36.683594 Z M 18.242188 17.289062 " clip-rule="nonzero"/></clipPath><clipPath id="6d75af8b4d"><path d="M 20 23 L 41 23 L 41 34 L 20 34 Z M 20 23 " clip-rule="nonzero"/></clipPath><clipPath id="1faaf15c91"><path d="M 18.242188 17.289062 L 35.480469 12.730469 L 40.613281 32.121094 L 23.375 36.683594 Z M 18.242188 17.289062 " clip-rule="nonzero"/></clipPath><clipPath id="b4ccac9ec4"><path d="M 18.242188 17.289062 L 35.480469 12.730469 L 40.613281 32.121094 L 23.375 36.683594 Z M 18.242188 17.289062 " clip-rule="nonzero"/></clipPath><clipPath id="db85f436a6"><path d="M 20 23 L 41 23 L 41 33 L 20 33 Z M 20 23 " clip-rule="nonzero"/></clipPath><clipPath id="5bacfccb23"><path d="M 18.242188 17.289062 L 35.480469 12.730469 L 40.613281 32.121094 L 23.375 36.683594 Z M 18.242188 17.289062 " clip-rule="nonzero"/></clipPath><clipPath id="6744eb8448"><path d="M 18.242188 17.289062 L 35.480469 12.730469 L 40.613281 32.121094 L 23.375 36.683594 Z M 18.242188 17.289062 " clip-rule="nonzero"/></clipPath><clipPath id="8fbb06f5c2"><path d="M 20 15 L 34 15 L 34 23 L 20 23 Z M 20 15 " clip-rule="nonzero"/></clipPath><clipPath id="b91c2bc991"><path d="M 18.242188 17.289062 L 35.480469 12.730469 L 40.613281 32.121094 L 23.375 36.683594 Z M 18.242188 17.289062 " clip-rule="nonzero"/></clipPath><clipPath id="9b1212ea2e"><path d="M 18.242188 17.289062 L 35.480469 12.730469 L 40.613281 32.121094 L 23.375 36.683594 Z M 18.242188 17.289062 " clip-rule="nonzero"/></clipPath><clipPath id="d6994ef7f9"><path d="M 42 15.671875 L 56 15.671875 L 56 30 L 42 30 Z M 42 15.671875 " clip-rule="nonzero"/></clipPath><clipPath id="c2dc0d5697"><path d="M 41.15625 28.476562 L 55.707031 28.476562 L 55.707031 34.246094 L 41.15625 34.246094 Z M 41.15625 28.476562 " clip-rule="nonzero"/></clipPath><clipPath id="381716f783"><path d="M 38.527344 20.300781 L 57.785156 20.300781 L 57.785156 32.007812 L 38.527344 32.007812 Z M 38.527344 20.300781 " clip-rule="nonzero"/></clipPath><clipPath id="9043185f8d"><path d="M 38.527344 20.300781 L 39.203125 24.570312 L 40.046875 23.855469 C 41.613281 25.839844 44.296875 28.132812 47.136719 29.785156 C 49.402344 31.101562 51.769531 32.003906 53.738281 32.007812 C 54.6875 32.007812 55.554688 31.761719 56.242188 31.355469 C 57.933594 30.347656 58.53125 28.367188 56.511719 26.707031 C 56.78125 26.996094 57.566406 28.90625 56.242188 29.746094 C 55.613281 30.140625 54.511719 30.296875 52.65625 29.921875 C 52.429688 29.875 52.203125 29.824219 51.976562 29.761719 C 49.449219 29.070312 47.019531 27.417969 45.167969 25.855469 C 45.007812 25.71875 44.847656 25.582031 44.695312 25.449219 C 42.894531 23.859375 41.75 22.460938 41.792969 22.398438 C 41.878906 22.269531 42.542969 21.792969 42.542969 21.792969 Z M 38.527344 20.300781 " clip-rule="nonzero"/></clipPath><clipPath id="47cd4113da"><path d="M 38.527344 20.300781 L 39.203125 24.570312 L 40.046875 23.855469 C 41.613281 25.839844 44.296875 28.132812 47.136719 29.785156 C 49.402344 31.101562 51.769531 32.003906 53.738281 32.007812 C 54.6875 32.007812 55.554688 31.761719 56.242188 31.355469 C 57.933594 30.347656 58.53125 28.367188 56.511719 26.707031 C 56.78125 26.996094 57.566406 28.90625 56.242188 29.746094 C 55.613281 30.140625 54.511719 30.296875 52.65625 29.921875 C 52.429688 29.875 52.203125 29.824219 51.976562 29.761719 C 49.449219 29.070312 47.019531 27.417969 45.167969 25.855469 C 45.007812 25.71875 44.847656 25.582031 44.695312 25.449219 C 42.894531 23.859375 41.75 22.460938 41.792969 22.398438 C 41.878906 22.269531 42.542969 21.792969 42.542969 21.792969 L 38.527344 20.300781 " clip-rule="nonzero"/></clipPath><radialGradient gradientTransform="matrix(-1, 0, 0, 1, 38.87809, 20.5548)" gradientUnits="userSpaceOnUse" r="12.001993" cx="0" id="caf80f961b" cy="0" fx="0" fy="0"><stop stop-opacity="1" stop-color="rgb(50.004578%, 50.804138%, 52.003479%)" offset="0"/><stop stop-opacity="1" stop-color="rgb(49.742126%, 50.541687%, 51.741028%)" offset="0.0078125"/><stop stop-opacity="1" stop-color="rgb(49.536133%, 50.337219%, 51.53656%)" offset="0.0117188"/><stop stop-opacity="1" stop-color="rgb(49.328613%, 50.1297%, 51.329041%)" offset="0.0234375"/><stop stop-opacity="1" stop-color="rgb(49.064636%, 49.865723%, 51.065063%)" offset="0.0351562"/><stop stop-opacity="1" stop-color="rgb(48.803711%, 49.604797%, 50.804138%)" offset="0.046875"/><stop stop-opacity="1" stop-color="rgb(48.674011%, 49.473572%, 50.674438%)" offset="0.0507812"/><stop stop-opacity="1" stop-color="rgb(48.538208%, 49.339294%, 50.538635%)" offset="0.0546875"/><stop stop-opacity="1" stop-color="rgb(48.396301%, 49.197388%, 50.396729%)" offset="0.0585938"/><stop stop-opacity="1" stop-color="rgb(48.262024%, 49.055481%, 50.256348%)" offset="0.0625"/><stop stop-opacity="1" stop-color="rgb(48.196411%, 48.791504%, 49.992371%)" offset="0.0664062"/><stop stop-opacity="1" stop-color="rgb(47.999573%, 48.599243%, 49.798584%)" offset="0.078125"/><stop stop-opacity="1" stop-color="rgb(47.65625%, 48.405457%, 49.606323%)" offset="0.0898438"/><stop stop-opacity="1" stop-color="rgb(47.441101%, 48.143005%, 49.343872%)" offset="0.101562"/><stop stop-opacity="1" stop-color="rgb(47.30072%, 48.001099%, 49.201965%)" offset="0.105469"/><stop stop-opacity="1" stop-color="rgb(47.164917%, 47.860718%, 49.060059%)" offset="0.109375"/><stop stop-opacity="1" stop-color="rgb(47.099304%, 47.645569%, 48.794556%)" offset="0.113281"/><stop stop-opacity="1" stop-color="rgb(46.903992%, 47.499084%, 48.403931%)" offset="0.125"/><stop stop-opacity="1" stop-color="rgb(46.636963%, 47.433472%, 48.204041%)" offset="0.136719"/><stop stop-opacity="1" stop-color="rgb(46.495056%, 47.296143%, 48.199463%)" offset="0.140625"/><stop stop-opacity="1" stop-color="rgb(46.362305%, 47.154236%, 48.191833%)" offset="0.144531"/><stop stop-opacity="1" stop-color="rgb(46.296692%, 46.888733%, 47.988892%)" offset="0.148438"/><stop stop-opacity="1" stop-color="rgb(46.098328%, 46.498108%, 47.648621%)" offset="0.160156"/><stop stop-opacity="1" stop-color="rgb(45.707703%, 46.107483%, 47.306824%)" offset="0.171875"/><stop stop-opacity="1" stop-color="rgb(45.4422%, 45.906067%, 47.105408%)" offset="0.183594"/><stop stop-opacity="1" stop-color="rgb(45.23468%, 45.828247%, 47.029114%)" offset="0.1875"/><stop stop-opacity="1" stop-color="rgb(45.033264%, 45.562744%, 46.763611%)" offset="0.199219"/><stop stop-opacity="1" stop-color="rgb(44.902039%, 45.301819%, 46.502686%)" offset="0.210938"/><stop stop-opacity="1" stop-color="rgb(44.772339%, 45.172119%, 46.37146%)" offset="0.214844"/><stop stop-opacity="1" stop-color="rgb(44.636536%, 45.036316%, 46.237183%)" offset="0.21875"/><stop stop-opacity="1" stop-color="rgb(44.494629%, 44.894409%, 46.095276%)" offset="0.222656"/><stop stop-opacity="1" stop-color="rgb(44.354248%, 44.761658%, 45.953369%)" offset="0.226562"/><stop stop-opacity="1" stop-color="rgb(44.091797%, 44.696045%, 45.690918%)" offset="0.230469"/><stop stop-opacity="1" stop-color="rgb(43.899536%, 44.497681%, 45.498657%)" offset="0.242188"/><stop stop-opacity="1" stop-color="rgb(43.70575%, 44.107056%, 45.304871%)" offset="0.253906"/><stop stop-opacity="1" stop-color="rgb(43.505859%, 43.90564%, 45.10498%)" offset="0.261719"/><stop stop-opacity="1" stop-color="rgb(43.400574%, 43.800354%, 45.001221%)" offset="0.269531"/><stop stop-opacity="1" stop-color="rgb(43.200684%, 43.600464%, 44.801331%)" offset="0.273438"/><stop stop-opacity="1" stop-color="rgb(42.997742%, 43.397522%, 44.596863%)" offset="0.28125"/><stop stop-opacity="1" stop-color="rgb(42.796326%, 43.197632%, 44.396973%)" offset="0.289062"/><stop stop-opacity="1" stop-color="rgb(42.630005%, 43.006897%, 44.206238%)" offset="0.296875"/><stop stop-opacity="1" stop-color="rgb(42.480469%, 42.807007%, 44.006348%)" offset="0.304688"/><stop stop-opacity="1" stop-color="rgb(42.29126%, 42.617798%, 43.791199%)" offset="0.3125"/><stop stop-opacity="1" stop-color="rgb(42.09137%, 42.468262%, 43.487549%)" offset="0.320312"/><stop stop-opacity="1" stop-color="rgb(41.900635%, 42.300415%, 43.196106%)" offset="0.328125"/><stop stop-opacity="1" stop-color="rgb(41.700745%, 42.100525%, 43.005371%)" offset="0.335938"/><stop stop-opacity="1" stop-color="rgb(41.496277%, 41.897583%, 42.805481%)" offset="0.34375"/><stop stop-opacity="1" stop-color="rgb(41.296387%, 41.696167%, 42.616272%)" offset="0.351562"/><stop stop-opacity="1" stop-color="rgb(41.093445%, 41.493225%, 42.466736%)" offset="0.359375"/><stop stop-opacity="1" stop-color="rgb(40.893555%, 41.293335%, 42.298889%)" offset="0.367188"/><stop stop-opacity="1" stop-color="rgb(40.70282%, 41.1026%, 42.098999%)" offset="0.375"/><stop stop-opacity="1" stop-color="rgb(40.50293%, 40.90271%, 41.908264%)" offset="0.382812"/><stop stop-opacity="1" stop-color="rgb(40.299988%, 40.699768%, 41.708374%)" offset="0.390625"/><stop stop-opacity="1" stop-color="rgb(40.100098%, 40.499878%, 41.491699%)" offset="0.398438"/><stop stop-opacity="1" stop-color="rgb(39.897156%, 40.296936%, 41.291809%)" offset="0.40625"/><stop stop-opacity="1" stop-color="rgb(39.697266%, 40.097046%, 41.101074%)" offset="0.414062"/><stop stop-opacity="1" stop-color="rgb(39.506531%, 39.906311%, 40.901184%)" offset="0.421875"/><stop stop-opacity="1" stop-color="rgb(39.306641%, 39.706421%, 40.698242%)" offset="0.429688"/><stop stop-opacity="1" stop-color="rgb(39.091492%, 39.491272%, 40.498352%)" offset="0.4375"/><stop stop-opacity="1" stop-color="rgb(38.890076%, 39.291382%, 40.29541%)" offset="0.445312"/><stop stop-opacity="1" stop-color="rgb(38.699341%, 39.100647%, 40.09552%)" offset="0.453125"/><stop stop-opacity="1" stop-color="rgb(38.499451%, 38.900757%, 39.904785%)" offset="0.460938"/><stop stop-opacity="1" stop-color="rgb(38.296509%, 38.696289%, 39.704895%)" offset="0.46875"/><stop stop-opacity="1" stop-color="rgb(38.096619%, 38.496399%, 39.489746%)" offset="0.476562"/><stop stop-opacity="1" stop-color="rgb(37.893677%, 38.293457%, 39.18457%)" offset="0.484375"/><stop stop-opacity="1" stop-color="rgb(37.693787%, 37.994385%, 38.893127%)" offset="0.492188"/><stop stop-opacity="1" stop-color="rgb(37.454224%, 37.698364%, 38.604736%)" offset="0.5"/><stop stop-opacity="1" stop-color="rgb(37.239075%, 37.550354%, 38.340759%)" offset="0.515625"/><stop stop-opacity="1" stop-color="rgb(37.098694%, 37.449646%, 38.198853%)" offset="0.519531"/><stop stop-opacity="1" stop-color="rgb(36.962891%, 37.341309%, 38.058472%)" offset="0.523438"/><stop stop-opacity="1" stop-color="rgb(36.897278%, 37.09259%, 37.792969%)" offset="0.527344"/><stop stop-opacity="1" stop-color="rgb(36.701965%, 36.701965%, 37.599182%)" offset="0.539062"/><stop stop-opacity="1" stop-color="rgb(36.31134%, 36.31134%, 37.45575%)" offset="0.550781"/><stop stop-opacity="1" stop-color="rgb(36.045837%, 36.106873%, 37.243652%)" offset="0.5625"/><stop stop-opacity="1" stop-color="rgb(35.903931%, 36.099243%, 37.103271%)" offset="0.566406"/><stop stop-opacity="1" stop-color="rgb(35.766602%, 36.094666%, 36.962891%)" offset="0.570312"/><stop stop-opacity="1" stop-color="rgb(35.699463%, 35.896301%, 36.697388%)" offset="0.574219"/><stop stop-opacity="1" stop-color="rgb(35.50415%, 35.505676%, 36.500549%)" offset="0.585938"/><stop stop-opacity="1" stop-color="rgb(35.240173%, 35.240173%, 36.433411%)" offset="0.597656"/><stop stop-opacity="1" stop-color="rgb(35.098267%, 35.098267%, 36.297607%)" offset="0.601562"/><stop stop-opacity="1" stop-color="rgb(34.963989%, 34.963989%, 36.157227%)" offset="0.605469"/><stop stop-opacity="1" stop-color="rgb(34.898376%, 34.898376%, 35.891724%)" offset="0.609375"/><stop stop-opacity="1" stop-color="rgb(34.701538%, 34.701538%, 35.501099%)" offset="0.621094"/><stop stop-opacity="1" stop-color="rgb(34.312439%, 34.312439%, 35.302734%)" offset="0.632812"/><stop stop-opacity="1" stop-color="rgb(34.107971%, 34.107971%, 35.197449%)" offset="0.640625"/><stop stop-opacity="1" stop-color="rgb(33.990479%, 33.990479%, 34.997559%)" offset="0.644531"/><stop stop-opacity="1" stop-color="rgb(33.790588%, 33.790588%, 34.794617%)" offset="0.652344"/><stop stop-opacity="1" stop-color="rgb(33.599854%, 33.599854%, 34.594727%)" offset="0.660156"/><stop stop-opacity="1" stop-color="rgb(33.399963%, 33.399963%, 34.403992%)" offset="0.667969"/><stop stop-opacity="1" stop-color="rgb(33.209229%, 33.209229%, 34.204102%)" offset="0.675781"/><stop stop-opacity="1" stop-color="rgb(33.009338%, 33.009338%, 34.00116%)" offset="0.683594"/><stop stop-opacity="1" stop-color="rgb(32.794189%, 32.794189%, 33.80127%)" offset="0.691406"/><stop stop-opacity="1" stop-color="rgb(32.594299%, 32.594299%, 33.598328%)" offset="0.699219"/><stop stop-opacity="1" stop-color="rgb(32.348633%, 32.348633%, 33.306885%)" offset="0.707031"/><stop stop-opacity="1" stop-color="rgb(32.099915%, 32.099915%, 33.007812%)" offset="0.722656"/><stop stop-opacity="1" stop-color="rgb(31.900024%, 31.900024%, 32.792664%)" offset="0.730469"/><stop stop-opacity="1" stop-color="rgb(31.799316%, 31.697083%, 32.514954%)" offset="0.738281"/><stop stop-opacity="1" stop-color="rgb(31.70166%, 31.497192%, 32.272339%)" offset="0.746094"/><stop stop-opacity="1" stop-color="rgb(31.506348%, 31.399536%, 32.199097%)" offset="0.753906"/><stop stop-opacity="1" stop-color="rgb(31.341553%, 31.336975%, 32.136536%)" offset="0.757812"/><stop stop-opacity="1" stop-color="rgb(31.210327%, 31.210327%, 32.009888%)" offset="0.761719"/><stop stop-opacity="1" stop-color="rgb(31.079102%, 31.079102%, 31.880188%)" offset="0.765625"/><stop stop-opacity="1" stop-color="rgb(30.944824%, 30.944824%, 31.744385%)" offset="0.769531"/><stop stop-opacity="1" stop-color="rgb(30.802917%, 30.802917%, 31.602478%)" offset="0.773438"/><stop stop-opacity="1" stop-color="rgb(30.665588%, 30.661011%, 31.460571%)" offset="0.777344"/><stop stop-opacity="1" stop-color="rgb(30.599976%, 30.395508%, 31.195068%)" offset="0.78125"/><stop stop-opacity="1" stop-color="rgb(30.404663%, 30.198669%, 30.999756%)" offset="0.792969"/><stop stop-opacity="1" stop-color="rgb(30.13916%, 30.133057%, 30.934143%)" offset="0.804688"/><stop stop-opacity="1" stop-color="rgb(29.997253%, 29.997253%, 30.796814%)" offset="0.808594"/><stop stop-opacity="1" stop-color="rgb(29.862976%, 29.852295%, 30.662537%)" offset="0.8125"/><stop stop-opacity="1" stop-color="rgb(29.792786%, 29.588318%, 30.593872%)" offset="0.816406"/><stop stop-opacity="1" stop-color="rgb(29.592896%, 29.397583%, 30.392456%)" offset="0.824219"/><stop stop-opacity="1" stop-color="rgb(29.399109%, 29.202271%, 30.001831%)" offset="0.832031"/><stop stop-opacity="1" stop-color="rgb(29.206848%, 29.00238%, 29.801941%)" offset="0.839844"/><stop stop-opacity="1" stop-color="rgb(29.006958%, 28.897095%, 29.696655%)" offset="0.847656"/><stop stop-opacity="1" stop-color="rgb(28.889465%, 28.697205%, 29.496765%)" offset="0.851562"/><stop stop-opacity="1" stop-color="rgb(28.689575%, 28.494263%, 29.293823%)" offset="0.859375"/><stop stop-opacity="1" stop-color="rgb(28.49884%, 28.294373%, 29.093933%)" offset="0.867188"/><stop stop-opacity="1" stop-color="rgb(28.29895%, 28.005981%, 28.805542%)" offset="0.875"/><stop stop-opacity="1" stop-color="rgb(28.134155%, 27.757263%, 28.541565%)" offset="0.890625"/><stop stop-opacity="1" stop-color="rgb(27.998352%, 27.648926%, 28.399658%)" offset="0.894531"/><stop stop-opacity="1" stop-color="rgb(27.859497%, 27.542114%, 28.257751%)" offset="0.898438"/><stop stop-opacity="1" stop-color="rgb(27.644348%, 27.293396%, 27.993774%)" offset="0.902344"/><stop stop-opacity="1" stop-color="rgb(27.49939%, 27.099609%, 27.799988%)" offset="0.914062"/><stop stop-opacity="1" stop-color="rgb(27.307129%, 26.907349%, 27.655029%)" offset="0.921875"/><stop stop-opacity="1" stop-color="rgb(27.107239%, 26.707458%, 27.505493%)" offset="0.929688"/><stop stop-opacity="1" stop-color="rgb(27.001953%, 26.602173%, 27.401733%)" offset="0.9375"/><stop stop-opacity="1" stop-color="rgb(26.795959%, 26.400757%, 27.201843%)" offset="0.941406"/><stop stop-opacity="1" stop-color="rgb(26.493835%, 26.296997%, 27.098083%)" offset="0.945312"/><stop stop-opacity="1" stop-color="rgb(26.298523%, 26.101685%, 26.902771%)" offset="0.957031"/><stop stop-opacity="1" stop-color="rgb(26.107788%, 25.71106%, 26.512146%)" offset="0.964844"/><stop stop-opacity="1" stop-color="rgb(25.898743%, 25.497437%, 26.298523%)" offset="0.972656"/><stop stop-opacity="1" stop-color="rgb(25.689697%, 25.289917%, 26.089478%)" offset="0.984375"/><stop stop-opacity="1" stop-color="rgb(25.498962%, 25.099182%, 25.898743%)" offset="1"/></radialGradient><clipPath id="6b334b9646"><path d="M 69.671875 11.328125 L 87.5 11.328125 L 87.5 21.730469 L 69.671875 21.730469 Z M 69.671875 11.328125 " clip-rule="nonzero"/></clipPath><clipPath id="23d7d479a5"><path d="M 0.433594 17 L 10 17 L 10 31 L 0.433594 31 Z M 0.433594 17 " clip-rule="nonzero"/></clipPath></defs><g clip-path="url(#d162e77a83)"><g clip-path="url(#e30d72d004)"><g clip-path="url(#75693d72d1)"><path fill="#4f4c4c" d="M 38.039062 24.601562 C 38.054688 25.824219 37.816406 26.992188 37.375 28.054688 C 36.6875 27.515625 35.96875 27.003906 35.230469 26.53125 C 35.167969 26.492188 35.109375 26.457031 35.050781 26.417969 C 35.21875 25.851562 35.304688 25.253906 35.296875 24.632812 C 35.257812 21.316406 32.535156 18.660156 29.21875 18.703125 C 26.765625 18.730469 24.675781 20.226562 23.769531 22.34375 C 23.699219 22.332031 23.628906 22.324219 23.554688 22.316406 C 22.695312 22.210938 21.8125 22.144531 20.933594 22.121094 C 22.023438 18.589844 25.289062 16.007812 29.183594 15.960938 C 30.898438 15.941406 32.5 16.414062 33.859375 17.246094 C 36.335938 18.765625 38 21.484375 38.039062 24.601562 " fill-opacity="1" fill-rule="nonzero"/></g></g></g><g clip-path="url(#6d75af8b4d)"><g clip-path="url(#1faaf15c91)"><g clip-path="url(#b4ccac9ec4)"><path fill="#050a30" d="M 20.542969 24.816406 C 20.542969 24.882812 20.546875 24.949219 20.546875 25.015625 C 20.5625 25.417969 20.605469 25.816406 20.671875 26.203125 C 20.800781 26.949219 21.023438 27.664062 21.328125 28.332031 C 21.332031 28.339844 21.335938 28.347656 21.335938 28.355469 C 21.359375 28.402344 21.382812 28.449219 21.40625 28.5 C 22.832031 31.464844 25.886719 33.5 29.398438 33.457031 C 31.71875 33.425781 33.816406 32.496094 35.363281 31.003906 C 34.601562 30.691406 33.824219 30.417969 33.050781 30.1875 C 32.773438 30.101562 32.496094 30.023438 32.222656 29.953125 C 31.375 30.425781 30.402344 30.699219 29.367188 30.714844 C 27.277344 30.738281 25.425781 29.699219 24.332031 28.09375 C 26.78125 27.914062 29.890625 28.070312 33.371094 29.117188 C 34.277344 29.386719 35.210938 29.722656 36.160156 30.125 C 37.417969 30.65625 38.714844 31.316406 40.03125 32.117188 C 40.003906 32.082031 38.933594 30.726562 36.871094 29.078125 C 36.21875 28.5625 35.472656 28.015625 34.625 27.472656 C 31.886719 25.714844 28.136719 23.996094 23.421875 23.425781 C 22.539062 23.316406 21.621094 23.25 20.667969 23.230469 C 20.578125 23.746094 20.539062 24.277344 20.542969 24.816406 " fill-opacity="1" fill-rule="nonzero"/></g></g></g><g clip-path="url(#db85f436a6)"><g clip-path="url(#5bacfccb23)"><g clip-path="url(#6744eb8448)"><path fill="#3a9bdc" d="M 20.542969 24.816406 C 20.542969 24.882812 20.546875 24.949219 20.546875 25.015625 C 20.5625 25.417969 20.605469 25.816406 20.671875 26.203125 C 33.289062 25.84375 39.976562 32.070312 40.03125 32.117188 C 40.003906 32.082031 38.933594 30.726562 36.871094 29.078125 C 36.21875 28.5625 35.472656 28.015625 34.625 27.472656 C 31.886719 25.714844 28.136719 23.996094 23.421875 23.425781 C 22.539062 23.316406 21.621094 23.25 20.667969 23.230469 C 20.578125 23.746094 20.539062 24.277344 20.542969 24.816406 " fill-opacity="1" fill-rule="nonzero"/></g></g></g><g clip-path="url(#8fbb06f5c2)"><g clip-path="url(#b91c2bc991)"><g clip-path="url(#9b1212ea2e)"><path fill="#3a9bdc" d="M 33.859375 17.246094 C 25.320312 15.429688 23.773438 22.304688 23.769531 22.34375 C 23.699219 22.332031 23.628906 22.324219 23.554688 22.316406 C 22.695312 22.210938 21.8125 22.144531 20.933594 22.121094 C 22.023438 18.589844 25.289062 16.007812 29.183594 15.960938 C 30.898438 15.941406 32.5 16.414062 33.859375 17.246094 " fill-opacity="1" fill-rule="nonzero"/></g></g></g><g clip-path="url(#d6994ef7f9)"><path fill="#1c1d33" d="M 49.859375 27.699219 C 49.945312 27.734375 50.027344 27.769531 50.105469 27.804688 C 50.453125 27.964844 50.734375 28.140625 50.949219 28.332031 C 53.261719 29.523438 55.019531 29.484375 55.957031 28.882812 C 55.957031 28.875 55.957031 28.867188 55.957031 28.859375 C 55.957031 28.007812 55.820312 27.28125 55.554688 26.675781 C 55.285156 26.066406 54.902344 25.550781 54.410156 25.125 C 53.914062 24.703125 53.3125 24.347656 52.601562 24.0625 C 51.890625 23.773438 51.09375 23.511719 50.210938 23.265625 C 49.566406 23.09375 49.003906 22.9375 48.519531 22.800781 C 48.035156 22.660156 47.628906 22.507812 47.308594 22.34375 C 46.988281 22.179688 46.746094 21.992188 46.582031 21.785156 C 46.417969 21.578125 46.335938 21.316406 46.335938 21.003906 C 46.335938 19.980469 47.097656 19.46875 48.621094 19.46875 C 49.175781 19.46875 49.730469 19.546875 50.289062 19.703125 C 50.84375 19.859375 51.355469 20.042969 51.820312 20.25 C 52.289062 20.457031 52.679688 20.65625 52.992188 20.847656 C 53.304688 21.039062 53.484375 21.167969 53.539062 21.238281 L 55.410156 17.703125 C 54.996094 17.460938 54.539062 17.214844 54.046875 16.972656 C 53.550781 16.730469 53.019531 16.515625 52.445312 16.324219 C 51.875 16.132812 51.277344 15.976562 50.652344 15.855469 C 50.027344 15.734375 49.394531 15.671875 48.753906 15.671875 C 47.835938 15.671875 46.960938 15.804688 46.140625 16.0625 C 45.316406 16.324219 44.589844 16.710938 43.96875 17.222656 C 43.34375 17.730469 42.847656 18.359375 42.484375 19.105469 C 42.378906 19.324219 42.289062 19.554688 42.210938 19.789062 C 45.039062 23.808594 47.652344 26.285156 49.859375 27.699219 " fill-opacity="1" fill-rule="nonzero"/></g><g clip-path="url(#c2dc0d5697)"><path fill="#3a9bdc" d="M 55.699219 30.71875 C 55.691406 30.738281 55.6875 30.753906 55.679688 30.773438 C 55.597656 31.03125 55.492188 31.273438 55.371094 31.5 C 55.113281 31.976562 54.800781 32.390625 54.429688 32.746094 C 54.242188 32.925781 54.039062 33.09375 53.824219 33.242188 C 53.183594 33.683594 52.445312 34.003906 51.613281 34.203125 C 50.78125 34.402344 49.921875 34.503906 49.039062 34.503906 C 48.363281 34.503906 47.667969 34.449219 46.957031 34.347656 C 46.246094 34.242188 45.554688 34.089844 44.878906 33.890625 C 44.203125 33.691406 43.546875 33.453125 42.914062 33.175781 C 42.28125 32.898438 41.695312 32.578125 41.160156 32.214844 L 43.03125 28.496094 C 43.101562 28.582031 43.328125 28.746094 43.707031 28.988281 C 44.089844 29.230469 44.5625 29.472656 45.125 29.71875 C 45.578125 29.910156 46.074219 30.089844 46.609375 30.253906 C 46.742188 30.292969 46.875 30.328125 47.011719 30.367188 C 47.703125 30.558594 48.40625 30.652344 49.117188 30.652344 C 49.96875 30.652344 50.582031 30.507812 50.953125 30.210938 C 50.96875 30.199219 50.984375 30.183594 51 30.171875 C 52.207031 30.476562 53.527344 30.773438 54.128906 30.90625 C 54.339844 30.953125 54.464844 30.980469 54.464844 30.980469 C 54.464844 30.980469 54.597656 30.953125 54.796875 30.910156 C 55.039062 30.863281 55.375 30.789062 55.699219 30.71875 " fill-opacity="1" fill-rule="nonzero"/></g><path fill="#233dff" d="M 56.511719 27.488281 C 56.496094 27.476562 56.484375 27.464844 56.46875 27.457031 C 56.480469 27.460938 56.496094 27.472656 56.511719 27.488281 " fill-opacity="1" fill-rule="nonzero"/><path fill="#233dff" d="M 55.679688 30.773438 C 55.597656 31.03125 55.492188 31.273438 55.371094 31.5 C 55.113281 31.976562 54.800781 32.390625 54.429688 32.746094 C 54.207031 32.777344 53.972656 32.789062 53.738281 32.789062 C 51.617188 32.789062 49.035156 31.738281 46.609375 30.253906 C 46.742188 30.292969 46.875 30.328125 47.011719 30.367188 C 47.703125 30.558594 48.40625 30.652344 49.117188 30.652344 C 49.96875 30.652344 50.582031 30.507812 50.953125 30.210938 C 51.515625 30.421875 52.082031 30.589844 52.65625 30.707031 C 53.210938 30.816406 53.699219 30.882812 54.128906 30.90625 C 54.371094 30.921875 54.59375 30.921875 54.796875 30.910156 C 55.140625 30.894531 55.433594 30.847656 55.679688 30.773438 " fill-opacity="1" fill-rule="nonzero"/><g clip-path="url(#381716f783)"><g clip-path="url(#9043185f8d)"><g clip-path="url(#47cd4113da)"><path fill="url(#caf80f961b)" d="M 57.785156 20.300781 L 57.785156 32.007812 L 38.527344 32.007812 L 38.527344 20.300781 Z M 57.785156 20.300781 " fill-rule="nonzero"/></g></g></g><path fill="#1c1d33" d="M 80.535156 17.523438 C 79.726562 17.550781 78.96875 17.75 78.394531 18.222656 C 77.816406 17.75 77.0625 17.550781 76.253906 17.523438 L 76.253906 15.96875 L 78.359375 16.53125 C 78.382812 16.539062 78.40625 16.539062 78.429688 16.53125 L 80.535156 15.96875 Z M 83 15.992188 C 83 15.917969 82.949219 15.851562 82.878906 15.835938 L 82.878906 15.335938 C 82.988281 15.28125 82.980469 15.117188 82.851562 15.082031 L 78.429688 13.894531 C 78.40625 13.890625 78.382812 13.890625 78.359375 13.894531 L 73.933594 15.082031 C 73.800781 15.117188 73.800781 15.308594 73.933594 15.34375 L 75.644531 15.804688 L 75.644531 18.171875 C 75.804688 18.144531 75.96875 18.132812 76.136719 18.132812 C 77.082031 18.132812 77.914062 18.464844 78.390625 19.085938 L 78.394531 19.089844 L 78.398438 19.085938 C 78.875 18.464844 79.707031 18.132812 80.652344 18.132812 C 80.820312 18.132812 80.984375 18.144531 81.144531 18.171875 L 81.144531 15.804688 L 82.796875 15.359375 L 82.796875 15.835938 C 82.722656 15.851562 82.671875 15.917969 82.671875 15.992188 C 82.671875 16.050781 82.703125 16.101562 82.746094 16.132812 C 82.695312 16.324219 82.554688 16.886719 82.554688 17.359375 C 82.554688 17.359375 82.613281 17.453125 82.835938 17.464844 C 83.058594 17.453125 83.117188 17.359375 83.117188 17.359375 C 83.117188 16.886719 82.976562 16.324219 82.925781 16.132812 C 82.972656 16.101562 83 16.050781 83 15.992188 " fill-opacity="1" fill-rule="nonzero"/><g clip-path="url(#6b334b9646)"><path fill="#1c1d33" d="M 84.398438 20.53125 L 79.992188 20.53125 C 79.980469 20.902344 79.667969 21.207031 79.289062 21.207031 L 77.6875 21.207031 C 77.308594 21.207031 77 20.902344 76.984375 20.53125 L 72.550781 20.53125 L 72.550781 12.445312 L 84.398438 12.445312 Z M 85.535156 20.546875 C 85.542969 20.484375 85.546875 20.417969 85.546875 20.351562 L 85.546875 12.632812 C 85.546875 11.914062 85.003906 11.328125 84.328125 11.328125 L 72.617188 11.328125 C 71.949219 11.328125 71.402344 11.914062 71.402344 12.632812 L 71.402344 20.351562 C 71.402344 20.417969 71.40625 20.484375 71.414062 20.546875 L 69.683594 20.546875 L 69.683594 20.75 C 69.683594 21.476562 70.226562 22.054688 70.898438 22.054688 L 86.054688 22.054688 C 86.722656 22.054688 87.269531 21.476562 87.269531 20.75 L 87.269531 20.546875 L 85.535156 20.546875 " fill-opacity="1" fill-rule="nonzero"/></g><g fill="#7b7979" fill-opacity="1"><g transform="translate(0.701173, 39.471753)"><g><path d="M 0.34375 0 L 0.34375 -2.625 L 2.078125 -2.625 L 2.078125 -2.1875 L 0.8125 -2.1875 L 0.8125 -1.53125 L 2 -1.53125 L 2 -1.09375 L 0.8125 -1.09375 L 0.8125 -0.4375 L 2.078125 -0.4375 L 2.078125 0 Z M 0.34375 0 "/></g></g></g><g fill="#7b7979" fill-opacity="1"><g transform="translate(3.316082, 39.471753)"><g><path d="M 0.046875 0 L 0.921875 -1.3125 L 0.046875 -2.625 L 0.609375 -2.625 L 1.25 -1.609375 L 1.875 -2.625 L 2.4375 -2.625 L 1.5625 -1.3125 L 2.453125 0 L 1.890625 0 L 1.234375 -1 L 0.609375 0 Z M 0.046875 0 "/></g></g></g><g fill="#7b7979" fill-opacity="1"><g transform="translate(6.112885, 39.471753)"><g><path d="M 0.34375 0 L 0.34375 -2.625 L 1.15625 -2.625 C 1.289062 -2.625 1.414062 -2.601562 1.53125 -2.5625 C 1.644531 -2.53125 1.742188 -2.476562 1.828125 -2.40625 C 1.910156 -2.34375 1.972656 -2.265625 2.015625 -2.171875 C 2.054688 -2.078125 2.078125 -1.96875 2.078125 -1.84375 C 2.078125 -1.71875 2.054688 -1.609375 2.015625 -1.515625 C 1.972656 -1.421875 1.910156 -1.34375 1.828125 -1.28125 C 1.742188 -1.21875 1.644531 -1.171875 1.53125 -1.140625 C 1.414062 -1.109375 1.289062 -1.09375 1.15625 -1.09375 L 0.796875 -1.09375 L 0.796875 0 Z M 0.796875 -1.53125 L 1.15625 -1.53125 C 1.320312 -1.53125 1.4375 -1.554688 1.5 -1.609375 C 1.570312 -1.660156 1.609375 -1.738281 1.609375 -1.84375 C 1.609375 -1.945312 1.570312 -2.03125 1.5 -2.09375 C 1.425781 -2.15625 1.3125 -2.1875 1.15625 -2.1875 L 0.796875 -2.1875 Z M 0.796875 -1.53125 "/></g></g></g><g fill="#7b7979" fill-opacity="1"><g transform="translate(8.583021, 39.471753)"><g><path d="M 0.34375 0 L 0.34375 -2.625 L 2.078125 -2.625 L 2.078125 -2.1875 L 0.8125 -2.1875 L 0.8125 -1.53125 L 2 -1.53125 L 2 -1.09375 L 0.8125 -1.09375 L 0.8125 -0.4375 L 2.078125 -0.4375 L 2.078125 0 Z M 0.34375 0 "/></g></g></g><g fill="#7b7979" fill-opacity="1"><g transform="translate(11.197929, 39.471753)"><g><path d="M 0.34375 0 L 0.34375 -2.625 L 1.1875 -2.625 C 1.3125 -2.625 1.425781 -2.601562 1.53125 -2.5625 C 1.644531 -2.53125 1.742188 -2.476562 1.828125 -2.40625 C 1.910156 -2.34375 1.972656 -2.265625 2.015625 -2.171875 C 2.066406 -2.078125 2.09375 -1.96875 2.09375 -1.84375 C 2.09375 -1.738281 2.066406 -1.640625 2.015625 -1.546875 C 1.972656 -1.453125 1.914062 -1.375 1.84375 -1.3125 C 1.769531 -1.25 1.679688 -1.203125 1.578125 -1.171875 L 2.3125 0 L 1.765625 0 L 1.125 -1.125 L 0.8125 -1.125 L 0.8125 0 Z M 0.8125 -1.5 L 1.234375 -1.5 C 1.359375 -1.507812 1.453125 -1.539062 1.515625 -1.59375 C 1.585938 -1.65625 1.625 -1.738281 1.625 -1.84375 C 1.625 -1.945312 1.582031 -2.03125 1.5 -2.09375 C 1.425781 -2.164062 1.320312 -2.203125 1.1875 -2.203125 L 0.8125 -2.203125 Z M 0.8125 -1.5 "/></g></g></g><g fill="#7b7979" fill-opacity="1"><g transform="translate(13.855527, 39.471753)"><g><path d="M 0.859375 0 L 0.859375 -2.203125 L 0.03125 -2.203125 L 0.03125 -2.625 L 2.15625 -2.625 L 2.15625 -2.203125 L 1.328125 -2.203125 L 1.328125 0 Z M 0.859375 0 "/></g></g></g><g fill="#7b7979" fill-opacity="1"><g transform="translate(16.349791, 39.471753)"><g/></g></g><g fill="#7b7979" fill-opacity="1"><g transform="translate(17.567077, 39.471753)"><g><path d="M 1.421875 0.03125 C 1.242188 0.03125 1.085938 0.0078125 0.953125 -0.03125 C 0.816406 -0.0820312 0.695312 -0.148438 0.59375 -0.234375 C 0.5 -0.316406 0.414062 -0.410156 0.34375 -0.515625 C 0.28125 -0.628906 0.234375 -0.753906 0.203125 -0.890625 C 0.171875 -1.023438 0.15625 -1.164062 0.15625 -1.3125 C 0.15625 -1.457031 0.171875 -1.59375 0.203125 -1.71875 C 0.234375 -1.851562 0.28125 -1.976562 0.34375 -2.09375 C 0.414062 -2.207031 0.5 -2.304688 0.59375 -2.390625 C 0.695312 -2.472656 0.816406 -2.535156 0.953125 -2.578125 C 1.085938 -2.628906 1.242188 -2.65625 1.421875 -2.65625 C 1.585938 -2.65625 1.742188 -2.625 1.890625 -2.5625 C 2.035156 -2.507812 2.164062 -2.425781 2.28125 -2.3125 C 2.394531 -2.207031 2.488281 -2.070312 2.5625 -1.90625 L 2.140625 -1.734375 C 2.097656 -1.847656 2.039062 -1.941406 1.96875 -2.015625 C 1.894531 -2.097656 1.8125 -2.15625 1.71875 -2.1875 C 1.625 -2.226562 1.519531 -2.25 1.40625 -2.25 C 1.269531 -2.25 1.148438 -2.222656 1.046875 -2.171875 C 0.953125 -2.117188 0.875 -2.050781 0.8125 -1.96875 C 0.75 -1.882812 0.703125 -1.785156 0.671875 -1.671875 C 0.640625 -1.566406 0.625 -1.453125 0.625 -1.328125 C 0.625 -1.203125 0.640625 -1.082031 0.671875 -0.96875 C 0.703125 -0.851562 0.75 -0.75 0.8125 -0.65625 C 0.875 -0.570312 0.953125 -0.503906 1.046875 -0.453125 C 1.148438 -0.410156 1.273438 -0.390625 1.421875 -0.390625 C 1.546875 -0.390625 1.660156 -0.414062 1.765625 -0.46875 C 1.867188 -0.519531 1.953125 -0.59375 2.015625 -0.6875 C 2.085938 -0.789062 2.132812 -0.90625 2.15625 -1.03125 L 1.5625 -1.03125 L 1.5625 -1.421875 L 2.609375 -1.421875 L 2.609375 0 L 2.234375 0 L 2.1875 -0.375 C 2.144531 -0.289062 2.082031 -0.21875 2 -0.15625 C 1.925781 -0.09375 1.835938 -0.046875 1.734375 -0.015625 C 1.640625 0.015625 1.535156 0.03125 1.421875 0.03125 Z M 1.421875 0.03125 "/></g></g></g><g fill="#7b7979" fill-opacity="1"><g transform="translate(20.71839, 39.471753)"><g><path d="M 1.28125 0.03125 C 1.039062 0.03125 0.847656 -0.0078125 0.703125 -0.09375 C 0.554688 -0.175781 0.445312 -0.296875 0.375 -0.453125 C 0.3125 -0.617188 0.28125 -0.804688 0.28125 -1.015625 L 0.28125 -2.625 L 0.75 -2.625 L 0.75 -1.078125 C 0.75 -0.929688 0.765625 -0.8125 0.796875 -0.71875 C 0.828125 -0.625 0.878906 -0.550781 0.953125 -0.5 C 1.023438 -0.445312 1.132812 -0.421875 1.28125 -0.421875 C 1.414062 -0.421875 1.519531 -0.445312 1.59375 -0.5 C 1.675781 -0.550781 1.734375 -0.625 1.765625 -0.71875 C 1.796875 -0.8125 1.8125 -0.929688 1.8125 -1.078125 L 1.8125 -2.625 L 2.28125 -2.625 L 2.28125 -1.046875 C 2.28125 -0.816406 2.242188 -0.617188 2.171875 -0.453125 C 2.109375 -0.296875 2 -0.175781 1.84375 -0.09375 C 1.695312 -0.0078125 1.507812 0.03125 1.28125 0.03125 Z M 1.28125 0.03125 "/></g></g></g><g fill="#7b7979" fill-opacity="1"><g transform="translate(23.583869, 39.471753)"><g><path d="M 0.34375 0 L 0.34375 -2.625 L 0.8125 -2.625 L 0.8125 0 Z M 0.34375 0 "/></g></g></g><g fill="#7b7979" fill-opacity="1"><g transform="translate(25.035021, 39.471753)"><g><path d="M 0.34375 0 L 0.34375 -2.625 L 1.09375 -2.625 C 1.394531 -2.625 1.644531 -2.570312 1.84375 -2.46875 C 2.050781 -2.363281 2.203125 -2.210938 2.296875 -2.015625 C 2.398438 -1.816406 2.453125 -1.578125 2.453125 -1.296875 C 2.453125 -1.015625 2.398438 -0.78125 2.296875 -0.59375 C 2.191406 -0.40625 2.035156 -0.257812 1.828125 -0.15625 C 1.628906 -0.0507812 1.382812 0 1.09375 0 Z M 0.8125 -0.4375 L 1.046875 -0.4375 C 1.191406 -0.4375 1.320312 -0.445312 1.4375 -0.46875 C 1.550781 -0.5 1.648438 -0.550781 1.734375 -0.625 C 1.816406 -0.695312 1.878906 -0.785156 1.921875 -0.890625 C 1.960938 -1.003906 1.984375 -1.144531 1.984375 -1.3125 C 1.984375 -1.519531 1.953125 -1.6875 1.890625 -1.8125 C 1.835938 -1.945312 1.742188 -2.039062 1.609375 -2.09375 C 1.472656 -2.15625 1.300781 -2.1875 1.09375 -2.1875 L 0.8125 -2.1875 Z M 0.8125 -0.4375 "/></g></g></g><g fill="#7b7979" fill-opacity="1"><g transform="translate(27.954325, 39.471753)"><g><path d="M 0.015625 0 L 1.078125 -2.625 L 1.421875 -2.625 L 2.46875 0 L 1.953125 0 L 1.75 -0.5625 L 0.734375 -0.5625 L 0.53125 0 Z M 0.90625 -0.96875 L 1.59375 -0.96875 L 1.25 -1.921875 Z M 0.90625 -0.96875 "/></g></g></g><g fill="#7b7979" fill-opacity="1"><g transform="translate(30.751128, 39.471753)"><g><path d="M 0.34375 0 L 0.34375 -2.625 L 0.796875 -2.625 L 1.90625 -0.78125 L 1.90625 -2.625 L 2.359375 -2.625 L 2.359375 0 L 1.890625 0 L 0.796875 -1.84375 L 0.796875 0 Z M 0.34375 0 "/></g></g></g><g fill="#7b7979" fill-opacity="1"><g transform="translate(33.753956, 39.471753)"><g><path d="M 1.421875 0.03125 C 1.242188 0.03125 1.085938 0.0078125 0.953125 -0.03125 C 0.816406 -0.0820312 0.695312 -0.148438 0.59375 -0.234375 C 0.5 -0.316406 0.414062 -0.410156 0.34375 -0.515625 C 0.28125 -0.628906 0.234375 -0.753906 0.203125 -0.890625 C 0.171875 -1.023438 0.15625 -1.164062 0.15625 -1.3125 C 0.15625 -1.457031 0.171875 -1.59375 0.203125 -1.71875 C 0.234375 -1.851562 0.28125 -1.976562 0.34375 -2.09375 C 0.414062 -2.207031 0.5 -2.304688 0.59375 -2.390625 C 0.695312 -2.472656 0.816406 -2.535156 0.953125 -2.578125 C 1.085938 -2.628906 1.242188 -2.65625 1.421875 -2.65625 C 1.585938 -2.65625 1.742188 -2.625 1.890625 -2.5625 C 2.046875 -2.507812 2.175781 -2.425781 2.28125 -2.3125 C 2.394531 -2.207031 2.488281 -2.070312 2.5625 -1.90625 L 2.125 -1.734375 C 2.09375 -1.847656 2.039062 -1.941406 1.96875 -2.015625 C 1.90625 -2.085938 1.820312 -2.140625 1.71875 -2.171875 C 1.625 -2.203125 1.519531 -2.21875 1.40625 -2.21875 C 1.269531 -2.21875 1.148438 -2.191406 1.046875 -2.140625 C 0.953125 -2.097656 0.875 -2.035156 0.8125 -1.953125 C 0.75 -1.867188 0.703125 -1.773438 0.671875 -1.671875 C 0.640625 -1.566406 0.625 -1.453125 0.625 -1.328125 C 0.625 -1.203125 0.640625 -1.082031 0.671875 -0.96875 C 0.703125 -0.851562 0.75 -0.753906 0.8125 -0.671875 C 0.875 -0.585938 0.953125 -0.519531 1.046875 -0.46875 C 1.148438 -0.425781 1.273438 -0.40625 1.421875 -0.40625 C 1.585938 -0.40625 1.726562 -0.441406 1.84375 -0.515625 C 1.96875 -0.585938 2.0625 -0.710938 2.125 -0.890625 L 2.5625 -0.71875 C 2.5 -0.550781 2.410156 -0.410156 2.296875 -0.296875 C 2.179688 -0.191406 2.050781 -0.109375 1.90625 -0.046875 C 1.757812 0.00390625 1.597656 0.03125 1.421875 0.03125 Z M 1.421875 0.03125 "/></g></g></g><g fill="#7b7979" fill-opacity="1"><g transform="translate(36.715949, 39.471753)"><g><path d="M 0.34375 0 L 0.34375 -2.625 L 2.078125 -2.625 L 2.078125 -2.1875 L 0.8125 -2.1875 L 0.8125 -1.53125 L 2 -1.53125 L 2 -1.09375 L 0.8125 -1.09375 L 0.8125 -0.4375 L 2.078125 -0.4375 L 2.078125 0 Z M 0.34375 0 "/></g></g></g><g fill="#7b7979" fill-opacity="1"><g transform="translate(39.330858, 39.471753)"><g/></g></g><g fill="#7b7979" fill-opacity="1"><g transform="translate(40.548144, 39.471753)"><g><path d="M 0.015625 0 L 1.078125 -2.625 L 1.421875 -2.625 L 2.46875 0 L 1.953125 0 L 1.75 -0.5625 L 0.734375 -0.5625 L 0.53125 0 Z M 0.90625 -0.96875 L 1.59375 -0.96875 L 1.25 -1.921875 Z M 0.90625 -0.96875 "/></g></g></g><g fill="#7b7979" fill-opacity="1"><g transform="translate(43.344947, 39.471753)"><g><path d="M 0.34375 0 L 0.34375 -2.625 L 0.796875 -2.625 L 1.90625 -0.78125 L 1.90625 -2.625 L 2.359375 -2.625 L 2.359375 0 L 1.890625 0 L 0.796875 -1.84375 L 0.796875 0 Z M 0.34375 0 "/></g></g></g><g fill="#7b7979" fill-opacity="1"><g transform="translate(46.347777, 39.471753)"><g><path d="M 0.34375 0 L 0.34375 -2.625 L 1.09375 -2.625 C 1.394531 -2.625 1.644531 -2.570312 1.84375 -2.46875 C 2.050781 -2.363281 2.203125 -2.210938 2.296875 -2.015625 C 2.398438 -1.816406 2.453125 -1.578125 2.453125 -1.296875 C 2.453125 -1.015625 2.398438 -0.78125 2.296875 -0.59375 C 2.191406 -0.40625 2.035156 -0.257812 1.828125 -0.15625 C 1.628906 -0.0507812 1.382812 0 1.09375 0 Z M 0.8125 -0.4375 L 1.046875 -0.4375 C 1.191406 -0.4375 1.320312 -0.445312 1.4375 -0.46875 C 1.550781 -0.5 1.648438 -0.550781 1.734375 -0.625 C 1.816406 -0.695312 1.878906 -0.785156 1.921875 -0.890625 C 1.960938 -1.003906 1.984375 -1.144531 1.984375 -1.3125 C 1.984375 -1.519531 1.953125 -1.6875 1.890625 -1.8125 C 1.835938 -1.945312 1.742188 -2.039062 1.609375 -2.09375 C 1.472656 -2.15625 1.300781 -2.1875 1.09375 -2.1875 L 0.8125 -2.1875 Z M 0.8125 -0.4375 "/></g></g></g><g fill="#7b7979" fill-opacity="1"><g transform="translate(49.267084, 39.471753)"><g/></g></g><g fill="#7b7979" fill-opacity="1"><g transform="translate(50.484372, 39.471753)"><g><path d="M 0.34375 0 L 0.34375 -2.625 L 2.078125 -2.625 L 2.078125 -2.1875 L 0.8125 -2.1875 L 0.8125 -1.53125 L 2 -1.53125 L 2 -1.09375 L 0.8125 -1.09375 L 0.8125 -0.4375 L 2.078125 -0.4375 L 2.078125 0 Z M 0.34375 0 "/></g></g></g><g fill="#7b7979" fill-opacity="1"><g transform="translate(53.099283, 39.471753)"><g><path d="M 0.34375 0 L 0.34375 -2.625 L 0.796875 -2.625 L 1.90625 -0.78125 L 1.90625 -2.625 L 2.359375 -2.625 L 2.359375 0 L 1.890625 0 L 0.796875 -1.84375 L 0.796875 0 Z M 0.34375 0 "/></g></g></g><g fill="#7b7979" fill-opacity="1"><g transform="translate(56.102113, 39.471753)"><g><path d="M 0.34375 0 L 0.34375 -2.625 L 1.09375 -2.625 C 1.394531 -2.625 1.644531 -2.570312 1.84375 -2.46875 C 2.050781 -2.363281 2.203125 -2.210938 2.296875 -2.015625 C 2.398438 -1.816406 2.453125 -1.578125 2.453125 -1.296875 C 2.453125 -1.015625 2.398438 -0.78125 2.296875 -0.59375 C 2.191406 -0.40625 2.035156 -0.257812 1.828125 -0.15625 C 1.628906 -0.0507812 1.382812 0 1.09375 0 Z M 0.8125 -0.4375 L 1.046875 -0.4375 C 1.191406 -0.4375 1.320312 -0.445312 1.4375 -0.46875 C 1.550781 -0.5 1.648438 -0.550781 1.734375 -0.625 C 1.816406 -0.695312 1.878906 -0.785156 1.921875 -0.890625 C 1.960938 -1.003906 1.984375 -1.144531 1.984375 -1.3125 C 1.984375 -1.519531 1.953125 -1.6875 1.890625 -1.8125 C 1.835938 -1.945312 1.742188 -2.039062 1.609375 -2.09375 C 1.472656 -2.15625 1.300781 -2.1875 1.09375 -2.1875 L 0.8125 -2.1875 Z M 0.8125 -0.4375 "/></g></g></g><g fill="#7b7979" fill-opacity="1"><g transform="translate(59.02142, 39.471753)"><g><path d="M 0.34375 0 L 0.34375 -2.625 L 0.8125 -2.625 L 0.8125 -0.4375 L 1.921875 -0.4375 L 1.921875 0 Z M 0.34375 0 "/></g></g></g><g fill="#7b7979" fill-opacity="1"><g transform="translate(61.298525, 39.471753)"><g><path d="M 0.34375 0 L 0.34375 -2.625 L 2.078125 -2.625 L 2.078125 -2.1875 L 0.8125 -2.1875 L 0.8125 -1.53125 L 2 -1.53125 L 2 -1.09375 L 0.8125 -1.09375 L 0.8125 -0.4375 L 2.078125 -0.4375 L 2.078125 0 Z M 0.34375 0 "/></g></g></g><g fill="#7b7979" fill-opacity="1"><g transform="translate(63.913436, 39.471753)"><g><path d="M 1.09375 0.03125 C 0.96875 0.03125 0.847656 0.015625 0.734375 -0.015625 C 0.628906 -0.046875 0.53125 -0.09375 0.4375 -0.15625 C 0.34375 -0.21875 0.265625 -0.296875 0.203125 -0.390625 C 0.140625 -0.492188 0.0976562 -0.609375 0.078125 -0.734375 L 0.546875 -0.859375 C 0.554688 -0.742188 0.585938 -0.648438 0.640625 -0.578125 C 0.691406 -0.515625 0.753906 -0.46875 0.828125 -0.4375 C 0.910156 -0.40625 1 -0.390625 1.09375 -0.390625 C 1.1875 -0.390625 1.265625 -0.398438 1.328125 -0.421875 C 1.390625 -0.453125 1.4375 -0.492188 1.46875 -0.546875 C 1.507812 -0.597656 1.53125 -0.65625 1.53125 -0.71875 C 1.53125 -0.789062 1.507812 -0.847656 1.46875 -0.890625 C 1.4375 -0.941406 1.390625 -0.984375 1.328125 -1.015625 C 1.265625 -1.054688 1.195312 -1.09375 1.125 -1.125 C 1.050781 -1.15625 0.972656 -1.1875 0.890625 -1.21875 C 0.804688 -1.25 0.726562 -1.28125 0.65625 -1.3125 C 0.582031 -1.351562 0.515625 -1.398438 0.453125 -1.453125 C 0.390625 -1.515625 0.335938 -1.582031 0.296875 -1.65625 C 0.265625 -1.738281 0.25 -1.832031 0.25 -1.9375 C 0.25 -2.050781 0.269531 -2.148438 0.3125 -2.234375 C 0.363281 -2.328125 0.425781 -2.40625 0.5 -2.46875 C 0.570312 -2.53125 0.65625 -2.578125 0.75 -2.609375 C 0.851562 -2.640625 0.960938 -2.65625 1.078125 -2.65625 C 1.234375 -2.65625 1.378906 -2.617188 1.515625 -2.546875 C 1.660156 -2.472656 1.78125 -2.359375 1.875 -2.203125 L 1.484375 -1.953125 C 1.429688 -2.046875 1.367188 -2.113281 1.296875 -2.15625 C 1.222656 -2.207031 1.144531 -2.234375 1.0625 -2.234375 C 1 -2.234375 0.941406 -2.222656 0.890625 -2.203125 C 0.835938 -2.179688 0.796875 -2.148438 0.765625 -2.109375 C 0.742188 -2.066406 0.734375 -2.015625 0.734375 -1.953125 C 0.734375 -1.890625 0.75 -1.835938 0.78125 -1.796875 C 0.820312 -1.753906 0.867188 -1.71875 0.921875 -1.6875 C 0.984375 -1.65625 1.050781 -1.625 1.125 -1.59375 C 1.195312 -1.5625 1.273438 -1.53125 1.359375 -1.5 C 1.441406 -1.46875 1.519531 -1.429688 1.59375 -1.390625 C 1.664062 -1.347656 1.734375 -1.300781 1.796875 -1.25 C 1.859375 -1.195312 1.90625 -1.128906 1.9375 -1.046875 C 1.976562 -0.960938 2 -0.867188 2 -0.765625 C 2 -0.640625 1.972656 -0.523438 1.921875 -0.421875 C 1.878906 -0.328125 1.816406 -0.242188 1.734375 -0.171875 C 1.648438 -0.109375 1.550781 -0.0546875 1.4375 -0.015625 C 1.332031 0.015625 1.21875 0.03125 1.09375 0.03125 Z M 1.09375 0.03125 "/></g></g></g><g fill="#7b7979" fill-opacity="1"><g transform="translate(66.327891, 39.471753)"><g><path d="M 1.09375 0.03125 C 0.96875 0.03125 0.847656 0.015625 0.734375 -0.015625 C 0.628906 -0.046875 0.53125 -0.09375 0.4375 -0.15625 C 0.34375 -0.21875 0.265625 -0.296875 0.203125 -0.390625 C 0.140625 -0.492188 0.0976562 -0.609375 0.078125 -0.734375 L 0.546875 -0.859375 C 0.554688 -0.742188 0.585938 -0.648438 0.640625 -0.578125 C 0.691406 -0.515625 0.753906 -0.46875 0.828125 -0.4375 C 0.910156 -0.40625 1 -0.390625 1.09375 -0.390625 C 1.1875 -0.390625 1.265625 -0.398438 1.328125 -0.421875 C 1.390625 -0.453125 1.4375 -0.492188 1.46875 -0.546875 C 1.507812 -0.597656 1.53125 -0.65625 1.53125 -0.71875 C 1.53125 -0.789062 1.507812 -0.847656 1.46875 -0.890625 C 1.4375 -0.941406 1.390625 -0.984375 1.328125 -1.015625 C 1.265625 -1.054688 1.195312 -1.09375 1.125 -1.125 C 1.050781 -1.15625 0.972656 -1.1875 0.890625 -1.21875 C 0.804688 -1.25 0.726562 -1.28125 0.65625 -1.3125 C 0.582031 -1.351562 0.515625 -1.398438 0.453125 -1.453125 C 0.390625 -1.515625 0.335938 -1.582031 0.296875 -1.65625 C 0.265625 -1.738281 0.25 -1.832031 0.25 -1.9375 C 0.25 -2.050781 0.269531 -2.148438 0.3125 -2.234375 C 0.363281 -2.328125 0.425781 -2.40625 0.5 -2.46875 C 0.570312 -2.53125 0.65625 -2.578125 0.75 -2.609375 C 0.851562 -2.640625 0.960938 -2.65625 1.078125 -2.65625 C 1.234375 -2.65625 1.378906 -2.617188 1.515625 -2.546875 C 1.660156 -2.472656 1.78125 -2.359375 1.875 -2.203125 L 1.484375 -1.953125 C 1.429688 -2.046875 1.367188 -2.113281 1.296875 -2.15625 C 1.222656 -2.207031 1.144531 -2.234375 1.0625 -2.234375 C 1 -2.234375 0.941406 -2.222656 0.890625 -2.203125 C 0.835938 -2.179688 0.796875 -2.148438 0.765625 -2.109375 C 0.742188 -2.066406 0.734375 -2.015625 0.734375 -1.953125 C 0.734375 -1.890625 0.75 -1.835938 0.78125 -1.796875 C 0.820312 -1.753906 0.867188 -1.71875 0.921875 -1.6875 C 0.984375 -1.65625 1.050781 -1.625 1.125 -1.59375 C 1.195312 -1.5625 1.273438 -1.53125 1.359375 -1.5 C 1.441406 -1.46875 1.519531 -1.429688 1.59375 -1.390625 C 1.664062 -1.347656 1.734375 -1.300781 1.796875 -1.25 C 1.859375 -1.195312 1.90625 -1.128906 1.9375 -1.046875 C 1.976562 -0.960938 2 -0.867188 2 -0.765625 C 2 -0.640625 1.972656 -0.523438 1.921875 -0.421875 C 1.878906 -0.328125 1.816406 -0.242188 1.734375 -0.171875 C 1.648438 -0.109375 1.550781 -0.0546875 1.4375 -0.015625 C 1.332031 0.015625 1.21875 0.03125 1.09375 0.03125 Z M 1.09375 0.03125 "/></g></g></g><g fill="#7b7979" fill-opacity="1"><g transform="translate(68.742346, 39.471753)"><g/></g></g><g fill="#7b7979" fill-opacity="1"><g transform="translate(69.959634, 39.471753)"><g><path d="M 1.09375 0.03125 C 0.96875 0.03125 0.847656 0.015625 0.734375 -0.015625 C 0.628906 -0.046875 0.53125 -0.09375 0.4375 -0.15625 C 0.34375 -0.21875 0.265625 -0.296875 0.203125 -0.390625 C 0.140625 -0.492188 0.0976562 -0.609375 0.078125 -0.734375 L 0.546875 -0.859375 C 0.554688 -0.742188 0.585938 -0.648438 0.640625 -0.578125 C 0.691406 -0.515625 0.753906 -0.46875 0.828125 -0.4375 C 0.910156 -0.40625 1 -0.390625 1.09375 -0.390625 C 1.1875 -0.390625 1.265625 -0.398438 1.328125 -0.421875 C 1.390625 -0.453125 1.4375 -0.492188 1.46875 -0.546875 C 1.507812 -0.597656 1.53125 -0.65625 1.53125 -0.71875 C 1.53125 -0.789062 1.507812 -0.847656 1.46875 -0.890625 C 1.4375 -0.941406 1.390625 -0.984375 1.328125 -1.015625 C 1.265625 -1.054688 1.195312 -1.09375 1.125 -1.125 C 1.050781 -1.15625 0.972656 -1.1875 0.890625 -1.21875 C 0.804688 -1.25 0.726562 -1.28125 0.65625 -1.3125 C 0.582031 -1.351562 0.515625 -1.398438 0.453125 -1.453125 C 0.390625 -1.515625 0.335938 -1.582031 0.296875 -1.65625 C 0.265625 -1.738281 0.25 -1.832031 0.25 -1.9375 C 0.25 -2.050781 0.269531 -2.148438 0.3125 -2.234375 C 0.363281 -2.328125 0.425781 -2.40625 0.5 -2.46875 C 0.570312 -2.53125 0.65625 -2.578125 0.75 -2.609375 C 0.851562 -2.640625 0.960938 -2.65625 1.078125 -2.65625 C 1.234375 -2.65625 1.378906 -2.617188 1.515625 -2.546875 C 1.660156 -2.472656 1.78125 -2.359375 1.875 -2.203125 L 1.484375 -1.953125 C 1.429688 -2.046875 1.367188 -2.113281 1.296875 -2.15625 C 1.222656 -2.207031 1.144531 -2.234375 1.0625 -2.234375 C 1 -2.234375 0.941406 -2.222656 0.890625 -2.203125 C 0.835938 -2.179688 0.796875 -2.148438 0.765625 -2.109375 C 0.742188 -2.066406 0.734375 -2.015625 0.734375 -1.953125 C 0.734375 -1.890625 0.75 -1.835938 0.78125 -1.796875 C 0.820312 -1.753906 0.867188 -1.71875 0.921875 -1.6875 C 0.984375 -1.65625 1.050781 -1.625 1.125 -1.59375 C 1.195312 -1.5625 1.273438 -1.53125 1.359375 -1.5 C 1.441406 -1.46875 1.519531 -1.429688 1.59375 -1.390625 C 1.664062 -1.347656 1.734375 -1.300781 1.796875 -1.25 C 1.859375 -1.195312 1.90625 -1.128906 1.9375 -1.046875 C 1.976562 -0.960938 2 -0.867188 2 -0.765625 C 2 -0.640625 1.972656 -0.523438 1.921875 -0.421875 C 1.878906 -0.328125 1.816406 -0.242188 1.734375 -0.171875 C 1.648438 -0.109375 1.550781 -0.0546875 1.4375 -0.015625 C 1.332031 0.015625 1.21875 0.03125 1.09375 0.03125 Z M 1.09375 0.03125 "/></g></g></g><g fill="#7b7979" fill-opacity="1"><g transform="translate(72.374089, 39.471753)"><g><path d="M 1.28125 0.03125 C 1.039062 0.03125 0.847656 -0.0078125 0.703125 -0.09375 C 0.554688 -0.175781 0.445312 -0.296875 0.375 -0.453125 C 0.3125 -0.617188 0.28125 -0.804688 0.28125 -1.015625 L 0.28125 -2.625 L 0.75 -2.625 L 0.75 -1.078125 C 0.75 -0.929688 0.765625 -0.8125 0.796875 -0.71875 C 0.828125 -0.625 0.878906 -0.550781 0.953125 -0.5 C 1.023438 -0.445312 1.132812 -0.421875 1.28125 -0.421875 C 1.414062 -0.421875 1.519531 -0.445312 1.59375 -0.5 C 1.675781 -0.550781 1.734375 -0.625 1.765625 -0.71875 C 1.796875 -0.8125 1.8125 -0.929688 1.8125 -1.078125 L 1.8125 -2.625 L 2.28125 -2.625 L 2.28125 -1.046875 C 2.28125 -0.816406 2.242188 -0.617188 2.171875 -0.453125 C 2.109375 -0.296875 2 -0.175781 1.84375 -0.09375 C 1.695312 -0.0078125 1.507812 0.03125 1.28125 0.03125 Z M 1.28125 0.03125 "/></g></g></g><g fill="#7b7979" fill-opacity="1"><g transform="translate(75.23957, 39.471753)"><g><path d="M 0.34375 0 L 0.34375 -2.625 L 1.15625 -2.625 C 1.289062 -2.625 1.414062 -2.601562 1.53125 -2.5625 C 1.644531 -2.53125 1.742188 -2.476562 1.828125 -2.40625 C 1.910156 -2.34375 1.972656 -2.265625 2.015625 -2.171875 C 2.054688 -2.078125 2.078125 -1.96875 2.078125 -1.84375 C 2.078125 -1.71875 2.054688 -1.609375 2.015625 -1.515625 C 1.972656 -1.421875 1.910156 -1.34375 1.828125 -1.28125 C 1.742188 -1.21875 1.644531 -1.171875 1.53125 -1.140625 C 1.414062 -1.109375 1.289062 -1.09375 1.15625 -1.09375 L 0.796875 -1.09375 L 0.796875 0 Z M 0.796875 -1.53125 L 1.15625 -1.53125 C 1.320312 -1.53125 1.4375 -1.554688 1.5 -1.609375 C 1.570312 -1.660156 1.609375 -1.738281 1.609375 -1.84375 C 1.609375 -1.945312 1.570312 -2.03125 1.5 -2.09375 C 1.425781 -2.15625 1.3125 -2.1875 1.15625 -2.1875 L 0.796875 -2.1875 Z M 0.796875 -1.53125 "/></g></g></g><g fill="#7b7979" fill-opacity="1"><g transform="translate(77.709707, 39.471753)"><g><path d="M 0.34375 0 L 0.34375 -2.625 L 1.15625 -2.625 C 1.289062 -2.625 1.414062 -2.601562 1.53125 -2.5625 C 1.644531 -2.53125 1.742188 -2.476562 1.828125 -2.40625 C 1.910156 -2.34375 1.972656 -2.265625 2.015625 -2.171875 C 2.054688 -2.078125 2.078125 -1.96875 2.078125 -1.84375 C 2.078125 -1.71875 2.054688 -1.609375 2.015625 -1.515625 C 1.972656 -1.421875 1.910156 -1.34375 1.828125 -1.28125 C 1.742188 -1.21875 1.644531 -1.171875 1.53125 -1.140625 C 1.414062 -1.109375 1.289062 -1.09375 1.15625 -1.09375 L 0.796875 -1.09375 L 0.796875 0 Z M 0.796875 -1.53125 L 1.15625 -1.53125 C 1.320312 -1.53125 1.4375 -1.554688 1.5 -1.609375 C 1.570312 -1.660156 1.609375 -1.738281 1.609375 -1.84375 C 1.609375 -1.945312 1.570312 -2.03125 1.5 -2.09375 C 1.425781 -2.15625 1.3125 -2.1875 1.15625 -2.1875 L 0.796875 -2.1875 Z M 0.796875 -1.53125 "/></g></g></g><g fill="#7b7979" fill-opacity="1"><g transform="translate(80.179844, 39.471753)"><g><path d="M 1.421875 0.03125 C 1.242188 0.03125 1.085938 0.0078125 0.953125 -0.03125 C 0.816406 -0.0820312 0.695312 -0.148438 0.59375 -0.234375 C 0.5 -0.316406 0.414062 -0.414062 0.34375 -0.53125 C 0.28125 -0.644531 0.234375 -0.765625 0.203125 -0.890625 C 0.171875 -1.023438 0.15625 -1.164062 0.15625 -1.3125 C 0.15625 -1.457031 0.171875 -1.59375 0.203125 -1.71875 C 0.234375 -1.851562 0.28125 -1.976562 0.34375 -2.09375 C 0.414062 -2.207031 0.5 -2.304688 0.59375 -2.390625 C 0.695312 -2.472656 0.816406 -2.535156 0.953125 -2.578125 C 1.085938 -2.628906 1.242188 -2.65625 1.421875 -2.65625 C 1.585938 -2.65625 1.738281 -2.628906 1.875 -2.578125 C 2.007812 -2.535156 2.128906 -2.472656 2.234375 -2.390625 C 2.335938 -2.304688 2.421875 -2.207031 2.484375 -2.09375 C 2.546875 -1.976562 2.59375 -1.851562 2.625 -1.71875 C 2.664062 -1.59375 2.6875 -1.457031 2.6875 -1.3125 C 2.6875 -1.164062 2.664062 -1.023438 2.625 -0.890625 C 2.59375 -0.765625 2.546875 -0.644531 2.484375 -0.53125 C 2.421875 -0.414062 2.335938 -0.316406 2.234375 -0.234375 C 2.128906 -0.148438 2.007812 -0.0820312 1.875 -0.03125 C 1.738281 0.0078125 1.585938 0.03125 1.421875 0.03125 Z M 1.421875 -0.375 C 1.554688 -0.375 1.671875 -0.398438 1.765625 -0.453125 C 1.867188 -0.503906 1.945312 -0.570312 2 -0.65625 C 2.0625 -0.75 2.109375 -0.847656 2.140625 -0.953125 C 2.171875 -1.066406 2.1875 -1.1875 2.1875 -1.3125 C 2.1875 -1.4375 2.171875 -1.550781 2.140625 -1.65625 C 2.109375 -1.769531 2.0625 -1.867188 2 -1.953125 C 1.945312 -2.046875 1.867188 -2.113281 1.765625 -2.15625 C 1.671875 -2.207031 1.554688 -2.234375 1.421875 -2.234375 C 1.273438 -2.234375 1.148438 -2.207031 1.046875 -2.15625 C 0.953125 -2.113281 0.875 -2.046875 0.8125 -1.953125 C 0.757812 -1.867188 0.71875 -1.769531 0.6875 -1.65625 C 0.664062 -1.550781 0.65625 -1.4375 0.65625 -1.3125 C 0.65625 -1.1875 0.664062 -1.066406 0.6875 -0.953125 C 0.71875 -0.847656 0.757812 -0.75 0.8125 -0.65625 C 0.875 -0.570312 0.953125 -0.503906 1.046875 -0.453125 C 1.148438 -0.398438 1.273438 -0.375 1.421875 -0.375 Z M 1.421875 -0.375 "/></g></g></g><g fill="#7b7979" fill-opacity="1"><g transform="translate(83.320019, 39.471753)"><g><path d="M 0.34375 0 L 0.34375 -2.625 L 1.1875 -2.625 C 1.3125 -2.625 1.425781 -2.601562 1.53125 -2.5625 C 1.644531 -2.53125 1.742188 -2.476562 1.828125 -2.40625 C 1.910156 -2.34375 1.972656 -2.265625 2.015625 -2.171875 C 2.066406 -2.078125 2.09375 -1.96875 2.09375 -1.84375 C 2.09375 -1.738281 2.066406 -1.640625 2.015625 -1.546875 C 1.972656 -1.453125 1.914062 -1.375 1.84375 -1.3125 C 1.769531 -1.25 1.679688 -1.203125 1.578125 -1.171875 L 2.3125 0 L 1.765625 0 L 1.125 -1.125 L 0.8125 -1.125 L 0.8125 0 Z M 0.8125 -1.5 L 1.234375 -1.5 C 1.359375 -1.507812 1.453125 -1.539062 1.515625 -1.59375 C 1.585938 -1.65625 1.625 -1.738281 1.625 -1.84375 C 1.625 -1.945312 1.582031 -2.03125 1.5 -2.09375 C 1.425781 -2.164062 1.320312 -2.203125 1.1875 -2.203125 L 0.8125 -2.203125 Z M 0.8125 -1.5 "/></g></g></g><g fill="#7b7979" fill-opacity="1"><g transform="translate(85.977614, 39.471753)"><g><path d="M 0.859375 0 L 0.859375 -2.203125 L 0.03125 -2.203125 L 0.03125 -2.625 L 2.15625 -2.625 L 2.15625 -2.203125 L 1.328125 -2.203125 L 1.328125 0 Z M 0.859375 0 "/></g></g></g><g clip-path="url(#23d7d479a5)"><g fill="#1c1d33" fill-opacity="1"><g transform="translate(0.765517, 30.112213)"><g><path d="M 0.125 -10.359375 L 0.125 -12.953125 L 9.234375 -12.953125 L 9.234375 -10.359375 L 6.15625 -10.359375 L 6.15625 0 L 3.203125 0 L 3.203125 -10.359375 Z M 0.125 -10.359375 "/></g></g></g></g><g fill="#1c1d33" fill-opacity="1"><g transform="translate(10.12036, 30.112213)"><g><path d="M 9.09375 -3.640625 L 3.25 -3.640625 C 3.25 -3.078125 3.429688 -2.660156 3.796875 -2.390625 C 4.160156 -2.117188 4.5625 -1.984375 5 -1.984375 C 5.445312 -1.984375 5.800781 -2.039062 6.0625 -2.15625 C 6.320312 -2.28125 6.617188 -2.519531 6.953125 -2.875 L 8.96875 -1.875 C 8.125 -0.46875 6.734375 0.234375 4.796875 0.234375 C 3.578125 0.234375 2.53125 -0.179688 1.65625 -1.015625 C 0.789062 -1.847656 0.359375 -2.847656 0.359375 -4.015625 C 0.359375 -5.191406 0.789062 -6.195312 1.65625 -7.03125 C 2.53125 -7.875 3.578125 -8.296875 4.796875 -8.296875 C 6.066406 -8.296875 7.101562 -7.925781 7.90625 -7.1875 C 8.707031 -6.445312 9.109375 -5.390625 9.109375 -4.015625 C 9.109375 -3.828125 9.101562 -3.703125 9.09375 -3.640625 Z M 3.328125 -5.1875 L 6.390625 -5.1875 C 6.328125 -5.601562 6.160156 -5.921875 5.890625 -6.140625 C 5.628906 -6.367188 5.289062 -6.484375 4.875 -6.484375 C 4.40625 -6.484375 4.035156 -6.363281 3.765625 -6.125 C 3.492188 -5.882812 3.347656 -5.570312 3.328125 -5.1875 Z M 3.328125 -5.1875 "/></g></g></g><g fill="#1c1d33" fill-opacity="1"><g transform="translate(19.588799, 30.112213)"><g/></g></g><g fill="#1c1d33" fill-opacity="1"><g transform="translate(23.873819, 30.112213)"><g/></g></g><g fill="#1c1d33" fill-opacity="1"><g transform="translate(28.15884, 30.112213)"><g/></g></g><g fill="#1c1d33" fill-opacity="1"><g transform="translate(32.44386, 30.112213)"><g/></g></g><g fill="#1c1d33" fill-opacity="1"><g transform="translate(36.728881, 30.112213)"><g/></g></g><g fill="#1c1d33" fill-opacity="1"><g transform="translate(41.013901, 30.112213)"><g/></g></g><g fill="#1c1d33" fill-opacity="1"><g transform="translate(45.298922, 30.112213)"><g/></g></g><g fill="#1c1d33" fill-opacity="1"><g transform="translate(49.583942, 30.112213)"><g/></g></g><g fill="#1c1d33" fill-opacity="1"><g transform="translate(53.868963, 30.112213)"><g/></g></g><g fill="#1c1d33" fill-opacity="1"><g transform="translate(58.156011, 30.112213)"><g><path d="M 9.234375 -7.0625 C 9.984375 -6.238281 10.359375 -5.226562 10.359375 -4.03125 C 10.359375 -2.84375 9.984375 -1.832031 9.234375 -1 C 8.484375 -0.175781 7.523438 0.234375 6.359375 0.234375 C 5.296875 0.234375 4.414062 -0.0976562 3.71875 -0.765625 L 3.71875 4.078125 L 0.9375 4.078125 L 0.9375 -8.0625 L 3.6875 -8.0625 L 3.6875 -7.140625 L 3.71875 -7.140625 C 4.414062 -7.910156 5.296875 -8.296875 6.359375 -8.296875 C 7.523438 -8.296875 8.484375 -7.882812 9.234375 -7.0625 Z M 6.859375 -2.671875 C 7.222656 -3.023438 7.40625 -3.476562 7.40625 -4.03125 C 7.40625 -4.59375 7.234375 -5.046875 6.890625 -5.390625 C 6.546875 -5.742188 6.09375 -5.921875 5.53125 -5.921875 C 4.988281 -5.921875 4.539062 -5.742188 4.1875 -5.390625 C 3.832031 -5.035156 3.65625 -4.582031 3.65625 -4.03125 C 3.65625 -3.476562 3.835938 -3.023438 4.203125 -2.671875 C 4.566406 -2.316406 5.007812 -2.140625 5.53125 -2.140625 C 6.0625 -2.140625 6.503906 -2.316406 6.859375 -2.671875 Z M 6.859375 -2.671875 "/></g></g></g><g fill="#1c1d33" fill-opacity="1"><g transform="translate(68.876407, 30.112213)"><g><path d="M 1.703125 -0.953125 C 0.804688 -1.753906 0.359375 -2.773438 0.359375 -4.015625 C 0.359375 -5.265625 0.820312 -6.289062 1.75 -7.09375 C 2.6875 -7.894531 3.84375 -8.296875 5.21875 -8.296875 C 6.5625 -8.296875 7.695312 -7.890625 8.625 -7.078125 C 9.550781 -6.273438 10.015625 -5.253906 10.015625 -4.015625 C 10.015625 -2.785156 9.5625 -1.769531 8.65625 -0.96875 C 7.75 -0.164062 6.601562 0.234375 5.21875 0.234375 C 3.769531 0.234375 2.597656 -0.160156 1.703125 -0.953125 Z M 3.84375 -5.390625 C 3.488281 -5.035156 3.3125 -4.578125 3.3125 -4.015625 C 3.3125 -3.460938 3.484375 -3.007812 3.828125 -2.65625 C 4.171875 -2.3125 4.628906 -2.140625 5.203125 -2.140625 C 5.742188 -2.140625 6.1875 -2.316406 6.53125 -2.671875 C 6.882812 -3.023438 7.0625 -3.472656 7.0625 -4.015625 C 7.0625 -4.578125 6.878906 -5.035156 6.515625 -5.390625 C 6.160156 -5.742188 5.722656 -5.921875 5.203125 -5.921875 C 4.660156 -5.921875 4.207031 -5.742188 3.84375 -5.390625 Z M 3.84375 -5.390625 "/></g></g></g><g fill="#1c1d33" fill-opacity="1"><g transform="translate(79.251491, 30.112213)"><g><path d="M 5.234375 -6.015625 C 4.703125 -6.015625 4.25 -5.820312 3.875 -5.4375 C 3.5 -5.050781 3.3125 -4.582031 3.3125 -4.03125 C 3.3125 -3.476562 3.5 -3.007812 3.875 -2.625 C 4.25 -2.238281 4.703125 -2.046875 5.234375 -2.046875 C 5.484375 -2.046875 5.71875 -2.078125 5.9375 -2.140625 C 6.164062 -2.203125 6.332031 -2.265625 6.4375 -2.328125 L 6.578125 -2.421875 L 7.515625 -0.484375 C 7.441406 -0.429688 7.335938 -0.363281 7.203125 -0.28125 C 7.078125 -0.207031 6.78125 -0.101562 6.3125 0.03125 C 5.851562 0.164062 5.359375 0.234375 4.828125 0.234375 C 3.640625 0.234375 2.597656 -0.179688 1.703125 -1.015625 C 0.804688 -1.847656 0.359375 -2.84375 0.359375 -4 C 0.359375 -5.175781 0.804688 -6.1875 1.703125 -7.03125 C 2.597656 -7.875 3.640625 -8.296875 4.828125 -8.296875 C 5.359375 -8.296875 5.847656 -8.234375 6.296875 -8.109375 C 6.742188 -7.984375 7.0625 -7.851562 7.25 -7.71875 L 7.515625 -7.53125 L 6.578125 -5.640625 C 6.234375 -5.890625 5.785156 -6.015625 5.234375 -6.015625 Z M 5.234375 -6.015625 "/></g></g></g></svg>